{"glyphs":{"0":{"ha":971,"x_min":103,"x_max":868,"o":"m 868 754 l 868 110 q 758 0 868 0 l 213 0 q 103 110 103 0 l 103 754 q 213 864 103 864 l 758 864 q 868 754 868 864 m 644 125 l 644 739 q 636 774 644 767 q 601 782 628 782 l 372 782 q 337 774 344 782 q 329 739 329 767 l 329 125 q 337 90 329 97 q 372 82 344 82 l 601 82 q 636 90 628 82 q 644 125 644 97 z "},"1":{"ha":539,"x_min":29,"x_max":436,"o":"m 436 864 l 436 0 l 206 0 l 206 782 l 29 782 l 29 864 l 436 864 z "},"2":{"ha":900,"x_min":72,"x_max":836,"o":"m 299 739 l 299 569 l 72 569 l 72 754 q 182 864 72 864 l 721 864 q 831 754 831 864 l 831 650 q 813 519 831 564 q 743 425 796 474 l 365 82 l 836 82 l 836 0 l 72 0 l 72 82 l 529 497 q 590 570 572 538 q 607 653 607 603 l 607 739 q 599 774 607 767 q 564 782 592 782 l 342 782 q 306 774 314 782 q 299 739 299 767 z "},"3":{"ha":943,"x_min":86,"x_max":850,"o":"m 311 739 l 311 590 l 86 590 l 86 754 q 196 864 86 864 l 740 864 q 850 754 850 864 l 850 529 q 774 440 850 444 q 850 353 850 433 l 850 110 q 740 0 850 0 l 196 0 q 86 110 86 0 l 86 272 l 311 272 l 311 125 q 319 90 311 97 q 354 82 328 82 l 583 82 q 619 90 611 82 q 626 125 626 97 l 626 353 q 619 388 626 381 q 583 396 611 396 l 385 396 l 385 479 l 583 479 q 619 487 611 479 q 626 522 626 494 l 626 739 q 619 774 626 767 q 583 782 611 782 l 354 782 q 319 774 328 782 q 311 739 311 767 z "},"4":{"ha":954,"x_min":43,"x_max":932,"o":"m 932 222 l 932 140 l 788 140 l 788 0 l 576 0 l 576 140 l 43 140 l 43 247 l 432 864 l 663 864 l 268 222 l 576 222 l 576 456 l 788 456 l 788 222 l 932 222 z "},"5":{"ha":918,"x_min":100,"x_max":847,"o":"m 340 526 l 738 526 q 847 417 847 526 l 847 110 q 738 0 847 0 l 210 0 q 100 110 100 0 l 100 285 l 325 285 l 325 125 q 333 90 325 97 q 368 82 342 82 l 579 82 q 614 90 606 82 q 622 125 622 97 l 622 401 q 614 436 622 428 q 579 444 606 444 l 108 444 l 108 864 l 831 864 l 831 782 l 340 782 l 340 526 z "},"6":{"ha":939,"x_min":103,"x_max":847,"o":"m 624 125 l 624 372 q 616 408 624 400 q 581 415 608 415 l 329 415 l 329 125 q 337 90 329 97 q 372 82 344 82 l 581 82 q 616 90 608 82 q 624 125 624 97 m 329 497 l 738 497 q 847 388 847 497 l 847 110 q 738 0 847 0 l 213 0 q 103 110 103 0 l 103 754 q 213 864 103 864 l 726 864 q 836 754 836 864 l 836 596 l 613 596 l 613 739 q 605 774 613 767 q 569 782 597 782 l 372 782 q 337 774 344 782 q 329 739 329 767 l 329 497 z "},"7":{"ha":767,"x_min":40,"x_max":744,"o":"m 744 864 l 744 768 l 374 0 l 135 0 l 519 782 l 40 782 l 40 864 l 744 864 z "},"8":{"ha":946,"x_min":100,"x_max":846,"o":"m 210 864 l 736 864 q 846 754 846 864 l 846 524 q 769 435 846 439 q 846 347 846 428 l 846 110 q 736 0 846 0 l 210 0 q 100 110 100 0 l 100 347 q 176 435 100 428 q 100 524 100 439 l 100 754 q 210 864 100 864 m 325 350 l 325 125 q 333 90 325 97 q 368 82 342 82 l 579 82 q 614 90 606 82 q 622 125 622 97 l 622 350 q 614 385 622 378 q 579 393 606 393 l 368 393 q 333 385 342 393 q 325 350 325 378 m 622 519 l 622 739 q 614 774 622 767 q 579 782 606 782 l 368 782 q 333 774 342 782 q 325 739 325 767 l 325 519 q 333 484 325 492 q 368 476 342 476 l 579 476 q 614 484 606 476 q 622 519 622 492 z "},"9":{"ha":943,"x_min":96,"x_max":840,"o":"m 364 442 l 615 442 l 615 739 q 608 774 615 767 q 572 782 600 782 l 364 782 q 328 774 336 782 q 321 739 321 767 l 321 485 q 328 450 321 458 q 364 442 336 442 m 206 864 l 731 864 q 840 754 840 864 l 840 110 q 731 0 840 0 l 218 0 q 108 110 108 0 l 108 260 l 332 260 l 332 125 q 340 90 332 97 q 375 82 347 82 l 572 82 q 608 90 600 82 q 615 125 615 97 l 615 360 l 206 360 q 96 469 96 360 l 96 754 q 206 864 96 864 z "},"\u0000":{"ha":0,"x_min":0,"x_max":0,"o":""},"\r":{"ha":0,"x_min":0,"x_max":0,"o":""}," ":{"ha":381,"x_min":0,"x_max":0,"o":""},"!":{"ha":458,"x_min":104,"x_max":356,"o":"m 104 864 l 356 864 l 318 286 l 143 286 l 104 864 m 113 0 l 113 182 l 346 182 l 346 0 l 113 0 z "},"\"":{"ha":629,"x_min":78,"x_max":553,"o":"m 78 864 l 271 864 l 271 531 l 78 531 l 78 864 m 358 864 l 553 864 l 553 531 l 358 531 l 358 864 z "},"#":{"ha":1319,"x_min":71,"x_max":1249,"o":"m 779 325 l 850 539 l 553 539 l 483 325 l 779 325 m 1249 539 l 1036 539 l 965 325 l 1172 325 l 1172 211 l 928 211 l 858 0 l 672 0 l 742 211 l 446 211 l 376 0 l 190 0 l 260 211 l 71 211 l 71 325 l 297 325 l 368 539 l 146 539 l 146 653 l 406 653 l 475 864 l 660 864 l 590 653 l 888 653 l 957 864 l 1143 864 l 1074 653 l 1249 653 l 1249 539 z "},"$":{"ha":928,"x_min":86,"x_max":838,"o":"m 350 476 l 728 476 q 838 367 838 476 l 838 110 q 728 0 838 0 l 568 0 l 568 -126 l 351 -126 l 351 0 l 199 0 q 89 110 89 0 l 89 258 l 310 258 l 310 125 q 317 90 310 97 q 353 82 325 82 l 575 82 q 610 90 603 82 q 618 125 618 97 l 618 351 q 610 386 618 378 q 575 394 603 394 l 196 394 q 86 504 86 394 l 86 754 q 196 864 86 864 l 351 864 l 351 992 l 568 992 l 568 864 l 724 864 q 833 754 833 864 l 833 606 l 614 606 l 614 739 q 606 774 614 767 q 571 782 597 782 l 350 782 q 315 774 322 782 q 307 739 307 767 l 307 519 q 315 484 307 492 q 350 476 322 476 z "},"%":{"ha":1610,"x_min":65,"x_max":1544,"o":"m 1544 403 l 1544 85 q 1465 1 1544 1 l 1074 1 q 994 85 994 1 l 994 403 q 1074 486 994 486 l 1465 486 q 1544 403 1544 486 m 1378 103 l 1378 383 q 1372 410 1378 404 q 1346 417 1367 417 l 1194 417 q 1168 410 1174 417 q 1163 383 1163 404 l 1163 103 q 1168 76 1163 82 q 1194 69 1174 69 l 1346 69 q 1372 76 1367 69 q 1378 103 1378 82 m 1042 864 l 1215 864 l 564 0 l 392 0 l 1042 864 m 615 781 l 615 461 q 536 379 615 379 l 144 379 q 65 461 65 379 l 65 781 q 144 863 65 863 l 536 863 q 615 781 615 863 m 449 481 l 449 761 q 443 788 449 782 q 415 794 438 794 l 265 794 q 239 788 244 794 q 233 761 233 782 l 233 481 q 239 453 233 460 q 265 447 244 447 l 415 447 q 443 453 438 447 q 449 481 449 460 z "},"&":{"ha":1196,"x_min":89,"x_max":1158,"o":"m 346 82 l 736 82 l 442 328 l 357 297 q 315 270 326 286 q 303 225 303 254 l 303 125 q 311 90 303 97 q 346 82 319 82 m 404 739 l 404 629 q 425 560 404 588 q 510 479 446 532 l 596 511 q 666 548 646 528 q 686 603 686 568 l 686 739 q 678 774 686 767 q 643 782 669 782 l 447 782 q 412 774 419 782 q 404 739 404 767 m 199 0 q 89 110 89 0 l 89 228 q 118 318 89 288 q 224 375 147 349 l 336 417 q 217 528 243 493 q 190 618 190 563 l 190 754 q 300 864 190 864 l 790 864 q 900 754 900 864 l 900 622 q 863 510 900 550 q 743 439 825 469 l 615 392 l 950 113 l 950 325 l 1125 325 l 1125 124 q 1068 14 1125 42 l 1158 -62 l 908 -62 l 833 0 l 199 0 z "},"'":{"ha":351,"x_min":78,"x_max":275,"o":"m 78 864 l 275 864 l 275 531 l 78 531 l 78 864 z "},"(":{"ha":503,"x_min":108,"x_max":579,"o":"m 108 175 l 108 518 q 217 878 108 760 q 525 997 326 997 l 579 997 l 579 915 l 547 915 q 332 551 332 907 l 332 140 q 547 -222 332 -217 l 579 -222 l 579 -304 l 525 -304 q 217 -186 326 -304 q 108 175 108 -68 z "},")":{"ha":503,"x_min":-76,"x_max":394,"o":"m 394 518 l 394 175 q 285 -186 394 -68 q -22 -304 176 -304 l -76 -304 l -76 -222 l -44 -222 q 171 140 171 -217 l 171 551 q -44 915 171 907 l -76 915 l -76 997 l -22 997 q 285 878 176 997 q 394 518 394 760 z "},"*":{"ha":735,"x_min":74,"x_max":664,"o":"m 289 914 l 453 914 l 453 828 q 433 715 453 771 q 531 765 476 747 l 611 793 l 664 636 l 581 610 q 505 594 533 594 q 469 594 476 594 q 546 517 521 554 l 597 449 l 464 350 l 413 421 q 364 522 381 468 q 315 425 346 469 l 264 356 l 132 451 l 182 522 q 264 599 215 567 q 156 617 207 601 l 74 643 l 125 800 l 207 774 q 306 719 260 754 q 289 828 289 772 l 289 914 z "},"+":{"ha":964,"x_min":78,"x_max":886,"o":"m 886 501 l 886 361 l 586 361 l 586 153 l 378 153 l 378 361 l 78 361 l 78 501 l 378 501 l 378 710 l 586 710 l 586 501 l 886 501 z "},",":{"ha":383,"x_min":81,"x_max":314,"o":"m 81 -193 l 81 196 l 314 196 l 314 88 l 157 -193 l 81 -193 z "},"-":{"ha":586,"x_min":81,"x_max":506,"o":"m 81 336 l 81 418 l 506 418 l 506 336 l 81 336 z "},".":{"ha":394,"x_min":81,"x_max":314,"o":"m 81 0 l 81 182 l 314 182 l 314 0 l 81 0 z "},"/":{"ha":633,"x_min":-35,"x_max":742,"o":"m 549 971 l 742 971 l 158 -189 l -35 -189 l 549 971 z "},":":{"ha":394,"x_min":81,"x_max":314,"o":"m 81 440 l 314 440 l 314 233 l 81 233 l 81 440 z "},";":{"ha":383,"x_min":81,"x_max":314,"o":"m 81 492 l 81 674 l 314 674 l 314 492 l 81 492 m 81 -193 l 81 196 l 314 196 l 314 88 l 157 -193 l 81 -193 z "},"<":{"ha":968,"x_min":50,"x_max":903,"o":"m 903 549 l 229 433 l 903 314 l 903 163 l 50 358 l 50 511 l 903 699 l 903 549 z "},"=":{"ha":994,"x_min":93,"x_max":901,"o":"m 93 497 l 93 638 l 901 638 l 901 497 l 93 497 m 93 224 l 93 364 l 901 364 l 901 224 l 93 224 z "},">":{"ha":968,"x_min":65,"x_max":918,"o":"m 738 433 l 65 549 l 65 699 l 918 511 l 918 358 l 65 163 l 65 314 l 738 433 z "},"?":{"ha":842,"x_min":36,"x_max":783,"o":"m 279 0 l 279 182 l 513 182 l 513 0 l 279 0 m 146 864 l 674 864 q 783 756 783 864 l 783 489 q 674 381 783 381 l 499 381 l 489 286 l 308 286 l 290 469 l 525 469 q 558 478 550 469 q 565 513 565 486 l 565 738 q 558 774 565 765 q 525 783 550 783 l 294 783 q 260 774 268 783 q 253 738 253 765 l 253 597 l 36 597 l 36 756 q 146 864 36 864 z "},"@":{"ha":1583,"x_min":107,"x_max":1488,"o":"m 568 592 l 829 592 q 899 554 882 592 l 899 592 l 1079 592 l 1079 164 l 1269 164 q 1300 171 1293 164 q 1307 201 1307 178 l 1307 660 q 1300 691 1307 683 q 1269 699 1293 699 l 325 699 q 294 691 301 699 q 288 660 288 683 l 288 22 q 294 -8 288 -1 q 325 -15 301 -15 l 1200 -15 l 1200 -99 l 203 -99 q 107 -3 107 -99 l 107 686 q 203 782 107 782 l 1392 782 q 1488 686 1488 782 l 1488 178 q 1392 82 1488 82 l 904 82 l 904 158 q 829 108 896 108 l 568 108 q 472 204 472 108 l 472 496 q 568 592 472 592 m 653 472 l 653 228 q 660 197 653 204 q 690 190 667 190 l 854 190 q 899 228 897 190 l 899 472 q 854 510 897 510 l 690 510 q 660 503 667 510 q 653 472 653 496 z "},"A":{"ha":1001,"x_min":28,"x_max":974,"o":"m 335 253 l 665 253 l 500 728 l 335 253 m 753 0 l 693 171 l 306 171 l 246 0 l 28 0 l 358 864 l 642 864 l 974 0 l 753 0 z "},"B":{"ha":990,"x_min":114,"x_max":886,"o":"m 114 864 l 776 864 q 886 754 886 864 l 886 521 q 810 432 886 436 q 886 346 886 425 l 886 110 q 776 0 886 0 l 114 0 l 114 864 m 671 118 l 671 349 q 663 383 671 375 q 628 392 656 392 l 339 392 l 339 82 l 624 82 q 660 90 650 82 q 671 118 671 97 m 671 517 l 671 739 q 663 774 671 767 q 628 782 656 782 l 339 782 l 339 474 l 628 474 q 663 481 656 474 q 671 517 671 489 z "},"C":{"ha":938,"x_min":103,"x_max":864,"o":"m 864 560 l 639 560 l 639 739 q 631 774 639 767 q 596 782 622 782 l 371 782 q 336 774 344 782 q 328 739 328 767 l 328 125 q 336 90 328 97 q 371 82 344 82 l 596 82 q 631 90 622 82 q 639 125 639 97 l 639 303 l 864 303 l 864 110 q 754 0 864 0 l 213 0 q 103 110 103 0 l 103 754 q 213 864 103 864 l 754 864 q 864 754 864 864 l 864 560 z "},"D":{"ha":993,"x_min":114,"x_max":889,"o":"m 664 125 l 664 739 q 656 774 664 767 q 621 782 647 782 l 339 782 l 339 82 l 621 82 q 656 90 647 82 q 664 125 664 97 m 114 864 l 779 864 q 889 754 889 864 l 889 110 q 779 0 889 0 l 114 0 l 114 864 z "},"E":{"ha":849,"x_min":114,"x_max":794,"o":"m 346 82 l 794 82 l 794 0 l 114 0 l 114 864 l 776 864 l 776 782 l 346 782 l 346 483 l 719 483 l 719 401 l 346 401 l 346 82 z "},"F":{"ha":815,"x_min":114,"x_max":776,"o":"m 776 782 l 346 782 l 346 450 l 722 450 l 722 368 l 346 368 l 346 0 l 114 0 l 114 864 l 776 864 l 776 782 z "},"G":{"ha":957,"x_min":103,"x_max":865,"o":"m 865 588 l 640 588 l 640 739 q 633 774 640 767 q 597 782 625 782 l 371 782 q 336 774 344 782 q 328 739 328 767 l 328 125 q 336 90 328 97 q 371 82 344 82 l 599 82 q 633 90 625 82 q 642 125 642 97 l 642 363 l 472 363 l 472 444 l 865 444 l 865 110 q 756 0 865 0 l 213 0 q 103 110 103 0 l 103 754 q 213 864 103 864 l 756 864 q 865 754 865 864 l 865 588 z "},"H":{"ha":1057,"x_min":114,"x_max":943,"o":"m 718 864 l 943 864 l 943 0 l 718 0 l 718 392 l 339 392 l 339 0 l 114 0 l 114 864 l 339 864 l 339 474 l 718 474 l 718 864 z "},"I":{"ha":481,"x_min":125,"x_max":356,"o":"m 125 864 l 356 864 l 356 0 l 125 0 l 125 864 z "},"J":{"ha":861,"x_min":43,"x_max":758,"o":"m 43 322 l 268 322 l 268 125 q 276 90 268 97 q 311 82 283 82 l 490 82 q 525 90 517 82 q 533 125 533 97 l 533 864 l 758 864 l 758 110 q 649 0 758 0 l 153 0 q 43 110 43 0 l 43 322 z "},"K":{"ha":983,"x_min":114,"x_max":957,"o":"m 697 864 l 944 864 l 596 442 l 957 0 l 707 0 l 356 442 l 697 864 m 114 864 l 333 864 l 333 0 l 114 0 l 114 864 z "},"L":{"ha":785,"x_min":114,"x_max":756,"o":"m 339 82 l 756 82 l 756 0 l 114 0 l 114 864 l 339 864 l 339 82 z "},"M":{"ha":1253,"x_min":114,"x_max":1139,"o":"m 315 0 l 114 0 l 114 864 l 354 864 l 622 324 l 899 864 l 1139 864 l 1139 0 l 938 0 l 938 650 l 700 188 l 547 188 l 315 649 l 315 0 z "},"N":{"ha":1024,"x_min":114,"x_max":910,"o":"m 703 864 l 910 864 l 910 0 l 711 0 l 321 646 l 321 0 l 114 0 l 114 864 l 317 864 l 703 219 l 703 864 z "},"O":{"ha":965,"x_min":103,"x_max":863,"o":"m 863 754 l 863 110 q 753 0 863 0 l 213 0 q 103 110 103 0 l 103 754 q 213 864 103 864 l 753 864 q 863 754 863 864 m 639 125 l 639 739 q 631 774 639 767 q 596 782 622 782 l 371 782 q 336 774 344 782 q 328 739 328 767 l 328 125 q 336 90 328 97 q 371 82 344 82 l 596 82 q 631 90 622 82 q 639 125 639 97 z "},"P":{"ha":956,"x_min":114,"x_max":892,"o":"m 668 407 l 668 739 q 660 774 668 767 q 625 782 653 782 l 339 782 l 339 364 l 625 364 q 660 372 653 364 q 668 407 668 381 m 114 864 l 782 864 q 892 754 892 864 l 892 392 q 782 282 892 282 l 339 282 l 339 0 l 114 0 l 114 864 z "},"Q":{"ha":936,"x_min":88,"x_max":857,"o":"m 308 739 l 308 125 q 317 90 308 97 q 351 82 325 82 l 583 82 q 619 90 611 82 q 626 125 626 97 l 626 739 q 619 774 626 767 q 583 782 611 782 l 351 782 q 317 774 325 782 q 308 739 308 767 m 197 0 q 88 110 88 0 l 88 754 q 197 864 88 864 l 738 864 q 847 754 847 864 l 847 110 q 738 0 847 0 l 688 0 l 857 -135 l 600 -135 l 443 0 l 197 0 z "},"R":{"ha":982,"x_min":114,"x_max":910,"o":"m 339 782 l 339 392 l 625 392 q 660 400 653 392 q 668 435 668 408 l 668 739 q 660 774 668 767 q 625 782 653 782 l 339 782 m 339 310 l 339 0 l 114 0 l 114 864 l 782 864 q 892 754 892 864 l 892 419 q 782 310 892 310 l 714 310 l 910 0 l 676 0 l 490 310 l 339 310 z "},"S":{"ha":929,"x_min":88,"x_max":839,"o":"m 615 125 l 615 351 q 608 386 615 378 q 572 394 600 394 l 197 394 q 88 504 88 394 l 88 754 q 197 864 88 864 l 725 864 q 835 754 835 864 l 835 600 l 611 600 l 611 739 q 603 774 611 767 q 568 782 594 782 l 356 782 q 320 774 328 782 q 313 739 313 767 l 313 519 q 320 484 313 492 q 356 476 328 476 l 729 476 q 839 367 839 476 l 839 110 q 729 0 839 0 l 201 0 q 92 110 92 0 l 92 264 l 315 264 l 315 125 q 323 90 315 97 q 358 82 331 82 l 572 82 q 608 90 600 82 q 615 125 615 97 z "},"T":{"ha":810,"x_min":11,"x_max":799,"o":"m 799 864 l 799 782 l 515 782 l 515 0 l 292 0 l 292 782 l 11 782 l 11 864 l 799 864 z "},"U":{"ha":979,"x_min":103,"x_max":876,"o":"m 328 864 l 328 125 q 336 90 328 97 q 371 82 344 82 l 610 82 q 644 90 636 82 q 653 125 653 97 l 653 864 l 876 864 l 876 110 q 767 0 876 0 l 213 0 q 103 110 103 0 l 103 864 l 328 864 z "},"V":{"ha":988,"x_min":32,"x_max":956,"o":"m 731 864 l 956 864 l 631 0 l 356 0 l 32 864 l 258 864 l 493 149 l 731 864 z "},"W":{"ha":1525,"x_min":32,"x_max":1493,"o":"m 1275 864 l 1493 864 l 1210 0 l 940 0 l 761 631 l 583 0 l 314 0 l 32 864 l 260 864 l 449 157 l 649 864 l 874 864 l 1074 157 l 1275 864 z "},"X":{"ha":969,"x_min":28,"x_max":942,"o":"m 604 447 l 942 0 l 701 0 l 481 311 l 258 0 l 28 0 l 358 433 l 39 864 l 281 864 l 481 572 l 679 864 l 911 864 l 604 447 z "},"Y":{"ha":942,"x_min":8,"x_max":933,"o":"m 592 0 l 368 0 l 368 282 l 8 864 l 231 864 l 478 414 l 713 864 l 933 864 l 592 286 l 592 0 z "},"Z":{"ha":890,"x_min":65,"x_max":826,"o":"m 826 864 l 826 782 l 319 82 l 813 82 l 813 0 l 65 0 l 65 82 l 571 782 l 85 782 l 85 864 l 826 864 z "},"[":{"ha":490,"x_min":111,"x_max":542,"o":"m 542 918 l 336 918 l 336 -224 l 542 -224 l 542 -306 l 111 -306 l 111 1000 l 542 1000 l 542 918 z "},"\\":{"ha":626,"x_min":-107,"x_max":668,"o":"m -107 971 l 85 971 l 668 -189 l 476 -189 l -107 971 z "},"]":{"ha":490,"x_min":-51,"x_max":381,"o":"m 381 1000 l 381 -306 l -51 -306 l -51 -224 l 156 -224 l 156 918 l -51 918 l -51 1000 l 381 1000 z "},"^":{"ha":906,"x_min":47,"x_max":858,"o":"m 325 928 l 581 928 l 858 456 l 654 456 l 453 806 l 250 456 l 47 456 l 325 928 z "},"_":{"ha":867,"x_min":6,"x_max":861,"o":"m 6 -82 l 6 0 l 861 0 l 861 -82 l 6 -82 z "},"`":{"ha":768,"x_min":228,"x_max":646,"o":"m 453 908 l 646 703 l 463 703 l 228 908 l 453 908 z "},"a":{"ha":904,"x_min":93,"x_max":801,"o":"m 350 82 l 538 82 q 588 126 588 82 l 588 547 q 538 592 588 592 l 350 592 q 315 583 322 592 q 307 549 307 575 l 307 125 q 315 90 307 97 q 350 82 322 82 m 588 674 l 801 674 l 801 0 l 588 0 l 588 46 q 508 0 571 0 l 203 0 q 93 110 93 0 l 93 564 q 203 674 93 674 l 508 674 q 588 628 571 674 l 588 674 z "},"b":{"ha":904,"x_min":103,"x_max":813,"o":"m 597 125 l 597 549 q 589 583 597 575 q 554 592 581 592 l 368 592 q 319 547 319 592 l 319 504 l 318 504 l 318 161 l 319 161 l 319 126 q 368 82 319 82 l 554 82 q 589 90 581 82 q 597 125 597 97 m 397 674 l 703 674 q 813 564 813 674 l 813 110 q 703 0 813 0 l 397 0 q 318 46 335 0 l 318 0 l 103 0 l 103 929 l 318 929 l 318 628 q 397 674 335 674 z "},"c":{"ha":854,"x_min":93,"x_max":786,"o":"m 786 439 l 576 439 l 576 549 q 569 583 576 575 q 533 592 561 592 l 350 592 q 315 583 322 592 q 307 549 307 575 l 307 125 q 315 90 307 97 q 350 82 322 82 l 533 82 q 569 90 561 82 q 576 125 576 97 l 576 232 l 786 232 l 786 110 q 676 0 786 0 l 203 0 q 93 110 93 0 l 93 564 q 203 674 93 674 l 676 674 q 786 564 786 674 l 786 439 z "},"d":{"ha":904,"x_min":93,"x_max":801,"o":"m 350 82 l 538 82 q 588 126 588 82 l 588 547 q 538 592 588 592 l 350 592 q 315 583 322 592 q 307 549 307 575 l 307 125 q 315 90 307 97 q 350 82 322 82 m 588 929 l 801 929 l 801 0 l 588 0 l 588 46 q 508 0 571 0 l 203 0 q 93 110 93 0 l 93 564 q 203 674 93 674 l 508 674 q 588 628 571 674 l 588 929 z "},"e":{"ha":897,"x_min":93,"x_max":815,"o":"m 307 386 l 607 386 l 607 549 q 599 583 607 575 q 564 592 592 592 l 350 592 q 315 583 322 592 q 307 549 307 575 l 307 386 m 203 674 l 706 674 q 815 564 815 674 l 815 304 l 307 304 l 307 125 q 315 90 307 97 q 350 82 322 82 l 561 82 q 597 90 589 82 q 604 125 604 97 l 604 207 l 813 207 l 813 110 q 703 0 813 0 l 203 0 q 93 110 93 0 l 93 564 q 203 674 93 674 z "},"f":{"ha":557,"x_min":53,"x_max":546,"o":"m 546 844 l 410 844 q 375 836 383 844 q 367 801 367 828 l 367 674 l 546 674 l 546 592 l 367 592 l 367 0 l 153 0 l 153 592 l 53 592 l 53 674 l 153 674 l 153 819 q 263 929 153 929 l 546 929 l 546 844 z "},"g":{"ha":897,"x_min":93,"x_max":803,"o":"m 350 82 l 538 82 q 588 126 588 82 l 588 547 q 538 592 588 592 l 350 592 q 315 583 322 592 q 307 549 307 575 l 307 125 q 315 90 307 97 q 350 82 322 82 m 801 35 l 803 35 l 803 -86 q 693 -196 803 -196 l 126 -196 l 126 -114 l 544 -114 q 580 -106 572 -114 q 588 -71 588 -97 l 588 46 q 508 0 571 0 l 203 0 q 93 110 93 0 l 93 564 q 203 674 93 674 l 508 674 q 588 628 571 674 l 588 674 l 801 674 l 801 35 z "},"h":{"ha":906,"x_min":103,"x_max":813,"o":"m 397 674 l 703 674 q 813 564 813 674 l 813 0 l 599 0 l 599 549 q 591 583 599 575 q 556 592 583 592 l 368 592 q 319 547 319 592 l 319 507 l 318 507 l 318 0 l 103 0 l 103 929 l 318 929 l 318 628 q 397 674 335 674 z "},"i":{"ha":436,"x_min":107,"x_max":331,"o":"m 326 0 l 111 0 l 111 674 l 326 674 l 326 0 m 107 786 l 107 931 l 331 931 l 331 786 l 107 786 z "},"j":{"ha":429,"x_min":-47,"x_max":331,"o":"m 111 -71 l 111 674 l 326 674 l 326 -86 q 217 -196 326 -196 l -47 -196 l -47 -114 l 68 -114 q 103 -106 94 -114 q 111 -71 111 -97 m 107 786 l 107 931 l 331 931 l 331 786 l 107 786 z "},"k":{"ha":888,"x_min":103,"x_max":861,"o":"m 103 0 l 103 929 l 318 929 l 318 0 l 103 0 m 861 674 l 568 340 l 861 0 l 625 0 l 342 340 l 626 674 l 861 674 z "},"l":{"ha":443,"x_min":114,"x_max":329,"o":"m 329 0 l 114 0 l 114 929 l 329 929 l 329 0 z "},"m":{"ha":1372,"x_min":103,"x_max":1281,"o":"m 886 674 l 1171 674 q 1281 564 1281 674 l 1281 0 l 1065 0 l 1065 549 q 1058 583 1065 575 q 1022 592 1050 592 l 856 592 q 804 540 804 592 l 804 0 l 590 0 l 590 549 q 583 583 590 575 q 547 592 575 592 l 368 592 q 318 547 318 592 l 318 0 l 103 0 l 103 674 l 318 674 l 318 632 q 396 674 335 674 l 694 674 q 797 613 776 674 q 886 674 814 674 z "},"n":{"ha":904,"x_min":103,"x_max":813,"o":"m 397 674 l 703 674 q 813 564 813 674 l 813 0 l 597 0 l 597 549 q 589 583 597 575 q 554 592 581 592 l 368 592 q 319 547 319 592 l 319 506 l 318 506 l 318 0 l 103 0 l 103 674 l 318 674 l 318 628 q 397 674 335 674 z "},"o":{"ha":899,"x_min":93,"x_max":806,"o":"m 592 125 l 592 549 q 583 583 592 575 q 549 592 575 592 l 350 592 q 315 583 322 592 q 307 549 307 575 l 307 125 q 315 90 307 97 q 350 82 322 82 l 549 82 q 583 90 575 82 q 592 125 592 97 m 203 674 l 696 674 q 806 564 806 674 l 806 110 q 696 0 806 0 l 203 0 q 93 110 93 0 l 93 564 q 203 674 93 674 z "},"p":{"ha":913,"x_min":103,"x_max":819,"o":"m 606 125 l 606 549 q 597 583 606 575 q 563 592 589 592 l 368 592 q 318 546 318 592 l 318 126 q 368 82 318 82 l 563 82 q 597 90 589 82 q 606 125 606 97 m 396 674 l 710 674 q 819 564 819 674 l 819 110 q 710 0 819 0 l 396 0 q 318 42 335 0 l 318 -196 l 103 -196 l 103 674 l 315 674 l 315 625 q 396 674 332 674 z "},"q":{"ha":907,"x_min":119,"x_max":836,"o":"m 378 82 l 572 82 q 621 126 621 82 l 621 546 q 610 581 621 571 q 572 592 599 592 l 378 592 q 342 583 350 592 q 335 549 335 575 l 335 125 q 342 90 335 97 q 378 82 350 82 m 625 674 l 836 674 l 836 -196 l 621 -196 l 621 42 q 543 0 604 0 l 229 0 q 119 110 119 0 l 119 564 q 229 674 119 674 l 543 674 q 625 619 611 674 l 625 674 z "},"r":{"ha":574,"x_min":103,"x_max":563,"o":"m 457 675 l 563 675 l 563 583 l 417 583 q 318 478 318 583 l 318 0 l 103 0 l 103 674 l 318 674 l 318 592 q 457 675 346 675 z "},"s":{"ha":835,"x_min":83,"x_max":757,"o":"m 543 124 l 543 251 q 535 286 543 278 q 500 294 528 294 l 193 294 q 83 404 83 294 l 83 564 q 193 674 83 674 l 639 674 q 749 564 749 674 l 749 472 l 540 472 l 540 550 q 533 585 540 578 q 497 593 525 593 l 340 593 q 306 585 314 593 q 297 550 297 578 l 297 419 q 306 384 297 392 q 340 376 314 376 l 647 376 q 757 267 757 376 l 757 110 q 647 0 757 0 l 197 0 q 88 110 88 0 l 88 201 l 297 201 l 297 124 q 306 89 297 97 q 340 81 314 81 l 500 81 q 535 89 528 81 q 543 124 543 97 z "},"t":{"ha":547,"x_min":33,"x_max":506,"o":"m 506 592 l 357 592 l 357 129 q 365 94 357 103 q 400 86 372 86 l 504 86 l 504 0 l 251 0 q 142 110 142 0 l 142 592 l 33 592 l 33 674 l 142 674 l 142 817 l 357 817 l 357 674 l 506 674 l 506 592 z "},"u":{"ha":904,"x_min":93,"x_max":801,"o":"m 588 674 l 801 674 l 801 0 l 588 0 l 588 46 q 508 0 571 0 l 203 0 q 93 110 93 0 l 93 674 l 307 674 l 307 125 q 315 90 307 97 q 350 82 322 82 l 538 82 q 588 126 588 82 l 588 674 z "},"v":{"ha":861,"x_min":25,"x_max":838,"o":"m 25 674 l 236 674 l 429 135 l 625 674 l 838 674 l 568 0 l 293 0 l 25 674 z "},"w":{"ha":1268,"x_min":25,"x_max":1243,"o":"m 1040 674 l 1243 674 l 1022 0 l 769 0 l 635 522 l 501 0 l 247 0 l 25 674 l 228 674 l 385 135 l 532 674 l 738 674 l 885 135 l 1040 674 z "},"x":{"ha":858,"x_min":29,"x_max":840,"o":"m 539 363 l 840 0 l 590 0 l 399 231 l 193 0 l 29 0 l 319 321 l 29 674 l 279 674 l 458 451 l 651 674 l 818 674 l 539 363 z "},"y":{"ha":851,"x_min":29,"x_max":844,"o":"m 319 -196 l 157 -196 l 157 -114 l 249 -114 q 321 -99 296 -114 q 361 -51 346 -85 l 385 0 l 304 0 l 29 674 l 251 674 l 440 140 l 629 674 l 844 674 l 551 -37 q 472 -159 519 -122 q 319 -196 425 -196 z "},"z":{"ha":740,"x_min":58,"x_max":682,"o":"m 682 82 l 682 0 l 58 0 l 58 82 l 443 592 l 79 592 l 79 674 l 674 674 l 674 592 l 285 82 l 682 82 z "},"{":{"ha":586,"x_min":74,"x_max":625,"o":"m 444 810 l 444 518 q 413 396 444 442 q 322 344 382 350 q 413 294 382 340 q 444 172 444 247 l 444 -118 q 459 -199 444 -174 q 515 -225 474 -225 l 625 -225 l 625 -307 l 471 -307 q 280 -258 339 -307 q 221 -87 221 -210 l 221 171 q 191 274 221 242 q 93 306 161 306 l 74 306 l 74 388 l 93 388 q 191 420 161 388 q 221 525 221 453 l 221 779 q 280 951 221 901 q 471 1000 339 1000 l 625 1000 l 625 918 l 515 918 q 459 892 474 918 q 444 810 444 865 z "},"|":{"ha":435,"x_min":117,"x_max":318,"o":"m 117 1060 l 318 1060 l 318 -199 l 117 -199 l 117 1060 z "},"}":{"ha":599,"x_min":-28,"x_max":524,"o":"m 154 518 l 154 810 q 140 892 154 865 q 83 918 125 918 l -28 918 l -28 1000 l 128 1000 q 319 951 260 1000 q 378 779 378 901 l 378 525 q 408 420 378 453 q 504 388 438 388 l 524 388 l 524 306 l 504 306 q 407 274 436 306 q 378 171 378 242 l 378 -87 q 319 -258 378 -210 q 128 -307 260 -307 l -28 -307 l -28 -225 l 83 -225 q 140 -199 125 -225 q 154 -118 154 -174 l 154 172 q 185 294 154 247 q 276 344 217 340 q 185 396 217 350 q 154 518 154 442 z "},"~":{"ha":1104,"x_min":86,"x_max":1018,"o":"m 546 297 q 459 345 510 324 q 367 367 408 367 q 312 356 325 367 q 299 314 299 344 l 299 229 l 86 229 l 86 356 q 194 464 86 464 l 379 464 q 486 442 435 464 q 571 394 538 421 q 651 347 604 368 q 739 325 699 325 q 793 337 779 325 q 807 379 807 349 l 807 464 l 1018 464 l 1018 338 q 910 229 1018 229 l 728 229 q 546 297 643 229 z "},"¡":{"ha":458,"x_min":103,"x_max":356,"o":"m 142 388 l 317 388 l 356 -190 l 103 -190 l 142 388 m 113 674 l 346 674 l 346 492 l 113 492 l 113 674 z "},"¢":{"ha":844,"x_min":88,"x_max":781,"o":"m 781 439 l 572 439 l 572 549 q 564 583 572 575 q 529 592 556 592 l 346 592 q 311 583 319 592 q 303 549 303 575 l 303 125 q 311 90 303 97 q 346 82 319 82 l 529 82 q 564 90 556 82 q 572 125 572 97 l 572 232 l 781 232 l 781 110 q 671 0 781 0 l 542 0 l 542 -108 l 325 -108 l 325 0 l 197 0 q 88 110 88 0 l 88 564 q 197 674 88 674 l 325 674 l 325 781 l 542 781 l 542 674 l 671 674 q 781 564 781 674 l 781 439 z "},"£":{"ha":975,"x_min":71,"x_max":915,"o":"m 915 125 l 915 0 l 79 0 l 79 103 q 157 153 135 111 q 179 271 179 196 l 179 376 l 71 376 l 71 458 l 179 458 l 179 754 q 289 864 179 864 l 792 864 q 901 754 901 864 l 901 592 l 678 592 l 678 739 q 669 774 678 767 q 635 782 661 782 l 447 782 q 412 774 419 782 q 404 739 404 767 l 404 458 l 756 458 l 756 376 l 404 376 l 404 282 q 394 176 404 214 q 353 125 383 139 l 915 125 z "},"¤":{"ha":1064,"x_min":85,"x_max":979,"o":"m 432 233 l 638 233 q 726 250 703 233 q 749 328 749 267 l 749 485 q 724 571 749 547 q 638 594 700 594 l 432 594 q 344 571 368 594 q 319 485 319 547 l 319 328 q 342 250 319 267 q 432 233 365 233 m 918 501 l 918 328 q 906 246 918 281 l 979 174 l 863 56 l 761 154 q 706 151 728 151 l 363 151 q 303 154 339 151 l 201 56 l 85 174 l 163 250 q 151 328 151 279 l 151 501 q 163 578 151 549 l 85 654 l 201 774 l 304 674 q 363 676 338 676 l 706 676 q 761 674 728 676 l 863 774 l 979 654 l 906 582 q 918 501 918 546 z "},"¥":{"ha":1008,"x_min":42,"x_max":967,"o":"m 900 456 l 900 374 l 676 374 l 625 286 l 625 278 l 900 278 l 900 196 l 625 196 l 625 0 l 401 0 l 401 196 l 121 196 l 121 278 l 401 278 l 401 282 l 344 374 l 121 374 l 121 456 l 294 456 l 42 864 l 264 864 l 511 414 l 746 864 l 967 864 l 725 456 l 900 456 z "},"¦":{"ha":419,"x_min":110,"x_max":310,"o":"m 110 349 l 310 349 l 310 -199 l 110 -199 l 110 349 m 310 514 l 110 514 l 110 1060 l 310 1060 l 310 514 z "},"§":{"ha":1099,"x_min":221,"x_max":933,"o":"m 897 185 l 897 36 q 788 -74 897 -74 l 331 -74 q 221 36 221 -74 l 221 121 l 440 121 l 440 51 q 448 17 440 25 q 483 8 456 8 l 635 8 q 669 17 661 8 q 678 51 678 25 l 678 176 q 669 211 678 203 q 635 219 661 219 l 338 219 q 228 329 228 219 l 228 456 q 249 533 228 503 q 304 571 271 564 q 257 649 257 594 l 257 804 q 367 914 257 914 l 824 914 q 933 804 933 914 l 933 719 l 714 719 l 714 789 q 706 824 714 817 q 671 832 697 832 l 519 832 q 484 824 492 832 q 476 789 476 817 l 476 664 q 484 628 476 636 q 519 621 492 621 l 818 621 q 928 511 928 621 l 928 378 q 906 303 928 331 q 850 269 883 275 q 897 185 897 244 m 664 539 l 490 539 q 456 531 464 539 q 447 496 447 522 l 447 344 q 456 309 447 317 q 490 301 464 301 l 664 301 q 699 309 692 301 q 707 344 707 317 l 707 496 q 699 531 707 522 q 664 539 692 539 z "},"¨":{"ha":899,"x_min":129,"x_max":769,"o":"m 526 889 l 769 889 l 769 738 l 526 738 l 526 889 m 129 889 l 371 889 l 371 738 l 129 738 l 129 889 z "},"©":{"ha":1478,"x_min":96,"x_max":1382,"o":"m 1382 472 l 1382 386 q 1292 94 1382 189 q 986 0 1203 0 l 492 0 q 185 94 275 0 q 96 386 96 189 l 96 472 q 185 767 96 669 q 492 864 275 864 l 986 864 q 1292 767 1203 864 q 1382 472 1382 669 m 525 83 l 953 83 q 1142 154 1086 83 q 1197 374 1197 225 l 1197 485 q 1141 708 1197 633 q 953 783 1085 783 l 525 783 q 337 708 393 783 q 281 485 281 633 l 281 374 q 336 154 281 225 q 525 83 392 83 m 851 333 l 851 381 l 1014 381 l 1014 318 q 904 208 1014 208 l 576 208 q 467 318 467 208 l 467 556 q 576 665 467 665 l 904 665 q 1014 556 1014 665 l 1014 493 l 851 493 l 851 540 q 844 575 851 567 q 808 583 836 583 l 672 583 q 637 575 644 583 q 629 540 629 567 l 629 333 q 637 298 629 306 q 672 290 644 290 l 808 290 q 844 298 836 290 q 851 333 851 306 z "},"ª":{"ha":622,"x_min":68,"x_max":549,"o":"m 250 447 l 360 447 q 396 479 396 447 l 396 774 q 360 806 396 806 l 250 806 q 225 800 231 806 q 219 775 219 794 l 219 478 q 225 453 219 458 q 250 447 231 447 m 396 864 l 549 864 l 549 389 l 396 389 l 396 418 q 340 389 383 389 l 146 389 q 68 467 68 389 l 68 786 q 146 864 68 864 l 340 864 q 396 835 383 864 l 396 864 z "},"«":{"ha":893,"x_min":218,"x_max":681,"o":"m 681 560 l 497 349 l 681 139 l 404 139 l 218 350 l 404 560 l 681 560 z "},"¬":{"ha":1068,"x_min":89,"x_max":969,"o":"m 969 556 l 969 190 l 838 190 l 838 390 l 89 390 l 89 556 l 969 556 z "},"­":{"ha":525,"x_min":76,"x_max":449,"o":"m 76 351 l 76 432 l 449 432 l 449 351 l 76 351 z "},"®":{"ha":888,"x_min":72,"x_max":815,"o":"m 815 743 l 815 694 q 764 528 815 583 q 588 474 713 474 l 301 474 q 124 528 176 474 q 72 694 72 583 l 72 743 q 124 910 72 854 q 301 965 176 965 l 588 965 q 763 910 711 965 q 815 743 815 854 m 321 529 l 568 529 q 672 568 640 529 q 703 688 703 607 l 703 750 q 672 873 703 832 q 568 914 640 914 l 321 914 q 217 873 249 914 q 186 750 186 832 l 186 688 q 217 568 186 607 q 321 529 249 529 m 310 854 l 532 854 q 574 814 574 854 l 574 728 q 535 686 574 686 l 522 686 l 586 590 l 490 590 l 433 685 l 399 685 l 399 590 l 310 590 l 310 854 m 485 740 l 485 801 q 471 815 485 815 l 400 815 l 400 726 l 471 726 q 485 740 485 726 z "},"¯":{"ha":899,"x_min":146,"x_max":751,"o":"m 146 764 l 146 844 l 751 844 l 751 764 l 146 764 z "},"°":{"ha":843,"x_min":82,"x_max":763,"o":"m 763 756 l 763 550 q 654 442 763 442 l 190 442 q 82 550 82 442 l 82 756 q 190 864 82 864 l 654 864 q 763 756 763 864 m 560 564 l 560 742 q 552 777 560 769 q 517 785 544 785 l 331 785 q 295 777 303 785 q 288 742 288 769 l 288 564 q 295 528 288 536 q 331 521 303 521 l 517 521 q 552 528 544 521 q 560 564 560 536 z "},"±":{"ha":989,"x_min":83,"x_max":892,"o":"m 83 175 l 83 286 l 892 286 l 892 175 l 83 175 m 585 579 l 892 579 l 892 453 l 585 453 l 585 342 l 390 342 l 390 453 l 83 453 l 83 579 l 390 579 l 390 710 l 585 710 l 585 579 z "},"²":{"ha":539,"x_min":64,"x_max":485,"o":"m 201 782 l 201 706 l 64 706 l 64 804 q 124 864 64 864 l 425 864 q 485 804 485 864 l 485 743 q 429 601 485 649 l 243 450 l 482 450 l 482 389 l 71 389 l 71 450 l 306 650 q 347 743 347 685 l 347 782 q 343 801 347 797 q 324 806 339 806 l 225 806 q 206 801 211 806 q 201 782 201 797 z "},"³":{"ha":563,"x_min":72,"x_max":501,"o":"m 210 782 l 210 713 l 72 713 l 72 804 q 133 864 72 864 l 442 864 q 501 804 501 864 l 501 681 q 460 631 501 633 q 501 583 501 628 l 501 449 q 442 389 501 389 l 133 389 q 72 449 72 389 l 72 539 l 210 539 l 210 472 q 214 452 210 457 q 233 447 218 447 l 340 447 q 360 452 356 447 q 364 472 364 457 l 364 576 q 360 596 364 592 q 340 600 356 600 l 229 600 l 229 660 l 340 660 q 360 664 356 660 q 364 683 364 668 l 364 782 q 360 801 364 797 q 340 806 356 806 l 233 806 q 215 801 219 806 q 210 782 210 797 z "},"´":{"ha":899,"x_min":233,"x_max":651,"o":"m 233 703 l 425 908 l 651 908 l 417 703 l 233 703 z "},"µ":{"ha":917,"x_min":104,"x_max":813,"o":"m 599 674 l 813 674 l 813 0 l 599 0 l 599 42 q 519 0 582 0 l 318 0 l 318 -196 l 104 -196 l 104 674 l 318 674 l 318 125 q 326 90 318 97 q 361 82 333 82 l 549 82 q 599 126 599 82 l 599 674 z "},"¶":{"ha":1061,"x_min":85,"x_max":954,"o":"m 613 864 l 613 -196 l 419 -196 l 419 300 l 194 300 q 85 410 85 300 l 85 754 q 194 864 85 864 l 613 864 m 761 864 l 954 864 l 954 -196 l 761 -196 l 761 864 z "},"·":{"ha":425,"x_min":100,"x_max":333,"o":"m 100 344 l 100 526 l 333 526 l 333 344 l 100 344 z "},"¸":{"ha":899,"x_min":246,"x_max":635,"o":"m 433 -194 l 433 -67 l 635 -67 l 635 -207 q 518 -324 635 -324 l 246 -324 l 246 -242 l 388 -242 q 424 -232 414 -242 q 433 -194 433 -222 z "},"¹":{"ha":375,"x_min":29,"x_max":292,"o":"m 292 864 l 292 389 l 140 389 l 140 806 l 29 806 l 29 864 l 292 864 z "},"º":{"ha":619,"x_min":75,"x_max":533,"o":"m 533 794 l 533 458 q 465 389 533 389 l 144 389 q 75 458 75 389 l 75 794 q 144 864 75 864 l 465 864 q 533 794 533 864 m 389 475 l 389 779 q 384 801 389 796 q 361 806 379 806 l 247 806 q 224 801 229 806 q 219 779 219 796 l 219 475 q 224 453 219 458 q 247 447 229 447 l 361 447 q 384 453 379 447 q 389 475 389 458 z "},"»":{"ha":879,"x_min":203,"x_max":665,"o":"m 479 560 l 665 350 l 479 139 l 203 139 l 388 349 l 203 560 l 479 560 z "},"¿":{"ha":882,"x_min":97,"x_max":844,"o":"m 600 672 l 600 490 l 367 490 l 367 672 l 600 672 m 626 75 l 844 75 l 844 -83 q 735 -192 844 -192 l 207 -192 q 97 -83 97 -192 l 97 183 q 207 292 97 292 l 381 292 l 390 386 l 572 386 l 589 203 l 356 203 q 322 194 329 203 q 314 160 314 186 l 314 -65 q 322 -102 314 -93 q 356 -111 329 -111 l 585 -111 q 619 -102 611 -111 q 626 -65 626 -93 l 626 75 z "},"À":{"ha":999,"x_min":26,"x_max":972,"o":"m 579 931 l 396 931 l 161 1136 l 386 1136 l 579 931 m 333 253 l 664 253 l 499 728 l 333 253 m 751 0 l 692 171 l 304 171 l 244 0 l 26 0 l 357 864 l 640 864 l 972 0 l 751 0 z "},"Á":{"ha":999,"x_min":26,"x_max":972,"o":"m 838 1136 l 603 931 l 419 931 l 611 1136 l 838 1136 m 333 253 l 664 253 l 499 728 l 333 253 m 751 0 l 692 171 l 304 171 l 244 0 l 26 0 l 357 864 l 640 864 l 972 0 l 751 0 z "},"Â":{"ha":999,"x_min":26,"x_max":972,"o":"m 499 1058 l 364 929 l 150 929 l 393 1140 l 604 1140 l 849 929 l 633 929 l 499 1058 m 333 253 l 664 253 l 499 728 l 333 253 m 751 0 l 692 171 l 304 171 l 244 0 l 26 0 l 357 864 l 640 864 l 972 0 l 751 0 z "},"Ã":{"ha":999,"x_min":26,"x_max":972,"o":"m 344 1007 l 344 929 l 169 929 l 169 1015 q 275 1124 169 1124 l 340 1124 q 501 1070 394 1124 q 629 1017 607 1017 q 657 1047 657 1017 l 657 1124 l 831 1124 l 831 1038 q 728 929 831 929 l 660 929 q 500 983 606 929 q 369 1036 394 1036 q 344 1007 344 1036 m 333 253 l 664 253 l 499 728 l 333 253 m 751 0 l 692 171 l 304 171 l 244 0 l 26 0 l 357 864 l 640 864 l 972 0 l 751 0 z "},"Ä":{"ha":999,"x_min":26,"x_max":972,"o":"m 821 1081 l 821 929 l 578 929 l 578 1081 l 821 1081 m 424 1081 l 424 929 l 181 929 l 181 1081 l 424 1081 m 333 253 l 664 253 l 499 728 l 333 253 m 751 0 l 692 171 l 304 171 l 244 0 l 26 0 l 357 864 l 640 864 l 972 0 l 751 0 z "},"Å":{"ha":999,"x_min":26,"x_max":972,"o":"m 394 1065 l 394 1043 q 401 1010 394 1018 q 435 1003 408 1003 l 565 1003 q 599 1010 592 1003 q 606 1043 606 1018 l 606 1065 q 599 1098 606 1090 q 565 1106 592 1106 l 435 1106 q 401 1098 408 1106 q 394 1065 394 1090 m 646 931 l 354 931 q 254 1029 254 931 l 254 1079 q 354 1179 254 1179 l 646 1179 q 746 1079 746 1179 l 746 1029 q 646 931 746 931 m 333 253 l 664 253 l 499 728 l 333 253 m 751 0 l 692 171 l 304 171 l 244 0 l 26 0 l 357 864 l 640 864 l 972 0 l 751 0 z "},"Æ":{"ha":1464,"x_min":25,"x_max":1400,"o":"m 735 269 l 735 736 l 435 269 l 735 269 m 960 82 l 1400 82 l 1400 0 l 735 0 l 735 188 l 382 188 l 261 0 l 25 0 l 597 864 l 1382 864 l 1382 782 l 960 782 l 960 483 l 1333 483 l 1333 401 l 960 401 l 960 82 z "},"Ç":{"ha":928,"x_min":99,"x_max":860,"o":"m 371 -194 l 371 -67 l 572 -67 l 572 -207 q 456 -324 572 -324 l 183 -324 l 183 -242 l 325 -242 q 361 -232 351 -242 q 371 -194 371 -222 m 860 560 l 635 560 l 635 739 q 627 774 635 767 q 592 782 619 782 l 367 782 q 331 774 339 782 q 324 739 324 767 l 324 125 q 331 90 324 97 q 367 82 339 82 l 592 82 q 627 90 619 82 q 635 125 635 97 l 635 303 l 860 303 l 860 110 q 750 0 860 0 l 208 0 q 99 110 99 0 l 99 754 q 208 864 99 864 l 750 864 q 860 754 860 864 l 860 560 z "},"È":{"ha":843,"x_min":111,"x_max":792,"o":"m 546 929 l 363 929 l 128 1135 l 353 1135 l 546 929 m 343 82 l 792 82 l 792 0 l 111 0 l 111 864 l 774 864 l 774 782 l 343 782 l 343 483 l 717 483 l 717 401 l 343 401 l 343 82 z "},"É":{"ha":843,"x_min":111,"x_max":792,"o":"m 781 1135 l 546 929 l 363 929 l 554 1135 l 781 1135 m 343 82 l 792 82 l 792 0 l 111 0 l 111 864 l 774 864 l 774 782 l 343 782 l 343 483 l 717 483 l 717 401 l 343 401 l 343 82 z "},"Ê":{"ha":843,"x_min":101,"x_max":800,"o":"m 450 1058 l 315 929 l 101 929 l 344 1140 l 556 1140 l 800 929 l 585 929 l 450 1058 m 343 401 l 343 82 l 792 82 l 792 0 l 111 0 l 111 864 l 774 864 l 774 782 l 343 782 l 343 483 l 717 483 l 717 401 l 343 401 z "},"Ë":{"ha":889,"x_min":111,"x_max":792,"o":"m 764 1081 l 764 929 l 522 929 l 522 1081 l 764 1081 m 367 1081 l 367 929 l 124 929 l 124 1081 l 367 1081 m 343 82 l 792 82 l 792 0 l 111 0 l 111 864 l 774 864 l 774 782 l 343 782 l 343 483 l 717 483 l 717 401 l 343 401 l 343 82 z "},"Ì":{"ha":460,"x_min":-100,"x_max":350,"o":"m 119 864 l 350 864 l 350 0 l 119 0 l 119 864 m 125 1135 l 318 929 l 135 929 l -100 1135 l 125 1135 z "},"Í":{"ha":460,"x_min":119,"x_max":569,"o":"m 119 864 l 350 864 l 350 0 l 119 0 l 119 864 m 151 929 l 343 1135 l 569 1135 l 335 929 l 151 929 z "},"Î":{"ha":460,"x_min":-108,"x_max":590,"o":"m 119 864 l 350 864 l 350 0 l 119 0 l 119 864 m -108 931 l 135 1142 l 346 1142 l 590 931 l 375 931 l 240 1060 l 106 931 l -108 931 z "},"Ï":{"ha":460,"x_min":-83,"x_max":557,"o":"m 119 864 l 350 864 l 350 0 l 119 0 l 119 864 m -83 1079 l 158 1079 l 158 929 l -83 929 l -83 1079 m 314 1079 l 557 1079 l 557 929 l 314 929 l 314 1079 z "},"Ð":{"ha":1008,"x_min":49,"x_max":910,"o":"m 685 125 l 685 739 q 677 774 685 767 q 642 782 669 782 l 361 782 l 361 479 l 564 479 l 564 393 l 361 393 l 361 82 l 642 82 q 677 90 669 82 q 685 125 685 97 m 136 864 l 800 864 q 910 754 910 864 l 910 110 q 800 0 910 0 l 136 0 l 136 393 l 49 393 l 49 479 l 136 479 l 136 864 z "},"Ñ":{"ha":1019,"x_min":111,"x_max":907,"o":"m 700 864 l 907 864 l 907 0 l 708 0 l 318 646 l 318 0 l 111 0 l 111 864 l 314 864 l 700 219 l 700 864 m 671 929 q 511 983 617 929 q 381 1036 406 1036 q 356 1007 356 1036 l 356 929 l 181 929 l 181 1015 q 286 1124 181 1124 l 351 1124 q 512 1070 406 1124 q 640 1017 618 1017 q 668 1047 668 1017 l 668 1124 l 842 1124 l 842 1038 q 739 929 842 929 l 671 929 z "},"Ò":{"ha":963,"x_min":101,"x_max":861,"o":"m 861 754 l 861 110 q 751 0 861 0 l 211 0 q 101 110 101 0 l 101 754 q 211 864 101 864 l 751 864 q 861 754 861 864 m 638 125 l 638 739 q 630 774 638 767 q 594 782 622 782 l 369 782 q 334 774 342 782 q 326 739 326 767 l 326 125 q 334 90 326 97 q 369 82 342 82 l 594 82 q 630 90 622 82 q 638 125 638 97 m 386 1135 l 579 929 l 396 929 l 161 1135 l 386 1135 z "},"Ó":{"ha":963,"x_min":101,"x_max":861,"o":"m 403 929 l 594 1135 l 821 1135 l 586 929 l 403 929 m 861 754 l 861 110 q 751 0 861 0 l 211 0 q 101 110 101 0 l 101 754 q 211 864 101 864 l 751 864 q 861 754 861 864 m 638 125 l 638 739 q 630 774 638 767 q 594 782 622 782 l 369 782 q 334 774 342 782 q 326 739 326 767 l 326 125 q 334 90 326 97 q 369 82 342 82 l 594 82 q 630 90 622 82 q 638 125 638 97 z "},"Ô":{"ha":963,"x_min":101,"x_max":861,"o":"m 133 929 l 376 1140 l 588 1140 l 832 929 l 617 929 l 482 1058 l 347 929 l 133 929 m 861 754 l 861 110 q 751 0 861 0 l 211 0 q 101 110 101 0 l 101 754 q 211 864 101 864 l 751 864 q 861 754 861 864 m 638 125 l 638 739 q 630 774 638 767 q 594 782 622 782 l 369 782 q 334 774 342 782 q 326 739 326 767 l 326 125 q 334 90 326 97 q 369 82 342 82 l 594 82 q 630 90 622 82 q 638 125 638 97 z "},"Õ":{"ha":963,"x_min":101,"x_max":861,"o":"m 861 754 l 861 110 q 751 0 861 0 l 211 0 q 101 110 101 0 l 101 754 q 211 864 101 864 l 751 864 q 861 754 861 864 m 638 125 l 638 739 q 630 774 638 767 q 594 782 622 782 l 369 782 q 334 774 342 782 q 326 739 326 767 l 326 125 q 334 90 326 97 q 369 82 342 82 l 594 82 q 630 90 622 82 q 638 125 638 97 m 636 929 q 476 983 582 929 q 346 1036 371 1036 q 321 1007 321 1036 l 321 929 l 146 929 l 146 1015 q 251 1124 146 1124 l 317 1124 q 477 1070 371 1124 q 606 1017 583 1017 q 633 1047 633 1017 l 633 1124 l 807 1124 l 807 1038 q 704 929 807 929 l 636 929 z "},"Ö":{"ha":949,"x_min":101,"x_max":861,"o":"m 861 754 l 861 110 q 751 0 861 0 l 211 0 q 101 110 101 0 l 101 754 q 211 864 101 864 l 751 864 q 861 754 861 864 m 638 125 l 638 739 q 630 774 638 767 q 594 782 622 782 l 368 782 q 333 774 342 782 q 325 739 325 767 l 325 125 q 333 90 325 97 q 368 82 342 82 l 594 82 q 630 90 622 82 q 638 125 638 97 m 560 1081 l 803 1081 l 803 929 l 560 929 l 560 1081 m 163 1081 l 406 1081 l 406 929 l 163 929 l 163 1081 z "},"×":{"ha":926,"x_min":113,"x_max":840,"o":"m 840 607 l 600 436 l 836 267 l 740 160 l 476 347 l 213 160 l 117 267 l 353 435 l 113 606 l 210 714 l 476 524 l 743 714 l 840 607 z "},"Ø":{"ha":992,"x_min":83,"x_max":913,"o":"m 665 122 l 665 578 l 325 126 l 325 122 q 333 87 325 94 q 368 79 342 79 l 621 79 q 657 87 649 79 q 665 122 665 94 m 325 742 l 325 278 l 665 729 l 665 742 q 657 777 665 769 q 621 785 649 785 l 368 785 q 333 777 342 785 q 325 742 325 769 m 881 754 l 881 110 q 771 0 881 0 l 231 0 l 199 -42 l 83 -42 l 136 28 q 110 110 110 54 l 110 754 q 219 864 110 864 l 767 864 l 799 906 l 913 906 l 857 832 q 881 754 881 804 z "},"Ù":{"ha":982,"x_min":103,"x_max":876,"o":"m 328 864 l 328 125 q 336 90 328 97 q 371 82 344 82 l 610 82 q 644 90 636 82 q 653 125 653 97 l 653 864 l 876 864 l 876 110 q 767 0 876 0 l 213 0 q 103 110 103 0 l 103 864 l 328 864 m 404 1135 l 597 929 l 414 929 l 179 1135 l 404 1135 z "},"Ú":{"ha":982,"x_min":103,"x_max":876,"o":"m 404 929 l 596 1135 l 822 1135 l 588 929 l 404 929 m 328 864 l 328 125 q 336 90 328 97 q 371 82 344 82 l 610 82 q 644 90 636 82 q 653 125 653 97 l 653 864 l 876 864 l 876 110 q 767 0 876 0 l 213 0 q 103 110 103 0 l 103 864 l 328 864 z "},"Û":{"ha":982,"x_min":103,"x_max":876,"o":"m 140 929 l 383 1140 l 594 1140 l 839 929 l 624 929 l 489 1058 l 354 929 l 140 929 m 328 864 l 328 125 q 336 90 328 97 q 371 82 344 82 l 610 82 q 644 90 636 82 q 653 125 653 97 l 653 864 l 876 864 l 876 110 q 767 0 876 0 l 213 0 q 103 110 103 0 l 103 864 l 328 864 z "},"Ü":{"ha":982,"x_min":104,"x_max":876,"o":"m 654 864 l 876 864 l 876 110 q 767 0 876 0 l 214 0 q 104 110 104 0 l 104 864 l 328 864 l 328 125 q 336 90 328 97 q 371 82 344 82 l 611 82 q 647 90 639 82 q 654 125 654 97 l 654 864 m 167 1081 l 408 1081 l 408 929 l 167 929 l 167 1081 m 564 1081 l 807 1081 l 807 929 l 564 929 l 564 1081 z "},"Ý":{"ha":938,"x_min":7,"x_max":932,"o":"m 811 1135 l 576 929 l 393 929 l 585 1135 l 811 1135 m 590 0 l 367 0 l 367 282 l 7 864 l 229 864 l 476 414 l 711 864 l 932 864 l 590 286 l 590 0 z "},"Þ":{"ha":956,"x_min":117,"x_max":879,"o":"m 656 267 l 656 597 q 647 633 656 625 q 613 640 639 640 l 340 640 l 340 224 l 613 224 q 647 231 639 224 q 656 267 656 239 m 340 722 l 769 722 q 879 613 879 722 l 879 251 q 769 142 879 142 l 340 142 l 340 0 l 117 0 l 117 864 l 340 864 l 340 722 z "},"ß":{"ha":1215,"x_min":117,"x_max":1158,"o":"m 472 218 l 685 218 l 685 125 q 692 90 685 97 q 728 82 700 82 l 901 82 q 936 90 928 82 q 944 125 944 97 l 944 279 q 936 314 944 306 q 901 322 928 322 l 583 322 q 474 432 474 322 l 474 531 q 581 640 474 640 l 814 640 q 851 648 843 640 q 860 679 860 656 l 860 736 q 851 772 860 764 q 817 781 843 781 l 379 781 q 344 772 353 781 q 335 736 335 764 l 335 0 l 117 0 l 117 754 q 226 864 117 864 l 978 864 q 1088 754 1088 864 l 1088 660 q 985 560 1088 560 l 726 560 q 692 552 700 560 q 683 517 683 544 l 683 446 q 692 411 683 419 q 726 403 700 403 l 1049 403 q 1158 293 1158 403 l 1158 110 q 1049 0 1158 0 l 582 0 q 472 110 472 0 l 472 218 z "},"à":{"ha":900,"x_min":88,"x_max":796,"o":"m 574 739 l 390 739 l 156 944 l 381 944 l 574 739 m 344 82 l 532 82 q 582 126 582 82 l 582 547 q 532 592 582 592 l 344 592 q 309 583 317 592 q 301 549 301 575 l 301 125 q 309 90 301 97 q 344 82 317 82 m 582 674 l 796 674 l 796 0 l 582 0 l 582 46 q 503 0 565 0 l 197 0 q 88 110 88 0 l 88 564 q 197 674 88 674 l 503 674 q 582 628 565 674 l 582 674 z "},"á":{"ha":900,"x_min":88,"x_max":796,"o":"m 781 944 l 546 739 l 363 739 l 554 944 l 781 944 m 344 82 l 532 82 q 582 126 582 82 l 582 547 q 532 592 582 592 l 344 592 q 309 583 317 592 q 301 549 301 575 l 301 125 q 309 90 301 97 q 344 82 317 82 m 582 674 l 796 674 l 796 0 l 582 0 l 582 46 q 503 0 565 0 l 197 0 q 88 110 88 0 l 88 564 q 197 674 88 674 l 503 674 q 582 628 565 674 l 582 674 z "},"â":{"ha":900,"x_min":88,"x_max":799,"o":"m 449 868 l 314 739 l 100 739 l 343 950 l 554 950 l 799 739 l 583 739 l 449 868 m 344 82 l 532 82 q 582 126 582 82 l 582 547 q 532 592 582 592 l 344 592 q 309 583 317 592 q 301 549 301 575 l 301 125 q 309 90 301 97 q 344 82 317 82 m 582 674 l 796 674 l 796 0 l 582 0 l 582 46 q 503 0 565 0 l 197 0 q 88 110 88 0 l 88 564 q 197 674 88 674 l 503 674 q 582 628 565 674 l 582 674 z "},"ã":{"ha":900,"x_min":88,"x_max":796,"o":"m 292 817 l 292 739 l 117 739 l 117 825 q 222 933 117 933 l 288 933 q 448 880 342 933 q 576 826 554 826 q 604 857 604 826 l 604 933 l 778 933 l 778 847 q 675 739 778 739 l 607 739 q 447 792 553 739 q 317 846 342 846 q 292 817 292 846 m 344 82 l 532 82 q 582 126 582 82 l 582 547 q 532 592 582 592 l 344 592 q 309 583 317 592 q 301 549 301 575 l 301 125 q 309 90 301 97 q 344 82 317 82 m 582 674 l 796 674 l 796 0 l 582 0 l 582 46 q 503 0 565 0 l 197 0 q 88 110 88 0 l 88 564 q 197 674 88 674 l 503 674 q 582 628 565 674 l 582 674 z "},"ä":{"ha":900,"x_min":88,"x_max":796,"o":"m 779 890 l 779 739 l 536 739 l 536 890 l 779 890 m 381 890 l 381 739 l 139 739 l 139 890 l 381 890 m 344 82 l 532 82 q 582 126 582 82 l 582 547 q 532 592 582 592 l 344 592 q 309 583 317 592 q 301 549 301 575 l 301 125 q 309 90 301 97 q 344 82 317 82 m 582 674 l 796 674 l 796 0 l 582 0 l 582 46 q 503 0 565 0 l 197 0 q 88 110 88 0 l 88 564 q 197 674 88 674 l 503 674 q 582 628 565 674 l 582 674 z "},"å":{"ha":900,"x_min":88,"x_max":796,"o":"m 342 875 l 342 853 q 349 820 342 828 q 382 813 356 813 l 513 813 q 546 820 539 813 q 553 853 553 828 l 553 875 q 546 908 553 900 q 513 915 539 915 l 382 915 q 349 908 356 915 q 342 875 342 900 m 593 740 l 301 740 q 201 839 201 740 l 201 889 q 301 989 201 989 l 593 989 q 693 889 693 989 l 693 839 q 593 740 693 740 m 344 82 l 532 82 q 582 126 582 82 l 582 547 q 532 592 582 592 l 344 592 q 309 583 317 592 q 301 549 301 575 l 301 125 q 309 90 301 97 q 344 82 317 82 m 582 674 l 796 674 l 796 0 l 582 0 l 582 46 q 503 0 565 0 l 197 0 q 88 110 88 0 l 88 564 q 197 674 88 674 l 503 674 q 582 628 565 674 l 582 674 z "},"æ":{"ha":1385,"x_min":92,"x_max":1283,"o":"m 1031 592 l 824 592 q 789 583 797 592 q 781 549 781 575 l 781 386 l 1074 386 l 1074 549 q 1066 583 1074 575 q 1031 592 1058 592 m 350 82 l 525 82 q 560 90 550 82 q 569 124 569 99 l 569 299 l 307 239 l 307 125 q 315 90 307 97 q 350 82 322 82 m 1275 304 l 781 304 l 781 125 q 789 90 781 97 q 824 82 797 82 l 1028 82 q 1063 90 1056 82 q 1071 125 1071 97 l 1071 206 l 1281 206 l 1281 110 q 1171 0 1281 0 l 793 0 q 707 13 732 0 q 675 51 682 26 q 544 0 657 0 l 201 0 q 92 110 92 0 l 92 279 l 569 388 l 569 550 q 560 584 569 575 q 525 593 550 593 l 350 593 q 315 585 322 593 q 307 550 307 578 l 307 425 l 92 425 l 92 564 q 201 674 92 674 l 544 674 q 675 622 657 674 q 707 660 682 647 q 793 674 732 674 l 1174 674 q 1283 564 1283 674 l 1283 308 l 1275 308 l 1275 304 z "},"ç":{"ha":844,"x_min":88,"x_max":781,"o":"m 336 -194 l 336 -67 l 538 -67 l 538 -207 q 421 -324 538 -324 l 149 -324 l 149 -242 l 290 -242 q 326 -232 317 -242 q 336 -194 336 -222 m 781 439 l 571 439 l 571 549 q 563 583 571 575 q 528 592 556 592 l 344 592 q 309 583 317 592 q 301 549 301 575 l 301 125 q 309 90 301 97 q 344 82 317 82 l 528 82 q 563 90 556 82 q 571 125 571 97 l 571 232 l 781 232 l 781 110 q 671 0 781 0 l 197 0 q 88 110 88 0 l 88 564 q 197 674 88 674 l 671 674 q 781 564 781 674 l 781 439 z "},"è":{"ha":886,"x_min":88,"x_max":810,"o":"m 554 739 l 371 739 l 136 944 l 361 944 l 554 739 m 301 386 l 601 386 l 601 549 q 594 583 601 575 q 558 592 586 592 l 344 592 q 309 583 317 592 q 301 549 301 575 l 301 386 m 197 674 l 700 674 q 810 564 810 674 l 810 304 l 301 304 l 301 125 q 309 90 301 97 q 344 82 317 82 l 556 82 q 591 90 583 82 q 599 125 599 97 l 599 207 l 807 207 l 807 110 q 697 0 807 0 l 197 0 q 88 110 88 0 l 88 564 q 197 674 88 674 z "},"é":{"ha":886,"x_min":88,"x_max":810,"o":"m 786 944 l 551 739 l 368 739 l 560 944 l 786 944 m 301 386 l 601 386 l 601 549 q 594 583 601 575 q 558 592 586 592 l 344 592 q 309 583 317 592 q 301 549 301 575 l 301 386 m 197 674 l 700 674 q 810 564 810 674 l 810 304 l 301 304 l 301 125 q 309 90 301 97 q 344 82 317 82 l 556 82 q 591 90 583 82 q 599 125 599 97 l 599 207 l 807 207 l 807 110 q 697 0 807 0 l 197 0 q 88 110 88 0 l 88 564 q 197 674 88 674 z "},"ê":{"ha":886,"x_min":88,"x_max":810,"o":"m 453 868 l 318 739 l 104 739 l 347 950 l 558 950 l 803 739 l 588 739 l 453 868 m 301 386 l 601 386 l 601 549 q 594 583 601 575 q 558 592 586 592 l 344 592 q 309 583 317 592 q 301 549 301 575 l 301 386 m 197 674 l 700 674 q 810 564 810 674 l 810 304 l 301 304 l 301 125 q 309 90 301 97 q 344 82 317 82 l 556 82 q 591 90 583 82 q 599 125 599 97 l 599 207 l 807 207 l 807 110 q 697 0 807 0 l 197 0 q 88 110 88 0 l 88 564 q 197 674 88 674 z "},"ë":{"ha":886,"x_min":88,"x_max":810,"o":"m 374 890 l 374 739 l 132 739 l 132 890 l 374 890 m 772 890 l 772 739 l 529 739 l 529 890 l 772 890 m 197 674 l 700 674 q 810 564 810 674 l 810 304 l 303 304 l 303 125 q 311 90 303 97 q 346 82 319 82 l 556 82 q 591 90 583 82 q 599 125 599 97 l 599 207 l 808 207 l 808 110 q 699 0 808 0 l 197 0 q 88 110 88 0 l 88 564 q 197 674 88 674 m 303 386 l 601 386 l 601 549 q 594 583 601 575 q 558 592 586 592 l 346 592 q 311 583 319 592 q 303 549 303 575 l 303 386 z "},"ì":{"ha":438,"x_min":-117,"x_max":326,"o":"m 326 0 l 111 0 l 111 674 l 326 674 l 326 0 m 108 944 l 301 739 l 118 739 l -117 944 l 108 944 z "},"í":{"ha":438,"x_min":111,"x_max":554,"o":"m 326 0 l 111 0 l 111 674 l 326 674 l 326 0 m 136 739 l 328 944 l 554 944 l 319 739 l 136 739 z "},"î":{"ha":438,"x_min":-128,"x_max":571,"o":"m 326 0 l 111 0 l 111 674 l 326 674 l 326 0 m -128 739 l 115 950 l 326 950 l 571 739 l 356 739 l 221 868 l 86 739 l -128 739 z "},"ï":{"ha":438,"x_min":-99,"x_max":542,"o":"m 326 0 l 111 0 l 111 674 l 326 674 l 326 0 m 299 892 l 542 892 l 542 740 l 299 740 l 299 892 m -99 892 l 143 892 l 143 740 l -99 740 l -99 892 z "},"ð":{"ha":725,"x_min":104,"x_max":849,"o":"m 633 125 l 633 440 l 363 440 q 328 433 336 440 q 319 397 319 425 l 319 125 q 328 90 319 97 q 363 82 336 82 l 590 82 q 625 90 617 82 q 633 125 633 97 m 849 429 l 849 110 q 739 0 849 0 l 214 0 q 104 110 104 0 l 104 413 q 214 522 104 522 l 619 522 q 538 660 597 590 l 310 604 l 310 688 l 468 726 q 258 864 383 796 l 553 864 q 671 775 607 831 l 831 814 l 831 731 l 736 707 q 849 429 849 576 z "},"ñ":{"ha":904,"x_min":103,"x_max":813,"o":"m 301 815 l 301 738 l 126 738 l 126 824 q 232 932 126 932 l 297 932 q 458 878 351 932 q 586 825 564 825 q 614 856 614 825 l 614 932 l 788 932 l 788 846 q 685 738 788 738 l 617 738 q 457 791 563 738 q 326 844 351 844 q 301 815 301 844 m 397 674 l 703 674 q 813 564 813 674 l 813 0 l 597 0 l 597 549 q 589 583 597 575 q 554 592 581 592 l 368 592 q 319 547 319 592 l 319 506 l 318 506 l 318 0 l 103 0 l 103 674 l 318 674 l 318 628 q 397 674 335 674 z "},"ò":{"ha":897,"x_min":93,"x_max":806,"o":"m 547 739 l 364 739 l 129 944 l 354 944 l 547 739 m 592 125 l 592 549 q 583 583 592 575 q 549 592 575 592 l 350 592 q 315 583 322 592 q 307 549 307 575 l 307 125 q 315 90 307 97 q 350 82 322 82 l 549 82 q 583 90 575 82 q 592 125 592 97 m 203 674 l 696 674 q 806 564 806 674 l 806 110 q 696 0 806 0 l 203 0 q 93 110 93 0 l 93 564 q 203 674 93 674 z "},"ó":{"ha":897,"x_min":93,"x_max":806,"o":"m 792 944 l 557 739 l 374 739 l 565 944 l 792 944 m 592 125 l 592 549 q 583 583 592 575 q 549 592 575 592 l 350 592 q 315 583 322 592 q 307 549 307 575 l 307 125 q 315 90 307 97 q 350 82 322 82 l 549 82 q 583 90 575 82 q 592 125 592 97 m 203 674 l 696 674 q 806 564 806 674 l 806 110 q 696 0 806 0 l 203 0 q 93 110 93 0 l 93 564 q 203 674 93 674 z "},"ô":{"ha":897,"x_min":93,"x_max":806,"o":"m 450 868 l 315 739 l 101 739 l 344 950 l 556 950 l 800 739 l 585 739 l 450 868 m 592 125 l 592 549 q 583 583 592 575 q 549 592 575 592 l 350 592 q 315 583 322 592 q 307 549 307 575 l 307 125 q 315 90 307 97 q 350 82 322 82 l 549 82 q 583 90 575 82 q 592 125 592 97 m 203 674 l 696 674 q 806 564 806 674 l 806 110 q 696 0 806 0 l 203 0 q 93 110 93 0 l 93 564 q 203 674 93 674 z "},"õ":{"ha":897,"x_min":93,"x_max":806,"o":"m 296 817 l 296 739 l 121 739 l 121 825 q 226 933 121 933 l 292 933 q 452 880 346 933 q 581 826 558 826 q 608 857 608 826 l 608 933 l 782 933 l 782 847 q 679 739 782 739 l 611 739 q 451 792 557 739 q 321 846 346 846 q 296 817 296 846 m 592 125 l 592 549 q 583 583 592 575 q 549 592 575 592 l 350 592 q 315 583 322 592 q 307 549 307 575 l 307 125 q 315 90 307 97 q 350 82 322 82 l 549 82 q 583 90 575 82 q 592 125 592 97 m 203 674 l 696 674 q 806 564 806 674 l 806 110 q 696 0 806 0 l 203 0 q 93 110 93 0 l 93 564 q 203 674 93 674 z "},"ö":{"ha":897,"x_min":92,"x_max":806,"o":"m 201 674 l 696 674 q 806 564 806 674 l 806 110 q 696 0 806 0 l 201 0 q 92 110 92 0 l 92 564 q 201 674 92 674 m 592 549 q 583 583 592 575 q 549 592 575 592 l 349 592 q 314 583 322 592 q 306 549 306 575 l 306 125 q 314 90 306 97 q 349 82 322 82 l 549 82 q 583 90 575 82 q 592 125 592 97 l 592 549 m 133 890 l 375 890 l 375 739 l 133 739 l 133 890 m 531 890 l 774 890 l 774 739 l 531 739 l 531 890 z "},"÷":{"ha":958,"x_min":65,"x_max":875,"o":"m 65 361 l 65 501 l 875 501 l 875 361 l 65 361 m 360 710 l 582 710 l 582 585 l 360 585 l 360 710 m 360 278 l 582 278 l 582 153 l 360 153 l 360 278 z "},"ø":{"ha":913,"x_min":72,"x_max":849,"o":"m 607 122 l 607 439 l 308 97 q 350 78 314 78 l 564 78 q 599 86 592 78 q 607 122 607 94 m 306 553 l 306 225 l 607 568 q 597 590 606 585 q 564 596 588 596 l 350 596 q 314 588 322 596 q 306 553 306 581 m 813 564 l 813 110 q 703 0 813 0 l 222 0 l 186 -42 l 72 -42 l 131 25 q 100 110 100 51 l 100 564 q 210 674 100 674 l 700 674 l 735 714 l 849 714 l 788 644 q 813 564 813 618 z "},"ù":{"ha":904,"x_min":93,"x_max":801,"o":"m 564 739 l 381 739 l 146 944 l 371 944 l 564 739 m 588 674 l 801 674 l 801 0 l 588 0 l 588 46 q 508 0 571 0 l 203 0 q 93 110 93 0 l 93 674 l 307 674 l 307 125 q 315 90 307 97 q 350 82 322 82 l 538 82 q 588 126 588 82 l 588 674 z "},"ú":{"ha":904,"x_min":93,"x_max":801,"o":"m 775 944 l 540 739 l 357 739 l 549 944 l 775 944 m 588 674 l 801 674 l 801 0 l 588 0 l 588 46 q 508 0 571 0 l 203 0 q 93 110 93 0 l 93 674 l 307 674 l 307 125 q 315 90 307 97 q 350 82 322 82 l 538 82 q 588 126 588 82 l 588 674 z "},"û":{"ha":904,"x_min":93,"x_max":801,"o":"m 446 868 l 311 739 l 97 739 l 340 950 l 551 950 l 796 739 l 581 739 l 446 868 m 588 674 l 801 674 l 801 0 l 588 0 l 588 46 q 508 0 571 0 l 203 0 q 93 110 93 0 l 93 674 l 307 674 l 307 125 q 315 90 307 97 q 350 82 322 82 l 538 82 q 588 126 588 82 l 588 674 z "},"ü":{"ha":919,"x_min":92,"x_max":801,"o":"m 767 890 l 767 739 l 524 739 l 524 890 l 767 890 m 369 890 l 369 739 l 126 739 l 126 890 l 369 890 m 586 674 l 801 674 l 801 0 l 586 0 l 586 42 q 508 0 569 0 l 201 0 q 92 110 92 0 l 92 674 l 307 674 l 307 125 q 315 90 307 97 q 350 82 322 82 l 536 82 q 586 126 586 82 l 586 674 z "},"ý":{"ha":849,"x_min":28,"x_max":843,"o":"m 318 -196 l 156 -196 l 156 -114 l 247 -114 q 319 -99 294 -114 q 360 -51 344 -85 l 383 0 l 303 0 l 28 674 l 250 674 l 439 140 l 628 674 l 843 674 l 550 -37 q 471 -159 518 -122 q 318 -196 424 -196 m 360 739 l 551 944 l 778 944 l 543 739 l 360 739 z "},"þ":{"ha":904,"x_min":103,"x_max":811,"o":"m 597 139 l 597 561 q 589 597 597 589 q 554 604 581 604 l 368 604 q 318 560 318 604 l 318 140 q 368 96 318 96 l 554 96 q 589 103 581 96 q 597 139 597 111 m 396 686 l 701 686 q 811 576 811 686 l 811 124 q 701 14 811 14 l 396 14 q 318 56 335 14 l 318 -196 l 103 -196 l 103 929 l 315 929 l 315 638 q 396 686 332 686 z "},"ÿ":{"ha":881,"x_min":28,"x_max":843,"o":"m 318 -196 l 156 -196 l 156 -114 l 247 -114 q 319 -99 294 -114 q 360 -51 344 -85 l 383 0 l 303 0 l 28 674 l 250 674 l 439 140 l 628 674 l 843 674 l 550 -37 q 471 -159 518 -122 q 318 -196 424 -196 m 522 889 l 765 889 l 765 739 l 522 739 l 522 889 m 125 889 l 367 889 l 367 739 l 125 739 l 125 889 z "},"Ā":{"ha":999,"x_min":26,"x_max":972,"o":"m 807 1011 l 807 931 l 201 931 l 201 1011 l 807 1011 m 333 253 l 664 253 l 499 728 l 333 253 m 751 0 l 692 171 l 304 171 l 244 0 l 26 0 l 357 864 l 640 864 l 972 0 l 751 0 z "},"ā":{"ha":900,"x_min":88,"x_max":796,"o":"m 742 825 l 742 744 l 136 744 l 136 825 l 742 825 m 344 82 l 532 82 q 582 126 582 82 l 582 547 q 532 592 582 592 l 344 592 q 309 583 317 592 q 301 549 301 575 l 301 125 q 309 90 301 97 q 344 82 317 82 m 582 674 l 796 674 l 796 0 l 582 0 l 582 46 q 503 0 565 0 l 197 0 q 88 110 88 0 l 88 564 q 197 674 88 674 l 503 674 q 582 628 565 674 l 582 674 z "},"Ă":{"ha":999,"x_min":26,"x_max":972,"o":"m 713 929 l 285 929 q 175 1039 175 929 l 175 1126 l 367 1126 l 367 1053 q 375 1017 367 1025 q 410 1010 383 1010 l 588 1010 q 622 1017 614 1010 q 631 1053 631 1025 l 631 1126 l 822 1126 l 822 1039 q 713 929 822 929 m 333 253 l 664 253 l 499 728 l 333 253 m 751 0 l 692 171 l 304 171 l 244 0 l 26 0 l 357 864 l 640 864 l 972 0 l 751 0 z "},"ă":{"ha":900,"x_min":88,"x_max":796,"o":"m 663 739 l 235 739 q 125 849 125 739 l 125 936 l 317 936 l 317 863 q 325 828 317 836 q 360 819 333 819 l 538 819 q 572 828 564 819 q 581 863 581 836 l 581 936 l 772 936 l 772 849 q 663 739 772 739 m 344 82 l 532 82 q 582 126 582 82 l 582 547 q 532 592 582 592 l 344 592 q 309 583 317 592 q 301 549 301 575 l 301 125 q 309 90 301 97 q 344 82 317 82 m 582 674 l 796 674 l 796 0 l 582 0 l 582 46 q 503 0 565 0 l 197 0 q 88 110 88 0 l 88 564 q 197 674 88 674 l 503 674 q 582 628 565 674 l 582 674 z "},"Ą":{"ha":999,"x_min":26,"x_max":994,"o":"m 333 253 l 664 253 l 499 728 l 333 253 m 771 -261 l 994 -261 l 994 -339 l 678 -339 q 568 -229 568 -339 l 568 -157 q 678 -47 568 -47 l 751 -47 l 751 0 l 692 171 l 304 171 l 244 0 l 26 0 l 357 864 l 640 864 l 972 0 l 964 0 l 964 -124 l 771 -124 q 735 -132 743 -124 q 726 -167 726 -140 l 726 -219 q 735 -253 726 -246 q 771 -261 743 -261 z "},"ą":{"ha":900,"x_min":88,"x_max":825,"o":"m 344 82 l 532 82 q 582 126 582 82 l 582 547 q 532 592 582 592 l 344 592 q 309 583 317 592 q 301 549 301 575 l 301 125 q 309 90 301 97 q 344 82 317 82 m 601 -261 l 825 -261 l 825 -339 l 508 -339 q 399 -229 399 -339 l 399 -157 q 508 -47 399 -47 l 582 -47 l 582 46 q 503 0 565 0 l 197 0 q 88 110 88 0 l 88 564 q 197 674 88 674 l 503 674 q 582 628 565 674 l 582 674 l 796 674 l 796 0 l 794 0 l 794 -124 l 601 -124 q 565 -132 574 -124 q 557 -167 557 -140 l 557 -219 q 565 -253 557 -246 q 601 -261 574 -261 z "},"Ć":{"ha":928,"x_min":99,"x_max":860,"o":"m 801 1136 l 567 931 l 383 931 l 575 1136 l 801 1136 m 860 560 l 635 560 l 635 739 q 627 774 635 767 q 592 782 619 782 l 367 782 q 331 774 339 782 q 324 739 324 767 l 324 125 q 331 90 324 97 q 367 82 339 82 l 592 82 q 627 90 619 82 q 635 125 635 97 l 635 303 l 860 303 l 860 110 q 750 0 860 0 l 208 0 q 99 110 99 0 l 99 754 q 208 864 99 864 l 750 864 q 860 754 860 864 l 860 560 z "},"ć":{"ha":844,"x_min":88,"x_max":781,"o":"m 772 944 l 538 739 l 354 739 l 546 944 l 772 944 m 781 439 l 571 439 l 571 549 q 563 583 571 575 q 528 592 556 592 l 344 592 q 309 583 317 592 q 301 549 301 575 l 301 125 q 309 90 301 97 q 344 82 317 82 l 528 82 q 563 90 556 82 q 571 125 571 97 l 571 232 l 781 232 l 781 110 q 671 0 781 0 l 197 0 q 88 110 88 0 l 88 564 q 197 674 88 674 l 671 674 q 781 564 781 674 l 781 439 z "},"Č":{"ha":928,"x_min":99,"x_max":860,"o":"m 585 929 l 374 929 l 131 1139 l 344 1139 l 479 1010 l 614 1139 l 829 1139 l 585 929 m 860 560 l 635 560 l 635 739 q 627 774 635 767 q 592 782 619 782 l 367 782 q 331 774 339 782 q 324 739 324 767 l 324 125 q 331 90 324 97 q 367 82 339 82 l 592 82 q 627 90 619 82 q 635 125 635 97 l 635 303 l 860 303 l 860 110 q 750 0 860 0 l 208 0 q 99 110 99 0 l 99 754 q 208 864 99 864 l 750 864 q 860 754 860 864 l 860 560 z "},"č":{"ha":844,"x_min":79,"x_max":781,"o":"m 533 739 l 322 739 l 79 949 l 293 949 l 428 819 l 563 949 l 778 949 l 533 739 m 781 439 l 571 439 l 571 549 q 563 583 571 575 q 528 592 556 592 l 344 592 q 309 583 317 592 q 301 549 301 575 l 301 125 q 309 90 301 97 q 344 82 317 82 l 528 82 q 563 90 556 82 q 571 125 571 97 l 571 232 l 781 232 l 781 110 q 671 0 781 0 l 197 0 q 88 110 88 0 l 88 564 q 197 674 88 674 l 671 674 q 781 564 781 674 l 781 439 z "},"Ď":{"ha":997,"x_min":119,"x_max":894,"o":"m 593 929 l 382 929 l 139 1139 l 353 1139 l 488 1010 l 622 1139 l 838 1139 l 593 929 m 669 125 l 669 739 q 661 774 669 767 q 626 782 653 782 l 344 782 l 344 82 l 626 82 q 661 90 653 82 q 669 125 669 97 m 119 864 l 785 864 q 894 754 894 864 l 894 110 q 785 0 894 0 l 119 0 l 119 864 z "},"ď":{"ha":936,"x_min":88,"x_max":1079,"o":"m 582 929 l 796 929 l 796 0 l 582 0 l 582 40 q 504 0 564 0 l 197 0 q 88 110 88 0 l 88 564 q 197 674 88 674 l 504 674 q 582 633 564 674 l 582 929 m 904 929 l 1079 929 l 1079 850 l 964 672 l 904 672 l 904 929 m 346 82 l 532 82 q 582 126 582 82 l 582 547 q 532 592 582 592 l 346 592 q 311 583 319 592 q 303 549 303 575 l 303 125 q 311 90 303 97 q 346 82 319 82 z "},"Đ":{"ha":1050,"x_min":81,"x_max":942,"o":"m 717 125 l 717 739 q 708 774 717 767 q 674 782 700 782 l 393 782 l 393 479 l 596 479 l 596 393 l 393 393 l 393 82 l 674 82 q 708 90 700 82 q 717 125 717 97 m 168 864 l 832 864 q 942 754 942 864 l 942 110 q 832 0 942 0 l 168 0 l 168 393 l 81 393 l 81 479 l 168 479 l 168 864 z "},"đ":{"ha":904,"x_min":92,"x_max":897,"o":"m 350 82 l 536 82 q 586 126 586 82 l 586 547 q 536 592 586 592 l 350 592 q 315 583 322 592 q 307 549 307 575 l 307 125 q 315 90 307 97 q 350 82 322 82 m 897 832 l 897 750 l 801 750 l 801 0 l 586 0 l 586 42 q 508 0 569 0 l 201 0 q 92 110 92 0 l 92 564 q 201 674 92 674 l 508 674 q 586 632 569 674 l 586 750 l 331 750 l 331 832 l 586 832 l 586 929 l 801 929 l 801 832 l 897 832 z "},"Ē":{"ha":843,"x_min":111,"x_max":792,"o":"m 749 1010 l 749 929 l 143 929 l 143 1010 l 749 1010 m 343 82 l 792 82 l 792 0 l 111 0 l 111 864 l 774 864 l 774 782 l 343 782 l 343 483 l 717 483 l 717 401 l 343 401 l 343 82 z "},"ē":{"ha":886,"x_min":88,"x_max":810,"o":"m 750 825 l 750 744 l 144 744 l 144 825 l 750 825 m 301 386 l 601 386 l 601 549 q 594 583 601 575 q 558 592 586 592 l 344 592 q 309 583 317 592 q 301 549 301 575 l 301 386 m 197 674 l 700 674 q 810 564 810 674 l 810 304 l 301 304 l 301 125 q 309 90 301 97 q 344 82 317 82 l 556 82 q 591 90 583 82 q 599 125 599 97 l 599 207 l 807 207 l 807 110 q 697 0 807 0 l 197 0 q 88 110 88 0 l 88 564 q 197 674 88 674 z "},"Ė":{"ha":843,"x_min":111,"x_max":792,"o":"m 581 1088 l 581 931 l 350 931 l 350 1088 l 581 1088 m 343 82 l 792 82 l 792 0 l 111 0 l 111 864 l 774 864 l 774 782 l 343 782 l 343 483 l 717 483 l 717 401 l 343 401 l 343 82 z "},"ė":{"ha":886,"x_min":88,"x_max":810,"o":"m 571 896 l 571 739 l 340 739 l 340 896 l 571 896 m 301 386 l 601 386 l 601 549 q 594 583 601 575 q 558 592 586 592 l 344 592 q 309 583 317 592 q 301 549 301 575 l 301 386 m 197 674 l 700 674 q 810 564 810 674 l 810 304 l 301 304 l 301 125 q 309 90 301 97 q 344 82 317 82 l 556 82 q 591 90 583 82 q 599 125 599 97 l 599 207 l 807 207 l 807 110 q 697 0 807 0 l 197 0 q 88 110 88 0 l 88 564 q 197 674 88 674 z "},"Ę":{"ha":843,"x_min":111,"x_max":824,"o":"m 600 -261 l 824 -261 l 824 -339 l 507 -339 q 397 -229 397 -339 l 397 -157 q 507 -47 397 -47 l 581 -47 l 581 0 l 111 0 l 111 864 l 774 864 l 774 782 l 343 782 l 343 483 l 717 483 l 717 401 l 343 401 l 343 82 l 792 82 l 792 18 l 793 18 l 793 -124 l 600 -124 q 564 -132 572 -124 q 556 -167 556 -140 l 556 -219 q 564 -253 556 -246 q 600 -261 572 -261 z "},"ę":{"ha":886,"x_min":88,"x_max":810,"o":"m 301 386 l 601 386 l 601 549 q 594 583 601 575 q 558 592 586 592 l 344 592 q 309 583 317 592 q 301 549 301 575 l 301 386 m 197 674 l 700 674 q 810 564 810 674 l 810 304 l 301 304 l 301 125 q 309 90 301 97 q 344 82 317 82 l 556 82 q 591 90 583 82 q 599 125 599 97 l 599 207 l 807 207 l 807 110 q 697 0 807 0 l 563 0 l 563 -124 l 369 -124 q 333 -132 342 -124 q 325 -167 325 -140 l 325 -219 q 333 -253 325 -246 q 369 -261 342 -261 l 593 -261 l 593 -339 l 276 -339 q 167 -229 167 -339 l 167 -157 q 276 -47 167 -47 l 350 -47 l 350 0 l 197 0 q 88 110 88 0 l 88 564 q 197 674 88 674 z "},"Ě":{"ha":843,"x_min":111,"x_max":813,"o":"m 568 929 l 357 929 l 114 1139 l 328 1139 l 463 1010 l 597 1139 l 813 1139 l 568 929 m 343 401 l 343 82 l 792 82 l 792 0 l 111 0 l 111 864 l 774 864 l 774 782 l 343 782 l 343 483 l 717 483 l 717 401 l 343 401 z "},"ě":{"ha":886,"x_min":88,"x_max":810,"o":"m 553 739 l 342 739 l 99 949 l 313 949 l 447 819 l 582 949 l 797 949 l 553 739 m 301 386 l 601 386 l 601 549 q 594 583 601 575 q 558 592 586 592 l 344 592 q 309 583 317 592 q 301 549 301 575 l 301 386 m 197 674 l 700 674 q 810 564 810 674 l 810 304 l 301 304 l 301 125 q 309 90 301 97 q 344 82 317 82 l 556 82 q 591 90 583 82 q 599 125 599 97 l 599 207 l 807 207 l 807 110 q 697 0 807 0 l 197 0 q 88 110 88 0 l 88 564 q 197 674 88 674 z "},"Ğ":{"ha":949,"x_min":99,"x_max":861,"o":"m 690 929 l 263 929 q 153 1039 153 929 l 153 1126 l 344 1126 l 344 1053 q 353 1017 344 1025 q 388 1010 361 1010 l 565 1010 q 600 1017 592 1010 q 608 1053 608 1025 l 608 1126 l 800 1126 l 800 1039 q 690 929 800 929 m 861 588 l 636 588 l 636 739 q 628 774 636 767 q 593 782 619 782 l 367 782 q 331 774 339 782 q 324 739 324 767 l 324 125 q 331 90 324 97 q 367 82 339 82 l 594 82 q 630 90 622 82 q 638 125 638 97 l 638 363 l 468 363 l 468 444 l 861 444 l 861 110 q 751 0 861 0 l 208 0 q 99 110 99 0 l 99 754 q 208 864 99 864 l 751 864 q 861 754 861 864 l 861 588 z "},"ğ":{"ha":893,"x_min":88,"x_max":797,"o":"m 668 739 l 240 739 q 131 849 131 739 l 131 936 l 322 936 l 322 863 q 331 828 322 836 q 365 819 339 819 l 543 819 q 578 828 569 819 q 586 863 586 836 l 586 936 l 778 936 l 778 849 q 668 739 778 739 m 344 82 l 532 82 q 582 126 582 82 l 582 547 q 532 592 582 592 l 344 592 q 309 583 317 592 q 301 549 301 575 l 301 125 q 309 90 301 97 q 344 82 317 82 m 796 35 l 797 35 l 797 -86 q 688 -196 797 -196 l 121 -196 l 121 -114 l 539 -114 q 574 -106 567 -114 q 582 -71 582 -97 l 582 46 q 503 0 565 0 l 197 0 q 88 110 88 0 l 88 564 q 197 674 88 674 l 503 674 q 582 628 565 674 l 582 674 l 796 674 l 796 35 z "},"Ģ":{"ha":949,"x_min":99,"x_max":861,"o":"m 368 -349 l 368 -67 l 588 -67 l 588 -153 l 438 -349 l 368 -349 m 861 588 l 636 588 l 636 739 q 628 774 636 767 q 593 782 619 782 l 367 782 q 331 774 339 782 q 324 739 324 767 l 324 125 q 331 90 324 97 q 367 82 339 82 l 594 82 q 630 90 622 82 q 638 125 638 97 l 638 363 l 468 363 l 468 444 l 861 444 l 861 110 q 751 0 861 0 l 208 0 q 99 110 99 0 l 99 754 q 208 864 99 864 l 751 864 q 861 754 861 864 l 861 588 z "},"ģ":{"ha":893,"x_min":93,"x_max":803,"o":"m 594 1019 l 594 738 l 375 738 l 375 824 l 525 1019 l 594 1019 m 350 82 l 538 82 q 588 126 588 82 l 588 547 q 538 592 588 592 l 350 592 q 315 583 322 592 q 307 549 307 575 l 307 125 q 315 90 307 97 q 350 82 322 82 m 801 35 l 803 35 l 803 -86 q 693 -196 803 -196 l 126 -196 l 126 -114 l 544 -114 q 580 -106 572 -114 q 588 -71 588 -97 l 588 46 q 508 0 571 0 l 203 0 q 93 110 93 0 l 93 564 q 203 674 93 674 l 508 674 q 588 628 571 674 l 588 674 l 801 674 l 801 35 z "},"Ī":{"ha":460,"x_min":-62,"x_max":543,"o":"m 119 864 l 350 864 l 350 0 l 119 0 l 119 864 m -62 929 l -62 1010 l 543 1010 l 543 929 l -62 929 z "},"ī":{"ha":438,"x_min":-79,"x_max":526,"o":"m 326 0 l 111 0 l 111 674 l 326 674 l 326 0 m -79 744 l -79 825 l 526 825 l 526 744 l -79 744 z "},"Į":{"ha":460,"x_min":-49,"x_max":378,"o":"m 154 -261 l 378 -261 l 378 -339 l 61 -339 q -49 -229 -49 -339 l -49 -157 q 61 -47 -49 -47 l 135 -47 l 135 0 l 119 0 l 119 864 l 350 864 l 350 0 l 347 0 l 347 -124 l 154 -124 q 118 -132 126 -124 q 110 -167 110 -140 l 110 -219 q 118 -253 110 -246 q 154 -261 126 -261 z "},"į":{"ha":438,"x_min":-71,"x_max":356,"o":"m 331 931 l 331 786 l 107 786 l 107 931 l 331 931 m 132 -261 l 356 -261 l 356 -339 l 39 -339 q -71 -229 -71 -339 l -71 -157 q 39 -47 -71 -47 l 113 -47 l 113 0 l 111 0 l 111 674 l 326 674 l 326 0 l 325 0 l 325 -124 l 132 -124 q 96 -132 104 -124 q 88 -167 88 -140 l 88 -219 q 96 -253 88 -246 q 132 -261 104 -261 z "},"İ":{"ha":443,"x_min":110,"x_max":342,"o":"m 111 758 l 342 758 l 342 0 l 111 0 l 111 758 m 110 981 l 340 981 l 340 824 l 110 824 l 110 981 z "},"ı":{"ha":438,"x_min":111,"x_max":326,"o":"m 111 674 l 326 674 l 326 0 l 111 0 l 111 674 z "},"Ķ":{"ha":976,"x_min":111,"x_max":954,"o":"m 111 864 l 331 864 l 331 0 l 111 0 l 111 864 m 694 864 l 942 864 l 593 442 l 954 0 l 704 0 l 353 442 l 694 864 m 390 -349 l 390 -67 l 610 -67 l 610 -153 l 460 -349 l 390 -349 z "},"ķ":{"ha":879,"x_min":103,"x_max":861,"o":"m 103 0 l 103 929 l 318 929 l 318 0 l 103 0 m 338 -349 l 338 -67 l 557 -67 l 557 -153 l 407 -349 l 338 -349 m 861 674 l 568 340 l 861 0 l 625 0 l 342 340 l 626 674 l 861 674 z "},"Ĺ":{"ha":776,"x_min":111,"x_max":753,"o":"m 563 1135 l 328 929 l 144 929 l 336 1135 l 563 1135 m 336 82 l 753 82 l 753 0 l 111 0 l 111 864 l 336 864 l 336 82 z "},"ĺ":{"ha":438,"x_min":111,"x_max":554,"o":"m 136 994 l 328 1200 l 554 1200 l 319 994 l 136 994 m 326 0 l 111 0 l 111 929 l 326 929 l 326 0 z "},"Ļ":{"ha":776,"x_min":111,"x_max":753,"o":"m 317 -349 l 317 -67 l 536 -67 l 536 -153 l 386 -349 l 317 -349 m 336 82 l 753 82 l 753 0 l 111 0 l 111 864 l 336 864 l 336 82 z "},"ļ":{"ha":438,"x_min":107,"x_max":326,"o":"m 326 0 l 111 0 l 111 929 l 326 929 l 326 0 m 107 -349 l 107 -67 l 326 -67 l 326 -153 l 176 -349 l 107 -349 z "},"Ľ":{"ha":776,"x_min":-125,"x_max":753,"o":"m 329 931 l 118 931 l -125 1140 l 89 1140 l 224 1011 l 358 1140 l 574 1140 l 329 931 m 336 82 l 753 82 l 753 0 l 111 0 l 111 864 l 336 864 l 336 82 z "},"ľ":{"ha":482,"x_min":111,"x_max":610,"o":"m 111 929 l 326 929 l 326 0 l 111 0 l 111 929 m 435 928 l 610 928 l 610 849 l 494 671 l 435 671 l 435 928 z "},"Ł":{"ha":793,"x_min":-50,"x_max":761,"o":"m 344 82 l 761 82 l 761 0 l 119 0 l 119 333 l -50 276 l -50 367 l 119 424 l 119 864 l 344 864 l 344 499 l 567 572 l 567 482 l 344 408 l 344 82 z "},"ł":{"ha":447,"x_min":-57,"x_max":513,"o":"m 331 0 l 115 0 l 115 396 l -57 339 l -57 429 l 115 486 l 115 929 l 331 929 l 331 558 l 513 619 l 513 529 l 331 468 l 331 0 z "},"Ń":{"ha":1019,"x_min":111,"x_max":907,"o":"m 426 928 l 618 1133 l 844 1133 l 610 928 l 426 928 m 700 864 l 907 864 l 907 0 l 708 0 l 318 646 l 318 0 l 111 0 l 111 864 l 314 864 l 700 219 l 700 864 z "},"ń":{"ha":904,"x_min":103,"x_max":821,"o":"m 821 944 l 586 739 l 403 739 l 594 944 l 821 944 m 397 674 l 703 674 q 813 564 813 674 l 813 0 l 597 0 l 597 549 q 589 583 597 575 q 554 592 581 592 l 368 592 q 319 547 319 592 l 319 506 l 318 506 l 318 0 l 103 0 l 103 674 l 318 674 l 318 628 q 397 674 335 674 z "},"Ņ":{"ha":1019,"x_min":111,"x_max":907,"o":"m 700 864 l 907 864 l 907 0 l 708 0 l 318 646 l 318 0 l 111 0 l 111 864 l 314 864 l 700 219 l 700 864 m 404 -349 l 404 -67 l 624 -67 l 624 -153 l 474 -349 l 404 -349 z "},"ņ":{"ha":904,"x_min":103,"x_max":813,"o":"m 351 -349 l 351 -67 l 571 -67 l 571 -153 l 421 -349 l 351 -349 m 397 674 l 703 674 q 813 564 813 674 l 813 0 l 597 0 l 597 549 q 589 583 597 575 q 554 592 581 592 l 368 592 q 319 547 319 592 l 319 506 l 318 506 l 318 0 l 103 0 l 103 674 l 318 674 l 318 628 q 397 674 335 674 z "},"Ň":{"ha":1019,"x_min":111,"x_max":907,"o":"m 408 929 l 165 1139 l 379 1139 l 514 1010 l 649 1139 l 864 1139 l 619 929 l 408 929 m 700 864 l 907 864 l 907 0 l 708 0 l 318 646 l 318 0 l 111 0 l 111 864 l 314 864 l 700 219 l 700 864 z "},"ň":{"ha":904,"x_min":103,"x_max":813,"o":"m 568 739 l 357 739 l 114 949 l 328 949 l 463 819 l 597 949 l 813 949 l 568 739 m 397 674 l 703 674 q 813 564 813 674 l 813 0 l 597 0 l 597 549 q 589 583 597 575 q 554 592 581 592 l 368 592 q 319 547 319 592 l 319 506 l 318 506 l 318 0 l 103 0 l 103 674 l 318 674 l 318 628 q 397 674 335 674 z "},"Ō":{"ha":963,"x_min":101,"x_max":861,"o":"m 178 931 l 178 1011 l 783 1011 l 783 931 l 178 931 m 861 754 l 861 110 q 751 0 861 0 l 211 0 q 101 110 101 0 l 101 754 q 211 864 101 864 l 751 864 q 861 754 861 864 m 638 125 l 638 739 q 630 774 638 767 q 594 782 622 782 l 369 782 q 334 774 342 782 q 326 739 326 767 l 326 125 q 334 90 326 97 q 369 82 342 82 l 594 82 q 630 90 622 82 q 638 125 638 97 z "},"ō":{"ha":897,"x_min":93,"x_max":806,"o":"m 749 825 l 749 744 l 143 744 l 143 825 l 749 825 m 592 125 l 592 549 q 583 583 592 575 q 549 592 575 592 l 350 592 q 315 583 322 592 q 307 549 307 575 l 307 125 q 315 90 307 97 q 350 82 322 82 l 549 82 q 583 90 575 82 q 592 125 592 97 m 203 674 l 696 674 q 806 564 806 674 l 806 110 q 696 0 806 0 l 203 0 q 93 110 93 0 l 93 564 q 203 674 93 674 z "},"Ő":{"ha":949,"x_min":101,"x_max":989,"o":"m 211 864 l 751 864 q 861 754 861 864 l 861 110 q 751 0 861 0 l 211 0 q 101 110 101 0 l 101 754 q 211 864 101 864 m 638 739 q 630 774 638 767 q 594 782 622 782 l 368 782 q 333 774 342 782 q 325 739 325 767 l 325 125 q 333 90 325 97 q 368 82 342 82 l 594 82 q 630 90 622 82 q 638 125 638 97 l 638 739 m 457 1151 l 663 1151 l 419 929 l 257 929 l 457 1151 m 783 1151 l 989 1151 l 740 929 l 578 929 l 783 1151 z "},"ő":{"ha":897,"x_min":92,"x_max":951,"o":"m 201 674 l 696 674 q 806 564 806 674 l 806 110 q 696 0 806 0 l 201 0 q 92 110 92 0 l 92 564 q 201 674 92 674 m 592 549 q 583 583 592 575 q 549 592 575 592 l 349 592 q 314 583 322 592 q 306 549 306 575 l 306 125 q 314 90 306 97 q 349 82 322 82 l 549 82 q 583 90 575 82 q 592 125 592 97 l 592 549 m 418 960 l 624 960 l 382 739 l 219 739 l 418 960 m 746 960 l 951 960 l 703 739 l 540 739 l 746 960 z "},"Œ":{"ha":1360,"x_min":103,"x_max":1296,"o":"m 647 125 l 647 739 q 639 774 647 767 q 604 782 631 782 l 371 782 q 336 774 344 782 q 328 739 328 767 l 328 125 q 336 90 328 97 q 371 82 344 82 l 604 82 q 639 90 631 82 q 647 125 647 97 m 875 82 l 1296 82 l 1296 0 l 706 0 l 706 18 q 618 0 669 0 l 213 0 q 103 110 103 0 l 103 754 q 213 864 103 864 l 618 864 q 706 846 669 864 l 706 864 l 1278 864 l 1278 782 l 875 782 l 875 483 l 1228 483 l 1228 401 l 875 401 l 875 82 z "},"œ":{"ha":1367,"x_min":93,"x_max":1288,"o":"m 796 386 l 1079 386 l 1079 549 q 1072 583 1079 575 q 1036 592 1064 592 l 839 592 q 803 583 811 592 q 796 549 796 575 l 796 386 m 581 124 l 581 550 q 571 583 581 574 q 536 592 561 592 l 351 592 q 317 583 325 592 q 308 549 308 575 l 308 125 q 317 90 308 97 q 351 82 325 82 l 536 82 q 571 90 561 82 q 581 124 581 99 m 800 674 l 1178 674 q 1288 564 1288 674 l 1288 304 l 796 304 l 796 125 q 803 90 796 97 q 839 82 811 82 l 1033 82 q 1069 90 1061 82 q 1076 125 1076 97 l 1076 207 l 1286 207 l 1286 110 q 1176 0 1286 0 l 799 0 q 713 13 738 0 q 681 51 689 25 q 551 0 664 0 l 203 0 q 93 110 93 0 l 93 564 q 203 674 93 674 l 551 674 q 682 622 665 674 q 715 661 690 649 q 800 674 739 674 z "},"Ŕ":{"ha":978,"x_min":111,"x_max":907,"o":"m 807 1133 l 572 928 l 389 928 l 581 1133 l 807 1133 m 336 782 l 336 392 l 622 392 q 658 400 650 392 q 665 435 665 408 l 665 739 q 658 774 665 767 q 622 782 650 782 l 336 782 m 336 310 l 336 0 l 111 0 l 111 864 l 779 864 q 889 754 889 864 l 889 419 q 779 310 889 310 l 711 310 l 907 0 l 674 0 l 488 310 l 336 310 z "},"ŕ":{"ha":575,"x_min":103,"x_max":689,"o":"m 689 946 l 454 740 l 271 740 l 463 946 l 689 946 m 318 674 l 318 592 q 457 675 346 675 l 563 675 l 563 583 l 417 583 q 318 478 318 583 l 318 0 l 103 0 l 103 674 l 318 674 z "},"Ŗ":{"ha":978,"x_min":111,"x_max":907,"o":"m 381 -349 l 381 -67 l 600 -67 l 600 -153 l 450 -349 l 381 -349 m 336 782 l 336 392 l 622 392 q 658 400 650 392 q 665 435 665 408 l 665 739 q 658 774 665 767 q 622 782 650 782 l 336 782 m 336 310 l 336 0 l 111 0 l 111 864 l 779 864 q 889 754 889 864 l 889 419 q 779 310 889 310 l 711 310 l 907 0 l 674 0 l 488 310 l 336 310 z "},"ŗ":{"ha":575,"x_min":99,"x_max":563,"o":"m 99 -349 l 99 -67 l 318 -67 l 318 -153 l 168 -349 l 99 -349 m 457 675 l 563 675 l 563 583 l 417 583 q 318 478 318 583 l 318 0 l 103 0 l 103 674 l 318 674 l 318 592 q 457 675 346 675 z "},"Ř":{"ha":978,"x_min":111,"x_max":907,"o":"m 596 928 l 385 928 l 142 1138 l 356 1138 l 490 1008 l 625 1138 l 840 1138 l 596 928 m 336 782 l 336 392 l 622 392 q 658 400 650 392 q 665 435 665 408 l 665 739 q 658 774 665 767 q 622 782 650 782 l 336 782 m 336 310 l 336 0 l 111 0 l 111 864 l 779 864 q 889 754 889 864 l 889 419 q 779 310 889 310 l 711 310 l 907 0 l 674 0 l 488 310 l 336 310 z "},"ř":{"ha":575,"x_min":-10,"x_max":689,"o":"m 444 740 l 233 740 l -10 950 l 204 950 l 339 821 l 474 950 l 689 950 l 444 740 m 318 674 l 318 592 q 457 675 346 675 l 563 675 l 563 583 l 417 583 q 318 478 318 583 l 318 0 l 103 0 l 103 674 l 318 674 z "},"Ś":{"ha":928,"x_min":88,"x_max":839,"o":"m 389 928 l 581 1133 l 807 1133 l 572 928 l 389 928 m 615 125 l 615 351 q 608 386 615 378 q 572 394 600 394 l 197 394 q 88 504 88 394 l 88 754 q 197 864 88 864 l 725 864 q 835 754 835 864 l 835 600 l 611 600 l 611 739 q 603 774 611 767 q 568 782 594 782 l 356 782 q 320 774 328 782 q 313 739 313 767 l 313 519 q 320 484 313 492 q 356 476 328 476 l 729 476 q 839 367 839 476 l 839 110 q 729 0 839 0 l 201 0 q 92 110 92 0 l 92 264 l 315 264 l 315 125 q 323 90 315 97 q 358 82 331 82 l 572 82 q 608 90 600 82 q 615 125 615 97 z "},"ś":{"ha":832,"x_min":83,"x_max":768,"o":"m 350 739 l 542 944 l 768 944 l 533 739 l 350 739 m 543 124 l 543 251 q 535 286 543 278 q 500 294 528 294 l 193 294 q 83 404 83 294 l 83 564 q 193 674 83 674 l 639 674 q 749 564 749 674 l 749 472 l 540 472 l 540 550 q 533 585 540 578 q 497 593 525 593 l 340 593 q 306 585 314 593 q 297 550 297 578 l 297 419 q 306 384 297 392 q 340 376 314 376 l 647 376 q 757 267 757 376 l 757 110 q 647 0 757 0 l 197 0 q 88 110 88 0 l 88 201 l 297 201 l 297 124 q 306 89 297 97 q 340 81 314 81 l 500 81 q 535 89 528 81 q 543 124 543 97 z "},"Ş":{"ha":928,"x_min":88,"x_max":839,"o":"m 615 125 l 615 351 q 608 386 615 378 q 572 394 600 394 l 197 394 q 88 504 88 394 l 88 754 q 197 864 88 864 l 725 864 q 835 754 835 864 l 835 600 l 611 600 l 611 739 q 603 774 611 767 q 568 782 594 782 l 356 782 q 320 774 328 782 q 313 739 313 767 l 313 519 q 320 484 313 492 q 356 476 328 476 l 729 476 q 839 367 839 476 l 839 110 q 729 0 839 0 l 201 0 q 92 110 92 0 l 92 264 l 315 264 l 315 125 q 323 90 315 97 q 358 82 331 82 l 572 82 q 608 90 600 82 q 615 125 615 97 m 350 -349 l 350 -67 l 569 -67 l 569 -153 l 419 -349 l 350 -349 z "},"ş":{"ha":832,"x_min":83,"x_max":757,"o":"m 543 124 l 543 251 q 535 286 543 278 q 500 294 528 294 l 193 294 q 83 404 83 294 l 83 564 q 193 674 83 674 l 639 674 q 749 564 749 674 l 749 472 l 540 472 l 540 550 q 533 585 540 578 q 497 593 525 593 l 340 593 q 306 585 314 593 q 297 550 297 578 l 297 419 q 306 384 297 392 q 340 376 314 376 l 647 376 q 757 267 757 376 l 757 110 q 647 0 757 0 l 197 0 q 88 110 88 0 l 88 201 l 297 201 l 297 124 q 306 89 297 97 q 340 81 314 81 l 500 81 q 535 89 528 81 q 543 124 543 97 m 306 -349 l 306 -67 l 525 -67 l 525 -153 l 375 -349 l 306 -349 z "},"Š":{"ha":928,"x_min":88,"x_max":839,"o":"m 363 928 l 119 1138 l 333 1138 l 468 1008 l 603 1138 l 818 1138 l 574 928 l 363 928 m 615 125 l 615 351 q 608 386 615 378 q 572 394 600 394 l 197 394 q 88 504 88 394 l 88 754 q 197 864 88 864 l 725 864 q 835 754 835 864 l 835 600 l 611 600 l 611 739 q 603 774 611 767 q 568 782 594 782 l 356 782 q 320 774 328 782 q 313 739 313 767 l 313 519 q 320 484 313 492 q 356 476 328 476 l 729 476 q 839 367 839 476 l 839 110 q 729 0 839 0 l 201 0 q 92 110 92 0 l 92 264 l 315 264 l 315 125 q 323 90 315 97 q 358 82 331 82 l 572 82 q 608 90 600 82 q 615 125 615 97 z "},"š":{"ha":832,"x_min":76,"x_max":775,"o":"m 319 739 l 76 949 l 290 949 l 425 819 l 560 949 l 775 949 l 531 739 l 319 739 m 543 124 l 543 251 q 535 286 543 278 q 500 294 528 294 l 193 294 q 83 404 83 294 l 83 564 q 193 674 83 674 l 639 674 q 749 564 749 674 l 749 472 l 540 472 l 540 550 q 533 585 540 578 q 497 593 525 593 l 340 593 q 306 585 314 593 q 297 550 297 578 l 297 419 q 306 384 297 392 q 340 376 314 376 l 647 376 q 757 267 757 376 l 757 110 q 647 0 757 0 l 197 0 q 88 110 88 0 l 88 201 l 297 201 l 297 124 q 306 89 297 97 q 340 81 314 81 l 500 81 q 535 89 528 81 q 543 124 543 97 z "},"Ţ":{"ha":813,"x_min":13,"x_max":800,"o":"m 292 -349 l 292 -67 l 511 -67 l 511 -153 l 361 -349 l 292 -349 m 800 864 l 800 782 l 517 782 l 517 0 l 293 0 l 293 782 l 13 782 l 13 864 l 800 864 z "},"ţ":{"ha":813,"x_min":13,"x_max":800,"o":"m 292 -349 l 292 -67 l 511 -67 l 511 -153 l 361 -349 l 292 -349 m 800 864 l 800 782 l 517 782 l 517 0 l 293 0 l 293 782 l 13 782 l 13 864 l 800 864 z "},"Ť":{"ha":813,"x_min":13,"x_max":800,"o":"m 511 928 l 300 928 l 57 1138 l 271 1138 l 406 1008 l 540 1138 l 756 1138 l 511 928 m 800 864 l 800 782 l 517 782 l 517 0 l 293 0 l 293 782 l 13 782 l 13 864 l 800 864 z "},"ť":{"ha":546,"x_min":35,"x_max":615,"o":"m 358 817 l 358 674 l 507 674 l 507 592 l 358 592 l 358 129 q 367 94 358 103 q 401 86 375 86 l 506 86 l 506 0 l 253 0 q 143 110 143 0 l 143 592 l 35 592 l 35 674 l 143 674 l 143 817 l 358 817 m 440 1014 l 615 1014 l 615 933 l 499 767 l 440 767 l 440 1014 z "},"Ū":{"ha":982,"x_min":103,"x_max":876,"o":"m 328 864 l 328 125 q 336 90 328 97 q 371 82 344 82 l 610 82 q 644 90 636 82 q 653 125 653 97 l 653 864 l 876 864 l 876 110 q 767 0 876 0 l 213 0 q 103 110 103 0 l 103 864 l 328 864 m 186 929 l 186 1010 l 792 1010 l 792 929 l 186 929 z "},"ū":{"ha":904,"x_min":93,"x_max":801,"o":"m 749 826 l 749 746 l 143 746 l 143 826 l 749 826 m 588 674 l 801 674 l 801 0 l 588 0 l 588 46 q 508 0 571 0 l 203 0 q 93 110 93 0 l 93 674 l 307 674 l 307 125 q 315 90 307 97 q 350 82 322 82 l 538 82 q 588 126 588 82 l 588 674 z "},"Ů":{"ha":982,"x_min":103,"x_max":876,"o":"m 742 1079 l 742 1029 q 642 931 742 931 l 350 931 q 250 1029 250 931 l 250 1079 q 350 1179 250 1179 l 642 1179 q 742 1079 742 1179 m 601 1043 l 601 1065 q 594 1098 601 1090 q 561 1106 588 1106 l 431 1106 q 397 1098 404 1106 q 390 1065 390 1090 l 390 1043 q 397 1010 390 1018 q 431 1003 404 1003 l 561 1003 q 594 1010 588 1003 q 601 1043 601 1018 m 328 864 l 328 125 q 336 90 328 97 q 371 82 344 82 l 610 82 q 644 90 636 82 q 653 125 653 97 l 653 864 l 876 864 l 876 110 q 767 0 876 0 l 213 0 q 103 110 103 0 l 103 864 l 328 864 z "},"ů":{"ha":904,"x_min":93,"x_max":801,"o":"m 342 872 l 342 850 q 349 817 342 825 q 382 810 356 810 l 513 810 q 546 817 539 810 q 553 850 553 825 l 553 872 q 546 905 553 897 q 513 913 539 913 l 382 913 q 349 905 356 913 q 342 872 342 897 m 593 738 l 301 738 q 201 836 201 738 l 201 886 q 301 986 201 986 l 593 986 q 693 886 693 986 l 693 836 q 593 738 693 738 m 588 674 l 801 674 l 801 0 l 588 0 l 588 46 q 508 0 571 0 l 203 0 q 93 110 93 0 l 93 674 l 307 674 l 307 125 q 315 90 307 97 q 350 82 322 82 l 538 82 q 588 126 588 82 l 588 674 z "},"Ű":{"ha":963,"x_min":104,"x_max":986,"o":"m 328 864 l 328 125 q 336 90 328 97 q 371 82 344 82 l 611 82 q 647 90 639 82 q 654 125 654 97 l 654 864 l 876 864 l 876 110 q 767 0 876 0 l 214 0 q 104 110 104 0 l 104 864 l 328 864 m 781 1149 l 986 1149 l 738 926 l 575 926 l 781 1149 m 454 1149 l 660 1149 l 417 926 l 254 926 l 454 1149 z "},"ű":{"ha":904,"x_min":92,"x_max":939,"o":"m 690 740 l 528 740 l 733 961 l 939 961 l 690 740 m 611 961 l 369 740 l 207 740 l 406 961 l 611 961 m 586 674 l 801 674 l 801 0 l 586 0 l 586 42 q 508 0 569 0 l 201 0 q 92 110 92 0 l 92 674 l 307 674 l 307 125 q 315 90 307 97 q 350 82 322 82 l 536 82 q 586 126 586 82 l 586 674 z "},"Ų":{"ha":982,"x_min":103,"x_max":876,"o":"m 653 864 l 876 864 l 876 110 q 767 0 876 0 l 594 0 l 594 -124 l 401 -124 q 365 -132 374 -124 q 357 -167 357 -140 l 357 -219 q 365 -253 357 -246 q 401 -261 374 -261 l 625 -261 l 625 -339 l 308 -339 q 199 -229 199 -339 l 199 -157 q 308 -47 199 -47 l 382 -47 l 382 0 l 213 0 q 103 110 103 0 l 103 864 l 328 864 l 328 125 q 336 90 328 97 q 371 82 344 82 l 610 82 q 644 90 636 82 q 653 125 653 97 l 653 864 z "},"ų":{"ha":904,"x_min":93,"x_max":829,"o":"m 606 -261 l 829 -261 l 829 -339 l 513 -339 q 403 -229 403 -339 l 403 -157 q 513 -47 403 -47 l 586 -47 l 586 18 l 588 18 l 588 46 q 508 0 571 0 l 203 0 q 93 110 93 0 l 93 674 l 307 674 l 307 125 q 315 90 307 97 q 350 82 322 82 l 538 82 q 588 126 588 82 l 588 674 l 801 674 l 801 0 l 799 0 l 799 -124 l 606 -124 q 569 -132 578 -124 q 561 -167 561 -140 l 561 -219 q 569 -253 561 -246 q 606 -261 578 -261 z "},"Ÿ":{"ha":942,"x_min":8,"x_max":933,"o":"m 401 1081 l 401 929 l 158 929 l 158 1081 l 401 1081 m 799 1081 l 799 929 l 556 929 l 556 1081 l 799 1081 m 592 0 l 368 0 l 368 283 l 8 864 l 231 864 l 478 414 l 713 864 l 933 864 l 592 285 l 592 0 z "},"Ź":{"ha":889,"x_min":64,"x_max":825,"o":"m 792 1135 l 557 929 l 374 929 l 565 1135 l 792 1135 m 825 864 l 825 782 l 318 82 l 811 82 l 811 0 l 64 0 l 64 82 l 569 782 l 83 782 l 83 864 l 825 864 z "},"ź":{"ha":733,"x_min":54,"x_max":726,"o":"m 726 946 l 492 740 l 308 740 l 500 946 l 726 946 m 678 82 l 678 0 l 54 0 l 54 82 l 439 592 l 75 592 l 75 674 l 669 674 l 669 592 l 281 82 l 678 82 z "},"Ż":{"ha":889,"x_min":64,"x_max":825,"o":"m 585 1086 l 585 929 l 354 929 l 354 1086 l 585 1086 m 825 864 l 825 782 l 318 82 l 811 82 l 811 0 l 64 0 l 64 82 l 569 782 l 83 782 l 83 864 l 825 864 z "},"ż":{"ha":733,"x_min":54,"x_max":678,"o":"m 500 896 l 500 739 l 269 739 l 269 896 l 500 896 m 678 82 l 678 0 l 54 0 l 54 82 l 439 592 l 75 592 l 75 674 l 669 674 l 669 592 l 281 82 l 678 82 z "},"Ž":{"ha":889,"x_min":64,"x_max":825,"o":"m 569 929 l 358 929 l 115 1139 l 329 1139 l 464 1010 l 599 1139 l 814 1139 l 569 929 m 825 864 l 825 782 l 318 82 l 811 82 l 811 0 l 64 0 l 64 82 l 569 782 l 83 782 l 83 864 l 825 864 z "},"ž":{"ha":733,"x_min":33,"x_max":732,"o":"m 488 739 l 276 739 l 33 949 l 247 949 l 382 819 l 517 949 l 732 949 l 488 739 m 678 82 l 678 0 l 54 0 l 54 82 l 439 592 l 75 592 l 75 674 l 669 674 l 669 592 l 281 82 l 678 82 z "},"ƒ":{"ha":729,"x_min":31,"x_max":685,"o":"m 685 829 l 600 829 q 556 818 568 829 q 538 775 543 807 l 521 674 l 669 674 l 669 592 l 507 592 l 397 -58 q 342 -162 385 -128 q 199 -196 299 -196 l 31 -196 l 31 -111 l 114 -111 q 158 -100 146 -111 q 178 -56 171 -89 l 286 592 l 156 592 l 156 674 l 300 674 l 317 776 q 372 881 329 847 q 515 915 415 915 l 685 915 l 685 829 z "},"Ș":{"ha":928,"x_min":88,"x_max":839,"o":"m 615 125 l 615 351 q 608 386 615 378 q 572 394 600 394 l 197 394 q 88 504 88 394 l 88 754 q 197 864 88 864 l 725 864 q 835 754 835 864 l 835 600 l 611 600 l 611 739 q 603 774 611 767 q 568 782 594 782 l 356 782 q 320 774 328 782 q 313 739 313 767 l 313 519 q 320 484 313 492 q 356 476 328 476 l 729 476 q 839 367 839 476 l 839 110 q 729 0 839 0 l 201 0 q 92 110 92 0 l 92 264 l 315 264 l 315 125 q 323 90 315 97 q 358 82 331 82 l 572 82 q 608 90 600 82 q 615 125 615 97 m 349 -349 l 349 -67 l 568 -67 l 568 -153 l 418 -349 l 349 -349 z "},"ș":{"ha":832,"x_min":83,"x_max":757,"o":"m 543 124 l 543 251 q 535 286 543 278 q 500 294 528 294 l 193 294 q 83 404 83 294 l 83 564 q 193 674 83 674 l 639 674 q 749 564 749 674 l 749 472 l 540 472 l 540 550 q 533 585 540 578 q 497 593 525 593 l 340 593 q 306 585 314 593 q 297 550 297 578 l 297 419 q 306 384 297 392 q 340 376 314 376 l 647 376 q 757 267 757 376 l 757 110 q 647 0 757 0 l 197 0 q 88 110 88 0 l 88 201 l 297 201 l 297 124 q 306 89 297 97 q 340 81 314 81 l 500 81 q 535 89 528 81 q 543 124 543 97 m 297 -349 l 297 -67 l 517 -67 l 517 -153 l 367 -349 l 297 -349 z "},"Ț":{"ha":813,"x_min":13,"x_max":800,"o":"m 296 -349 l 296 -67 l 515 -67 l 515 -153 l 365 -349 l 296 -349 m 800 864 l 800 782 l 517 782 l 517 0 l 293 0 l 293 782 l 13 782 l 13 864 l 800 864 z "},"ț":{"ha":546,"x_min":35,"x_max":507,"o":"m 158 -349 l 158 -67 l 378 -67 l 378 -153 l 228 -349 l 158 -349 m 507 592 l 358 592 l 358 129 q 367 94 358 103 q 401 86 375 86 l 506 86 l 506 0 l 253 0 q 143 110 143 0 l 143 592 l 35 592 l 35 674 l 143 674 l 143 817 l 358 817 l 358 674 l 507 674 l 507 592 z "},"ˆ":{"ha":899,"x_min":100,"x_max":799,"o":"m 100 703 l 343 914 l 554 914 l 799 703 l 583 703 l 449 832 l 314 703 l 100 703 z "},"ˇ":{"ha":899,"x_min":100,"x_max":799,"o":"m 343 697 l 100 907 l 314 907 l 449 778 l 583 907 l 799 907 l 554 697 l 343 697 z "},"ˉ":{"ha":768,"x_min":111,"x_max":656,"o":"m 111 764 l 111 844 l 656 844 l 656 764 l 111 764 z "},"˘":{"ha":899,"x_min":125,"x_max":772,"o":"m 581 906 l 772 906 l 772 818 q 663 708 772 708 l 235 708 q 125 818 125 708 l 125 906 l 317 906 l 317 832 q 325 797 317 806 q 360 789 333 789 l 538 789 q 572 797 564 789 q 581 832 581 806 l 581 906 z "},"˙":{"ha":899,"x_min":336,"x_max":567,"o":"m 336 731 l 336 888 l 567 888 l 567 731 l 336 731 z "},"˚":{"ha":899,"x_min":203,"x_max":694,"o":"m 694 844 l 694 794 q 594 696 694 696 l 303 696 q 203 794 203 696 l 203 844 q 303 944 203 944 l 594 944 q 694 844 694 944 m 554 808 l 554 831 q 547 863 554 856 q 514 871 540 871 l 383 871 q 350 863 357 871 q 343 831 343 856 l 343 808 q 350 776 343 783 q 383 768 357 768 l 514 768 q 547 776 540 768 q 554 808 554 783 z "},"˛":{"ha":899,"x_min":235,"x_max":661,"o":"m 438 -261 l 661 -261 l 661 -339 l 344 -339 q 235 -229 235 -339 l 235 -157 q 344 -47 235 -47 l 418 -47 l 418 18 l 631 18 l 631 -124 l 438 -124 q 401 -132 410 -124 q 393 -167 393 -140 l 393 -219 q 401 -253 393 -246 q 438 -261 410 -261 z "},"˜":{"ha":899,"x_min":118,"x_max":779,"o":"m 608 719 q 449 773 554 719 q 318 826 343 826 q 293 797 293 826 l 293 719 l 118 719 l 118 806 q 224 914 118 914 l 289 914 q 449 860 343 914 q 578 807 556 807 q 606 838 606 807 l 606 914 l 779 914 l 779 828 q 676 719 779 719 l 608 719 z "},"˝":{"ha":899,"x_min":111,"x_max":843,"o":"m 638 924 l 843 924 l 594 703 l 432 703 l 638 924 m 311 924 l 517 924 l 274 703 l 111 703 l 311 924 z "},"π":{"ha":1163,"x_min":74,"x_max":1104,"o":"m 1104 674 l 1104 592 l 950 592 l 950 0 l 736 0 l 736 592 l 433 592 l 433 110 q 324 0 433 0 l 82 0 l 82 86 l 175 86 q 210 94 203 86 q 218 129 218 103 l 218 592 l 74 592 l 74 674 l 1104 674 z "},"ँ":{"ha":0,"x_min":-575,"x_max":186,"o":"m -471 951 q -551 978 -526 951 q -575 1060 -575 1006 l -575 1183 l -381 1183 l -381 1078 q -372 1042 -381 1051 q -336 1033 -362 1033 l -53 1033 q -17 1042 -26 1033 q -8 1078 -8 1051 l -8 1183 l 186 1183 l 186 1060 q 162 978 186 1006 q 83 951 138 951 l -471 951 m -267 1122 l -267 1257 l -124 1257 l -124 1122 l -267 1122 z "},"ं":{"ha":0,"x_min":-372,"x_max":-144,"o":"m -372 954 l -372 1118 l -144 1118 l -144 954 l -372 954 z "},"ः":{"ha":558,"x_min":206,"x_max":425,"o":"m 206 583 l 206 774 l 425 774 l 425 583 l 206 583 m 206 113 l 206 303 l 425 303 l 425 113 l 206 113 z "},"अ":{"ha":1493,"x_min":97,"x_max":1521,"o":"m 1521 864 l 1521 782 l 1351 782 l 1351 0 l 1119 0 l 1119 413 l 883 413 l 883 215 q 776 108 883 108 l 204 108 q 97 215 97 108 l 97 351 l 329 351 l 329 235 q 338 199 329 208 q 374 190 347 190 l 607 190 q 642 199 633 190 q 651 235 651 208 l 651 396 q 641 433 651 422 q 604 443 631 443 l 411 443 l 411 525 l 604 525 q 641 535 631 525 q 651 572 651 544 l 651 738 q 642 773 651 764 q 607 782 633 782 l 374 782 q 338 773 347 782 q 329 738 329 764 l 329 621 l 97 621 l 97 757 q 204 864 97 864 l 776 864 q 883 757 883 864 l 883 585 q 806 500 883 504 l 806 494 l 1119 494 l 1119 864 l 1521 864 z "},"आ":{"ha":1993,"x_min":97,"x_max":2021,"o":"m 2021 864 l 2021 782 l 1851 782 l 1851 0 l 1619 0 l 1619 782 l 1351 782 l 1351 0 l 1119 0 l 1119 413 l 883 413 l 883 215 q 776 108 883 108 l 204 108 q 97 215 97 108 l 97 351 l 329 351 l 329 235 q 338 199 329 208 q 374 190 347 190 l 607 190 q 642 199 633 190 q 651 235 651 208 l 651 396 q 641 433 651 422 q 604 443 631 443 l 411 443 l 411 525 l 604 525 q 641 535 631 525 q 651 572 651 544 l 651 738 q 642 773 651 764 q 607 782 633 782 l 374 782 q 338 773 347 782 q 329 738 329 764 l 329 621 l 97 621 l 97 757 q 204 864 97 864 l 776 864 q 883 757 883 864 l 883 585 q 806 500 883 504 l 806 494 l 1119 494 l 1119 864 l 2021 864 z "},"इ":{"ha":1029,"x_min":-28,"x_max":1057,"o":"m 906 592 l 386 592 q 350 583 358 592 q 342 547 342 575 l 342 494 q 350 458 342 467 q 386 450 358 450 l 818 450 q 925 343 925 450 l 925 215 q 818 108 925 108 l 356 108 l 356 0 l 115 0 l 115 264 l 356 264 l 356 190 l 649 190 q 684 199 675 190 q 693 235 693 208 l 693 324 q 684 359 693 350 q 649 368 675 368 l 217 368 q 110 475 110 368 l 110 567 q 217 674 110 674 l 674 674 l 674 782 l -28 782 l -28 864 l 1057 864 l 1057 782 l 906 782 l 906 592 z "},"ई":{"ha":1031,"x_min":-26,"x_max":1058,"o":"m 907 592 l 388 592 q 352 583 361 592 q 343 547 343 575 l 343 494 q 352 458 343 467 q 388 450 361 450 l 819 450 q 926 343 926 450 l 926 215 q 819 108 926 108 l 357 108 l 357 0 l 117 0 l 117 264 l 357 264 l 357 190 l 650 190 q 686 199 678 190 q 694 235 694 208 l 694 324 q 686 359 694 350 q 650 368 678 368 l 218 368 q 111 475 111 368 l 111 567 q 218 674 111 674 l 675 674 l 675 782 l -26 782 l -26 864 l 635 864 l 635 1050 q 742 1157 635 1157 l 1035 1157 l 1035 1075 l 911 1075 q 876 1066 885 1075 q 867 1031 867 1057 l 867 864 l 1058 864 l 1058 782 l 907 782 l 907 592 z "},"उ":{"ha":999,"x_min":-28,"x_max":1026,"o":"m 1026 864 l 1026 782 l 839 782 q 856 736 856 769 l 856 558 q 778 475 856 476 l 778 469 q 856 386 856 468 l 856 107 q 749 0 856 0 l 185 0 q 78 107 78 0 l 78 286 l 308 286 l 308 126 q 318 91 308 100 q 354 82 328 82 l 579 82 q 615 91 606 82 q 625 126 625 100 l 625 386 q 616 422 625 413 q 579 431 607 431 l 396 431 l 396 513 l 579 513 q 615 522 606 513 q 625 558 625 531 l 625 738 q 616 773 625 764 q 579 782 607 782 l -28 782 l -28 864 l 1026 864 z "},"ऊ":{"ha":1474,"x_min":-26,"x_max":1501,"o":"m 1501 864 l 1501 782 l 846 782 q 863 736 863 769 l 863 561 q 785 476 863 481 l 785 472 q 801 471 796 472 l 1292 471 q 1399 364 1399 471 l 1399 107 q 1292 0 1399 0 l 928 0 l 928 82 l 1122 82 q 1158 91 1149 82 q 1168 126 1168 100 l 1168 344 q 1158 380 1168 371 q 1122 389 1149 389 l 863 389 l 863 107 q 756 0 863 0 l 192 0 q 85 107 85 0 l 85 286 l 315 286 l 315 126 q 325 91 315 100 q 361 82 335 82 l 586 82 q 622 91 613 82 q 632 126 632 100 l 632 386 q 623 422 632 413 q 586 431 614 431 l 403 431 l 403 513 l 586 513 q 623 522 614 513 q 632 558 632 531 l 632 738 q 623 773 632 764 q 586 782 614 782 l -26 782 l -26 864 l 1501 864 z "},"ऋ":{"ha":1900,"x_min":-28,"x_max":1928,"o":"m 1310 546 l 1310 403 q 1319 369 1310 379 q 1351 358 1329 358 l 1536 358 q 1566 368 1557 358 q 1575 403 1575 378 l 1575 546 q 1566 582 1575 572 q 1531 592 1557 592 l 1354 592 q 1319 582 1328 592 q 1310 546 1310 572 m 936 782 l 936 358 l 1108 358 q 1083 436 1083 375 l 1083 567 q 1190 674 1083 674 l 1688 674 q 1794 567 1794 674 l 1794 428 q 1781 354 1794 376 q 1736 328 1767 332 l 1736 322 q 1781 299 1767 317 q 1794 239 1794 282 l 1794 107 q 1686 0 1794 0 l 1186 0 q 1086 107 1086 0 l 1086 188 l 1314 188 l 1314 122 q 1323 90 1314 97 q 1358 82 1332 82 l 1532 82 q 1566 92 1558 82 q 1574 128 1574 101 l 1574 232 q 1565 267 1574 258 q 1531 275 1556 275 l 936 275 l 936 0 l 706 0 l 706 275 l 626 275 l 338 0 l 68 0 l 413 326 l 260 513 q 180 574 219 558 q 81 589 140 589 l 46 589 l 46 674 l 214 674 q 358 655 307 674 q 458 578 408 636 l 639 358 l 706 358 l 706 782 l -28 782 l -28 864 l 1928 864 l 1928 782 l 936 782 z "},"ऌ":{"ha":1560,"x_min":-28,"x_max":1588,"o":"m 1419 47 l 1138 47 q 1101 37 1111 47 q 1090 1 1090 26 l 1090 -119 q 1101 -155 1090 -144 q 1138 -165 1111 -165 l 1460 -165 l 1460 -247 l 974 -247 q 894 -223 918 -247 q 869 -143 869 -199 l 869 25 q 894 105 869 81 q 974 129 918 129 l 1188 129 l 1188 592 l 931 592 q 894 583 904 592 q 885 547 885 574 l 885 258 l 654 258 l 654 547 q 644 583 654 574 q 608 592 635 592 l 397 592 q 362 583 371 592 q 353 547 353 574 l 353 126 q 362 91 353 100 q 397 82 371 82 l 651 82 l 651 0 l 228 0 q 121 107 121 0 l 121 567 q 228 674 121 674 l 676 674 q 743 657 722 674 q 767 601 764 640 l 772 601 q 795 656 776 639 q 854 674 814 674 l 1188 674 l 1188 782 l -28 782 l -28 864 l 1588 864 l 1588 782 l 1419 782 l 1419 47 z "},"ऍ":{"ha":1081,"x_min":-28,"x_max":1108,"o":"m 832 951 l 276 951 q 169 1058 169 951 l 169 1183 l 390 1183 l 390 1078 q 399 1042 390 1051 q 435 1033 408 1033 l 674 1033 q 709 1042 700 1033 q 718 1078 718 1051 l 718 1183 l 939 1183 l 939 1058 q 832 951 939 951 m 1108 864 l 1108 782 l 963 782 l 963 501 q 854 394 963 394 l 546 394 l 546 476 l 685 476 q 721 485 711 476 q 731 521 731 494 l 731 782 l 374 782 l 374 126 q 383 91 374 100 q 418 82 392 82 l 678 82 q 714 91 704 82 q 724 126 724 100 l 724 272 l 956 272 l 956 107 q 847 0 956 0 l 249 0 q 142 107 142 0 l 142 782 l -28 782 l -28 864 l 1108 864 z "},"ऎ":{"ha":1081,"x_min":-28,"x_max":1108,"o":"m 1108 864 l 1108 782 l 963 782 l 963 501 q 854 394 963 394 l 546 394 l 546 476 l 685 476 q 721 485 711 476 q 731 521 731 494 l 731 782 l 374 782 l 374 126 q 383 91 374 100 q 418 82 392 82 l 678 82 q 714 91 704 82 q 724 126 724 100 l 724 272 l 956 272 l 956 107 q 847 0 956 0 l 249 0 q 142 107 142 0 l 142 782 l -28 782 l -28 864 l 731 864 l 731 906 q 722 941 731 932 q 686 950 713 950 l 303 950 q 222 976 247 950 q 197 1057 197 1001 l 197 1153 l 428 1153 l 428 1076 q 438 1041 428 1050 q 474 1032 447 1032 l 856 1032 q 963 925 963 1032 l 963 864 l 1108 864 z "},"ए":{"ha":1081,"x_min":-28,"x_max":1108,"o":"m 1108 864 l 1108 782 l 963 782 l 963 501 q 854 394 963 394 l 546 394 l 546 476 l 685 476 q 721 485 711 476 q 731 521 731 494 l 731 782 l 374 782 l 374 126 q 383 91 374 100 q 418 82 392 82 l 678 82 q 714 91 704 82 q 724 126 724 100 l 724 272 l 956 272 l 956 107 q 847 0 956 0 l 249 0 q 142 107 142 0 l 142 782 l -28 782 l -28 864 l 1108 864 z "},"ऐ":{"ha":1081,"x_min":-28,"x_max":1108,"o":"m 1108 864 l 1108 782 l 963 782 l 963 501 q 854 394 963 394 l 546 394 l 546 476 l 685 476 q 721 485 711 476 q 731 521 731 494 l 731 782 l 374 782 l 374 126 q 383 91 374 100 q 418 82 392 82 l 678 82 q 714 91 704 82 q 724 126 724 100 l 724 272 l 956 272 l 956 107 q 847 0 956 0 l 249 0 q 142 107 142 0 l 142 782 l -28 782 l -28 864 l 739 864 q 589 1008 672 913 l 461 1157 l 713 1157 l 961 864 l 1108 864 z "},"ऑ":{"ha":1985,"x_min":97,"x_max":2013,"o":"m 1763 951 l 1207 951 q 1100 1058 1100 951 l 1100 1183 l 1321 1183 l 1321 1078 q 1330 1042 1321 1051 q 1365 1033 1339 1033 l 1604 1033 q 1640 1042 1631 1033 q 1649 1078 1649 1051 l 1649 1183 l 1869 1183 l 1869 1058 q 1763 951 1869 951 m 2013 864 l 2013 782 l 1843 782 l 1843 0 l 1611 0 l 1611 782 l 1351 782 l 1351 0 l 1119 0 l 1119 413 l 883 413 l 883 215 q 776 108 883 108 l 204 108 q 97 215 97 108 l 97 351 l 329 351 l 329 235 q 338 199 329 208 q 374 190 347 190 l 607 190 q 642 199 633 190 q 651 235 651 208 l 651 396 q 641 433 651 422 q 604 443 631 443 l 411 443 l 411 525 l 604 525 q 641 535 631 525 q 651 572 651 544 l 651 738 q 642 773 651 764 q 607 782 633 782 l 374 782 q 338 773 347 782 q 329 738 329 764 l 329 621 l 97 621 l 97 757 q 204 864 97 864 l 776 864 q 883 757 883 864 l 883 585 q 806 500 883 504 l 806 494 l 1119 494 l 1119 864 l 2013 864 z "},"ऒ":{"ha":1985,"x_min":97,"x_max":2013,"o":"m 2013 864 l 2013 782 l 1843 782 l 1843 0 l 1611 0 l 1611 782 l 1351 782 l 1351 0 l 1119 0 l 1119 413 l 883 413 l 883 215 q 776 108 883 108 l 204 108 q 97 215 97 108 l 97 351 l 329 351 l 329 235 q 338 199 329 208 q 374 190 347 190 l 607 190 q 642 199 633 190 q 651 235 651 208 l 651 396 q 641 433 651 422 q 604 443 631 443 l 411 443 l 411 525 l 604 525 q 641 535 631 525 q 651 572 651 544 l 651 738 q 642 773 651 764 q 607 782 633 782 l 374 782 q 338 773 347 782 q 329 738 329 764 l 329 621 l 97 621 l 97 757 q 204 864 97 864 l 776 864 q 883 757 883 864 l 883 585 q 806 500 883 504 l 806 494 l 1119 494 l 1119 864 l 1611 864 l 1611 906 q 1602 941 1611 932 q 1567 950 1593 950 l 1183 950 q 1103 976 1128 950 q 1078 1057 1078 1001 l 1078 1153 l 1308 1153 l 1308 1076 q 1318 1041 1308 1050 q 1354 1032 1328 1032 l 1736 1032 q 1843 925 1843 1032 l 1843 864 l 2013 864 z "},"ओ":{"ha":1986,"x_min":97,"x_max":2014,"o":"m 2014 864 l 2014 782 l 1844 782 l 1844 0 l 1613 0 l 1613 782 l 1351 782 l 1351 0 l 1119 0 l 1119 413 l 883 413 l 883 215 q 776 108 883 108 l 204 108 q 97 215 97 108 l 97 351 l 329 351 l 329 235 q 338 199 329 208 q 374 190 347 190 l 607 190 q 642 199 633 190 q 651 235 651 208 l 651 396 q 641 433 651 422 q 604 443 631 443 l 411 443 l 411 525 l 604 525 q 641 535 631 525 q 651 572 651 544 l 651 738 q 642 773 651 764 q 607 782 633 782 l 374 782 q 338 773 347 782 q 329 738 329 764 l 329 621 l 97 621 l 97 757 q 204 864 97 864 l 776 864 q 883 757 883 864 l 883 585 q 806 500 883 504 l 806 494 l 1119 494 l 1119 864 l 1622 864 q 1472 1008 1556 913 l 1344 1157 l 1596 1157 l 1844 864 l 2014 864 z "},"औ":{"ha":2032,"x_min":143,"x_max":2058,"o":"m 2058 864 l 2058 782 l 1889 782 l 1889 0 l 1657 0 l 1657 782 l 1397 782 l 1397 0 l 1165 0 l 1165 413 l 929 413 l 929 215 q 822 108 929 108 l 250 108 q 143 215 143 108 l 143 351 l 375 351 l 375 235 q 383 199 375 208 q 419 190 392 190 l 653 190 q 689 199 681 190 q 697 235 697 208 l 697 396 q 688 433 697 422 q 650 443 678 443 l 457 443 l 457 525 l 650 525 q 688 535 678 525 q 697 572 697 544 l 697 738 q 689 773 697 764 q 653 782 681 782 l 419 782 q 383 773 392 782 q 375 738 375 764 l 375 621 l 143 621 l 143 757 q 250 864 143 864 l 822 864 q 929 757 929 864 l 929 585 q 851 500 929 504 l 851 494 l 1165 494 l 1165 864 l 1649 864 q 1519 976 1594 904 l 1328 1157 l 1549 1157 l 1610 1085 q 1768 864 1710 968 l 1778 864 q 1692 1082 1756 907 l 1664 1157 l 1831 1157 l 1888 864 l 2058 864 z "},"क":{"ha":1508,"x_min":-28,"x_max":1536,"o":"m 1536 782 l 869 782 l 869 661 q 914 674 883 674 l 1297 674 q 1404 567 1404 674 l 1404 215 q 1297 108 1404 108 l 939 108 l 939 190 l 1128 190 q 1163 199 1154 190 q 1172 235 1172 208 l 1172 547 q 1163 583 1172 574 q 1128 592 1154 592 l 917 592 q 879 582 889 592 q 869 544 869 572 l 869 0 l 639 0 l 639 121 q 594 108 625 108 l 213 108 q 106 215 106 108 l 106 567 q 213 674 106 674 l 569 674 l 569 592 l 382 592 q 346 583 356 592 q 336 547 336 574 l 336 235 q 346 199 336 208 q 382 190 356 190 l 592 190 q 629 201 619 190 q 639 238 639 211 l 639 782 l -28 782 l -28 864 l 1536 864 l 1536 782 z "},"ख":{"ha":1892,"x_min":-28,"x_max":1919,"o":"m 1919 864 l 1919 782 l 1750 782 l 1750 0 l 1521 0 l 1521 182 q 1474 167 1507 167 l 1083 167 q 976 274 976 167 l 976 525 q 1083 632 976 632 l 1458 632 l 1458 550 l 1231 550 q 1195 541 1204 550 q 1186 506 1186 532 l 1186 292 q 1195 257 1186 267 q 1231 247 1204 247 l 1469 247 q 1509 259 1497 247 q 1521 299 1521 271 l 1521 782 l 818 782 l 818 424 q 792 343 818 368 q 711 318 767 318 l 353 318 l 353 126 q 362 91 353 100 q 397 82 371 82 l 929 82 l 929 0 l 226 0 q 146 26 171 0 q 121 107 121 51 l 121 633 l 353 633 l 353 400 l 546 400 q 581 409 572 400 q 590 444 590 418 l 590 782 l -28 782 l -28 864 l 1919 864 z "},"ग":{"ha":1519,"x_min":-28,"x_max":1547,"o":"m 350 190 l 635 190 q 670 199 661 190 q 679 235 679 208 l 679 510 l 350 510 q 315 501 324 510 q 306 465 306 492 l 306 235 q 315 199 306 208 q 350 190 324 190 m 1547 864 l 1547 782 l 1376 782 l 1376 0 l 1146 0 l 1146 782 l 910 782 l 910 215 q 885 134 910 160 q 804 108 860 108 l 199 108 q 92 215 92 108 l 92 485 q 199 592 92 592 l 679 592 l 679 782 l -28 782 l -28 864 l 1547 864 z "},"घ":{"ha":1225,"x_min":-28,"x_max":1253,"o":"m 851 238 l 851 782 l 399 782 q 363 773 372 782 q 354 738 354 764 l 354 569 q 363 533 354 542 q 399 525 372 525 l 622 525 l 622 443 l 399 443 q 363 434 372 443 q 354 399 354 425 l 354 235 q 363 199 354 208 q 399 190 372 190 l 804 190 q 841 201 831 190 q 851 238 851 211 m 1253 864 l 1253 782 l 1083 782 l 1083 0 l 851 0 l 851 121 q 807 108 836 108 l 229 108 q 122 215 122 108 l 122 396 q 200 481 122 476 l 200 486 q 122 569 122 488 l 122 736 q 140 782 122 769 l -28 782 l -28 864 l 1253 864 z "},"ङ":{"ha":1185,"x_min":-28,"x_max":1213,"o":"m 960 418 l 960 556 l 1119 556 l 1119 418 l 960 418 m -28 864 l 1213 864 l 1213 782 l 857 782 l 857 592 l 388 592 q 351 583 360 592 q 342 547 342 574 l 342 465 q 351 430 342 439 q 388 421 360 421 l 783 421 q 890 314 890 421 l 890 115 q 783 8 890 8 l 221 8 q 140 34 165 8 q 115 115 115 60 l 115 231 l 346 231 l 346 133 q 355 99 346 107 q 392 90 364 90 l 614 90 q 650 99 642 90 q 658 135 658 108 l 658 294 q 650 331 658 322 q 614 339 642 339 l 217 339 q 136 365 161 339 q 111 446 111 390 l 111 567 q 136 648 111 622 q 217 674 161 674 l 626 674 l 626 782 l -28 782 l -28 864 z "},"च":{"ha":1174,"x_min":-28,"x_max":1201,"o":"m 1201 864 l 1201 782 l 1032 782 l 1032 0 l 800 0 l 800 121 q 756 108 786 108 l 254 108 q 147 215 147 108 l 147 546 q 165 592 147 579 l 31 592 l 31 674 l 590 674 l 590 592 l 419 592 q 388 581 396 590 q 379 547 379 572 l 379 235 q 388 199 379 208 q 424 190 397 190 l 753 190 q 790 201 781 190 q 800 238 800 211 l 800 782 l -28 782 l -28 864 l 1201 864 z "},"छ":{"ha":1461,"x_min":-28,"x_max":1489,"o":"m 874 674 l 874 782 l 404 782 q 369 773 378 782 q 360 738 360 764 l 360 515 q 369 480 360 489 q 404 471 378 471 l 568 471 l 568 389 l 404 389 q 369 381 378 389 q 360 344 360 372 l 360 126 q 369 91 360 100 q 404 82 378 82 l 1090 82 q 1126 91 1117 82 q 1136 126 1136 100 l 1136 547 q 1126 583 1136 574 q 1090 592 1117 592 l 885 592 q 849 583 858 592 q 839 547 839 574 l 839 367 q 849 331 839 340 q 885 322 858 322 l 993 322 l 993 240 l 740 240 q 632 347 632 240 l 632 567 q 740 674 632 674 l 874 674 m 1489 782 l 1093 782 l 1093 674 l 1233 674 q 1340 567 1340 674 l 1340 107 q 1233 0 1340 0 l 235 0 q 128 107 128 0 l 128 342 q 147 403 128 383 q 206 425 165 422 l 206 431 q 128 514 128 432 l 128 736 q 144 782 128 769 l -28 782 l -28 864 l 1489 864 l 1489 782 z "},"ज":{"ha":1493,"x_min":-28,"x_max":1521,"o":"m 1521 864 l 1521 782 l 1351 782 l 1351 0 l 1119 0 l 1119 592 l 888 592 l 888 215 q 781 108 888 108 l 228 108 q 121 215 121 108 l 121 674 l 344 674 l 344 235 q 354 199 344 208 q 390 190 364 190 l 618 190 q 653 199 644 190 q 663 235 663 208 l 663 674 l 1119 674 l 1119 782 l -28 782 l -28 864 l 1521 864 z "},"झ":{"ha":1531,"x_min":-28,"x_max":1558,"o":"m 1158 460 l 1158 782 l 911 782 l 911 592 l 393 592 q 356 583 365 592 q 347 547 347 574 l 347 504 q 356 469 347 478 q 393 460 365 460 l 1158 460 m 1558 864 l 1558 782 l 1389 782 l 1389 0 l 1158 0 l 1158 378 l 910 378 q 911 353 911 369 l 911 215 q 886 134 911 160 q 806 108 861 108 l 346 108 l 346 0 l 108 0 l 108 264 l 346 264 l 346 190 l 635 190 q 672 199 663 190 q 681 235 681 208 l 681 332 q 671 368 681 358 q 635 378 661 378 l 224 378 q 115 485 115 378 l 115 567 q 224 674 115 674 l 681 674 l 681 782 l -28 782 l -28 864 l 1558 864 z "},"ञ":{"ha":1457,"x_min":-28,"x_max":1485,"o":"m 1485 864 l 1485 782 l 1315 782 l 1315 0 l 1083 0 l 1083 360 l 850 360 l 850 215 q 825 134 850 160 q 744 108 800 108 l 169 108 q 63 215 63 108 l 63 374 l 294 374 l 294 235 q 303 199 294 208 q 339 190 313 190 l 575 190 q 610 199 601 190 q 619 235 619 208 l 619 547 q 610 583 619 574 q 575 592 601 592 l 306 592 l 306 674 l 744 674 q 825 648 800 674 q 850 567 850 622 l 850 442 l 1083 442 l 1083 782 l -28 782 l -28 864 l 1485 864 z "},"ट":{"ha":1031,"x_min":-28,"x_max":1058,"o":"m 872 592 l 399 592 q 363 583 372 592 q 354 547 354 574 l 354 126 q 363 91 354 100 q 399 82 372 82 l 638 82 q 674 91 664 82 q 683 126 683 100 l 683 339 l 914 339 l 914 107 q 807 0 914 0 l 229 0 q 122 107 122 0 l 122 567 q 229 674 122 674 l 642 674 l 642 782 l -28 782 l -28 864 l 1058 864 l 1058 782 l 872 782 l 872 592 z "},"ठ":{"ha":1064,"x_min":-28,"x_max":1092,"o":"m 718 126 l 718 547 q 708 583 718 574 q 672 592 699 592 l 392 592 q 356 583 365 592 q 347 547 347 574 l 347 126 q 356 91 347 100 q 392 82 365 82 l 672 82 q 708 91 699 82 q 718 126 718 100 m 1092 782 l 647 782 l 647 674 l 836 674 q 917 648 892 674 q 942 567 942 622 l 942 107 q 917 26 942 51 q 836 0 892 0 l 229 0 q 122 107 122 0 l 122 567 q 229 674 122 674 l 415 674 l 415 782 l -28 782 l -28 864 l 1092 864 l 1092 782 z "},"ड":{"ha":1004,"x_min":-28,"x_max":1032,"o":"m 863 592 l 392 592 q 355 583 364 592 q 346 547 346 574 l 346 476 q 355 441 346 450 q 392 432 364 432 l 788 432 q 896 325 896 432 l 896 107 q 788 0 896 0 l 226 0 q 119 107 119 0 l 119 238 l 350 238 l 350 126 q 360 91 350 100 q 396 82 369 82 l 618 82 q 655 91 646 82 q 664 126 664 100 l 664 304 q 654 340 664 331 q 618 350 644 350 l 222 350 q 115 457 115 350 l 115 567 q 222 674 115 674 l 631 674 l 631 782 l -28 782 l -28 864 l 1032 864 l 1032 782 l 863 782 l 863 592 z "},"ढ":{"ha":1064,"x_min":-28,"x_max":1092,"o":"m 875 592 l 399 592 q 363 583 372 592 q 354 547 354 574 l 354 126 q 363 91 354 100 q 399 82 372 82 l 688 82 q 723 91 714 82 q 732 126 732 100 l 732 276 q 723 312 732 303 q 688 321 714 321 l 519 321 l 519 403 l 840 403 q 921 377 896 403 q 946 296 946 351 l 946 107 q 921 26 946 51 q 840 0 896 0 l 229 0 q 122 107 122 0 l 122 567 q 229 674 122 674 l 644 674 l 644 782 l -28 782 l -28 864 l 1092 864 l 1092 782 l 875 782 l 875 592 z "},"ण":{"ha":1513,"x_min":-28,"x_max":1540,"o":"m 664 235 l 664 782 l 340 782 l 340 235 q 349 199 340 208 q 385 190 358 190 l 618 190 q 654 199 644 190 q 664 235 664 208 m 1540 864 l 1540 782 l 1371 782 l 1371 0 l 1140 0 l 1140 782 l 881 782 l 881 215 q 856 134 881 160 q 775 108 831 108 l 229 108 q 122 215 122 108 l 122 782 l -28 782 l -28 864 l 1540 864 z "},"त":{"ha":1097,"x_min":-28,"x_max":1125,"o":"m 1125 864 l 1125 782 l 954 782 l 954 0 l 725 0 l 725 592 l 397 592 q 362 583 371 592 q 353 547 353 574 l 353 126 q 362 91 353 100 q 397 82 371 82 l 531 82 l 531 0 l 228 0 q 121 107 121 0 l 121 567 q 228 674 121 674 l 725 674 l 725 782 l -28 782 l -28 864 l 1125 864 z "},"थ":{"ha":1461,"x_min":121,"x_max":1489,"o":"m 1489 864 l 1489 782 l 1319 782 l 1319 0 l 1088 0 l 1088 121 q 1043 108 1072 108 l 228 108 q 121 215 121 108 l 121 494 l 596 494 q 632 503 622 494 q 642 539 642 513 l 642 738 q 632 773 642 764 q 596 782 622 782 l 400 782 q 364 773 374 782 q 354 738 354 764 l 354 607 l 126 607 l 126 757 q 233 864 126 864 l 763 864 q 869 757 869 864 l 869 519 q 763 413 869 413 l 353 413 l 353 235 q 362 199 353 208 q 397 190 371 190 l 1040 190 q 1077 201 1067 190 q 1088 238 1088 211 l 1088 864 l 1489 864 z "},"द":{"ha":1029,"x_min":-28,"x_max":1057,"o":"m 879 592 l 382 592 q 346 583 356 592 q 336 547 336 574 l 336 235 q 346 199 336 208 q 382 190 356 190 l 614 190 q 651 201 642 190 q 661 238 661 211 l 661 369 l 893 369 l 893 0 l 661 0 l 661 121 q 617 108 647 108 l 213 108 q 106 215 106 108 l 106 567 q 213 674 106 674 l 649 674 l 649 782 l -28 782 l -28 864 l 1057 864 l 1057 782 l 879 782 l 879 592 z "},"ध":{"ha":1407,"x_min":119,"x_max":1435,"o":"m 1435 864 l 1435 782 l 1265 782 l 1265 0 l 1035 0 l 1035 121 q 990 108 1019 108 l 226 108 q 119 215 119 108 l 119 368 q 197 450 119 449 l 197 457 q 119 540 119 458 l 119 757 q 226 864 119 864 l 732 864 q 813 838 788 864 q 838 757 838 813 l 838 592 l 643 592 l 643 738 q 634 773 643 764 q 599 782 625 782 l 396 782 q 360 773 369 782 q 351 738 351 764 l 351 543 q 360 508 351 517 q 396 499 369 499 l 581 499 l 581 417 l 396 417 q 360 408 369 417 q 351 371 351 399 l 351 235 q 360 199 351 208 q 396 190 369 190 l 988 190 q 1024 201 1014 190 q 1035 238 1035 211 l 1035 864 l 1435 864 z "},"न":{"ha":1469,"x_min":-28,"x_max":1497,"o":"m 640 235 l 640 592 l 361 592 q 325 583 335 592 q 315 547 315 574 l 315 235 q 325 199 315 208 q 361 190 335 190 l 594 190 q 631 199 621 190 q 640 235 640 208 m 1497 864 l 1497 782 l 1328 782 l 1328 0 l 1096 0 l 1096 592 l 864 592 l 864 215 q 757 108 864 108 l 199 108 q 92 215 92 108 l 92 567 q 199 674 92 674 l 1096 674 l 1096 782 l -28 782 l -28 864 l 1497 864 z "},"ऩ":{"ha":1469,"x_min":-28,"x_max":1497,"o":"m 394 -146 l 394 18 l 622 18 l 622 -146 l 394 -146 m 640 235 l 640 592 l 361 592 q 325 583 335 592 q 315 547 315 574 l 315 235 q 325 199 315 208 q 361 190 335 190 l 594 190 q 631 199 621 190 q 640 235 640 208 m 1497 864 l 1497 782 l 1328 782 l 1328 0 l 1096 0 l 1096 592 l 864 592 l 864 215 q 757 108 864 108 l 199 108 q 92 215 92 108 l 92 567 q 199 674 92 674 l 1096 674 l 1096 782 l -28 782 l -28 864 l 1497 864 z "},"प":{"ha":1051,"x_min":-28,"x_max":1079,"o":"m 678 238 l 678 782 l 347 782 l 347 235 q 356 199 347 208 q 392 190 365 190 l 631 190 q 668 201 658 190 q 678 238 678 211 m 1079 864 l 1079 782 l 908 782 l 908 0 l 678 0 l 678 121 q 633 108 664 108 l 229 108 q 122 215 122 108 l 122 782 l -28 782 l -28 864 l 1079 864 z "},"फ":{"ha":1550,"x_min":-28,"x_max":1579,"o":"m 678 238 l 678 782 l 347 782 l 347 235 q 356 199 347 208 q 392 190 365 190 l 631 190 q 668 201 658 190 q 678 238 678 211 m 1579 782 l 908 782 l 908 661 q 953 674 922 674 l 1339 674 q 1446 567 1446 674 l 1446 215 q 1339 108 1446 108 l 972 108 l 972 190 l 1169 190 q 1205 199 1196 190 q 1214 235 1214 208 l 1214 547 q 1205 583 1214 574 q 1169 592 1196 592 l 956 592 q 918 582 928 592 q 908 544 908 572 l 908 0 l 678 0 l 678 121 q 633 108 664 108 l 229 108 q 122 215 122 108 l 122 782 l -28 782 l -28 864 l 1579 864 l 1579 782 z "},"ब":{"ha":1143,"x_min":-28,"x_max":1171,"o":"m 379 190 l 722 190 q 747 193 736 190 l 328 529 q 335 379 335 451 l 335 235 q 344 199 335 208 q 379 190 353 190 m 1171 864 l 1171 782 l 1001 782 l 1001 0 l 769 0 l 769 121 q 725 108 756 108 l 213 108 q 106 215 106 108 l 106 567 q 213 674 106 674 l 707 674 l 707 592 l 363 592 l 782 254 q 769 440 769 315 l 769 782 l -28 782 l -28 864 l 1171 864 z "},"भ":{"ha":1508,"x_min":119,"x_max":1536,"o":"m 663 233 l 663 433 l 382 433 q 346 424 356 433 q 336 389 336 415 l 336 233 q 346 199 336 208 q 382 189 356 189 l 617 189 q 653 199 643 189 q 663 233 663 208 m 1536 864 l 1536 782 l 1367 782 l 1367 0 l 1136 0 l 1136 433 l 893 433 l 893 215 q 786 108 893 108 l 226 108 q 119 215 119 108 l 119 408 q 226 515 119 515 l 663 515 l 663 738 q 653 773 663 764 q 617 782 643 782 l 403 782 q 367 773 376 782 q 357 738 357 764 l 357 617 l 126 617 l 126 757 q 233 864 126 864 l 786 864 q 893 757 893 864 l 893 515 l 1136 515 l 1136 864 l 1536 864 z "},"म":{"ha":1510,"x_min":-28,"x_max":1538,"o":"m 1139 674 l 1139 782 l 894 782 l 894 674 l 1139 674 m 663 235 l 663 592 l 383 592 q 347 583 357 592 q 338 547 338 574 l 338 235 q 347 199 338 208 q 383 190 357 190 l 618 190 q 653 199 644 190 q 663 235 663 208 m 1538 864 l 1538 782 l 1368 782 l 1368 0 l 1139 0 l 1139 592 l 894 592 l 894 215 q 788 108 894 108 l 228 108 q 121 215 121 108 l 121 567 q 228 674 121 674 l 663 674 l 663 782 l -28 782 l -28 864 l 1538 864 z "},"य":{"ha":1342,"x_min":-28,"x_max":1369,"o":"m 968 242 l 968 782 l 713 782 q 731 736 731 769 l 731 536 q 624 429 731 429 l 315 429 l 315 235 q 324 199 315 208 q 360 190 333 190 l 915 190 q 957 201 946 190 q 968 242 968 213 m 1369 864 l 1369 782 l 1199 782 l 1199 0 l 968 0 l 968 125 q 919 108 956 108 l 190 108 q 83 215 83 108 l 83 511 l 454 511 q 490 520 481 511 q 499 556 499 529 l 499 738 q 490 773 499 764 q 454 782 481 782 l -28 782 l -28 864 l 1369 864 z "},"र":{"ha":1028,"x_min":-28,"x_max":1056,"o":"m 1056 864 l 1056 782 l 876 782 q 894 736 894 769 l 894 503 q 788 396 894 396 l 353 396 l 353 126 q 362 91 353 100 q 397 82 371 82 l 607 82 q 643 91 633 82 q 653 126 653 100 l 653 293 l 883 293 l 883 107 q 776 0 883 0 l 228 0 q 121 107 121 0 l 121 600 l 353 600 l 353 478 l 618 478 q 653 487 644 478 q 663 522 663 496 l 663 738 q 653 773 663 764 q 618 782 644 782 l -28 782 l -28 864 l 1056 864 z "},"ऱ":{"ha":1028,"x_min":-28,"x_max":1056,"o":"m 178 -254 l 178 -90 l 406 -90 l 406 -254 l 178 -254 m 1056 864 l 1056 782 l 876 782 q 894 736 894 769 l 894 503 q 788 396 894 396 l 353 396 l 353 126 q 362 91 353 100 q 397 82 371 82 l 607 82 q 643 91 633 82 q 653 126 653 100 l 653 293 l 883 293 l 883 107 q 776 0 883 0 l 228 0 q 121 107 121 0 l 121 600 l 353 600 l 353 478 l 618 478 q 653 487 644 478 q 663 522 663 496 l 663 738 q 653 773 663 764 q 618 782 644 782 l -28 782 l -28 864 l 1056 864 z "},"ल":{"ha":1561,"x_min":-28,"x_max":1589,"o":"m 1589 864 l 1589 782 l 1419 782 l 1419 0 l 1188 0 l 1188 592 l 931 592 q 894 583 904 592 q 885 547 885 574 l 885 258 l 654 258 l 654 547 q 644 583 654 574 q 608 592 635 592 l 397 592 q 362 583 371 592 q 353 547 353 574 l 353 126 q 362 91 353 100 q 397 82 371 82 l 651 82 l 651 0 l 228 0 q 121 107 121 0 l 121 567 q 228 674 121 674 l 676 674 q 743 657 722 674 q 767 601 764 640 l 772 601 q 795 656 776 639 q 854 674 814 674 l 1188 674 l 1188 782 l -28 782 l -28 864 l 1589 864 z "},"ळ":{"ha":1457,"x_min":-28,"x_max":1485,"o":"m 1126 235 l 1126 547 q 1117 583 1126 574 q 1081 592 1107 592 l 872 592 q 836 583 846 592 q 826 547 826 574 l 826 235 q 836 199 826 208 q 872 190 846 190 l 1081 190 q 1117 199 1107 190 q 1126 235 1126 208 m 631 235 l 631 547 q 621 583 631 574 q 585 592 611 592 l 375 592 q 340 583 349 592 q 331 547 331 574 l 331 235 q 340 199 331 208 q 375 190 349 190 l 585 190 q 621 199 611 190 q 631 235 631 208 m 1485 782 l 1139 782 l 1139 674 l 1240 674 q 1347 567 1347 674 l 1347 215 q 1240 108 1347 108 l 813 108 q 753 126 771 108 q 732 181 735 143 l 725 181 q 701 125 722 142 q 636 108 681 108 l 217 108 q 110 215 110 108 l 110 567 q 217 674 110 674 l 636 674 q 701 657 681 674 q 725 601 722 640 l 732 601 q 753 656 735 639 q 813 674 771 674 l 907 674 l 907 782 l -28 782 l -28 864 l 1485 864 l 1485 782 z "},"ऴ":{"ha":1457,"x_min":-28,"x_max":1485,"o":"m 369 -146 l 369 18 l 597 18 l 597 -146 l 369 -146 m 1126 235 l 1126 547 q 1117 583 1126 574 q 1081 592 1107 592 l 872 592 q 836 583 846 592 q 826 547 826 574 l 826 235 q 836 199 826 208 q 872 190 846 190 l 1081 190 q 1117 199 1107 190 q 1126 235 1126 208 m 631 235 l 631 547 q 621 583 631 574 q 585 592 611 592 l 375 592 q 340 583 349 592 q 331 547 331 574 l 331 235 q 340 199 331 208 q 375 190 349 190 l 585 190 q 621 199 611 190 q 631 235 631 208 m 1485 782 l 1139 782 l 1139 674 l 1240 674 q 1347 567 1347 674 l 1347 215 q 1240 108 1347 108 l 813 108 q 753 126 771 108 q 732 181 735 143 l 725 181 q 701 125 722 142 q 636 108 681 108 l 217 108 q 110 215 110 108 l 110 567 q 217 674 110 674 l 636 674 q 701 657 681 674 q 725 601 722 640 l 732 601 q 753 656 735 639 q 813 674 771 674 l 907 674 l 907 782 l -28 782 l -28 864 l 1485 864 l 1485 782 z "},"व":{"ha":1056,"x_min":-28,"x_max":1083,"o":"m 1083 864 l 1083 782 l 913 782 l 913 0 l 682 0 l 682 121 q 638 108 667 108 l 219 108 q 113 215 113 108 l 113 567 q 219 674 113 674 l 613 674 l 613 592 l 389 592 q 353 583 363 592 q 344 547 344 574 l 344 235 q 353 199 344 208 q 389 190 363 190 l 635 190 q 672 201 661 190 q 682 238 682 211 l 682 782 l -28 782 l -28 864 l 1083 864 z "},"श":{"ha":1533,"x_min":138,"x_max":1561,"o":"m 249 864 l 806 864 q 886 838 861 864 q 911 757 911 813 l 911 475 q 886 394 911 419 q 806 368 861 368 l 369 368 l 369 126 q 378 91 369 100 q 414 82 388 82 l 631 82 q 666 91 657 82 q 675 126 675 100 l 675 275 l 907 275 l 907 107 q 800 0 907 0 l 244 0 q 138 107 138 0 l 138 518 l 369 518 l 369 450 l 635 450 q 671 459 661 450 q 681 494 681 468 l 681 738 q 671 773 681 764 q 635 782 661 782 l 417 782 q 381 773 390 782 q 372 738 372 764 l 372 622 l 140 622 l 140 757 q 249 864 140 864 m 1561 864 l 1561 782 l 1390 782 l 1390 0 l 1160 0 l 1160 864 l 1561 864 z "},"ष":{"ha":1136,"x_min":-28,"x_max":1164,"o":"m 768 508 l 768 782 l 342 782 l 778 289 q 768 508 768 392 m 397 190 l 719 190 q 760 206 753 190 l 339 682 q 353 490 353 590 l 353 235 q 362 199 353 208 q 397 190 371 190 m 1164 864 l 1164 782 l 994 782 l 994 0 l 767 0 l 767 121 q 722 108 753 108 l 229 108 q 122 215 122 108 l 122 782 l -28 782 l -28 864 l 1164 864 z "},"स":{"ha":1522,"x_min":-28,"x_max":1551,"o":"m 1149 471 l 1149 782 l 882 782 q 900 736 900 769 l 900 496 q 899 471 900 479 l 1149 471 m 1551 864 l 1551 782 l 1381 782 l 1381 0 l 1149 0 l 1149 389 l 354 389 l 354 126 q 363 91 354 100 q 399 82 372 82 l 622 82 q 658 91 649 82 q 667 126 667 100 l 667 297 l 899 297 l 899 107 q 792 0 899 0 l 229 0 q 122 107 122 0 l 122 661 l 354 661 l 354 471 l 624 471 q 659 480 650 471 q 668 515 668 489 l 668 738 q 659 773 668 764 q 624 782 650 782 l -28 782 l -28 864 l 1551 864 z "},"ह":{"ha":1047,"x_min":-28,"x_max":1075,"o":"m 901 592 l 406 592 q 369 583 379 592 q 360 547 360 574 l 360 494 q 369 459 360 468 q 406 450 378 450 l 808 450 q 928 336 928 450 l 928 197 l 708 197 l 708 324 q 699 358 708 349 q 663 368 689 368 l 406 368 q 369 359 378 368 q 360 324 360 350 l 360 126 q 369 91 360 100 q 406 82 379 82 l 925 82 l 925 0 l 236 0 q 128 107 128 0 l 128 315 q 207 399 128 397 l 207 406 q 128 488 128 406 l 128 567 q 236 674 128 674 l 669 674 l 669 782 l -28 782 l -28 864 l 1075 864 l 1075 782 l 901 782 l 901 592 z "},"़":{"ha":0,"x_min":-449,"x_max":-221,"o":"m -449 -254 l -449 -90 l -221 -90 l -221 -254 l -449 -254 z "},"ऽ":{"ha":983,"x_min":118,"x_max":875,"o":"m 394 519 l 767 519 q 875 411 875 519 l 875 107 q 767 0 875 0 l 229 0 q 122 108 122 0 l 122 246 l 353 246 l 353 126 q 363 91 353 100 q 399 82 372 82 l 597 82 q 634 91 625 82 q 643 126 643 100 l 643 392 q 634 428 643 419 q 597 438 625 438 l 225 438 q 144 463 169 438 q 118 543 118 488 l 118 757 q 225 864 118 864 l 871 864 l 871 782 l 394 782 q 358 773 367 782 q 349 738 349 764 l 349 564 q 358 528 349 538 q 394 519 367 519 z "},"ा":{"ha":515,"x_min":-28,"x_max":543,"o":"m 543 864 l 543 782 l 374 782 l 374 0 l 142 0 l 142 782 l -28 782 l -28 864 l 543 864 z "},"ि":{"ha":515,"x_min":-28,"x_max":1374,"o":"m 249 1157 l 1267 1157 q 1374 1049 1374 1157 l 1374 929 l 1143 929 l 1143 1031 q 1133 1066 1143 1057 q 1097 1075 1124 1075 l 418 1075 q 383 1066 392 1075 q 374 1031 374 1057 l 374 864 l 543 864 l 543 782 l 374 782 l 374 0 l 142 0 l 142 782 l -28 782 l -28 864 l 142 864 l 142 1049 q 249 1157 142 1157 z "},"ी":{"ha":515,"x_min":-379,"x_max":543,"o":"m 543 864 l 543 782 l 374 782 l 374 0 l 142 0 l 142 782 l -28 782 l -28 864 l 142 864 l 142 1031 q 133 1066 142 1057 q 97 1075 124 1075 l -103 1075 q -138 1066 -129 1075 q -147 1031 -147 1057 l -147 929 l -379 929 l -379 1049 q -272 1157 -379 1157 l 267 1157 q 374 1049 374 1157 l 374 864 l 543 864 z "},"ु":{"ha":0,"x_min":-794,"x_max":25,"o":"m -397 0 l -79 0 q 1 -24 -24 0 q 25 -104 25 -49 l 25 -271 q 1 -351 25 -326 q -79 -375 -24 -375 l -522 -375 q -629 -360 -597 -375 q -697 -286 -661 -344 l -794 -125 l -569 -125 l -494 -254 q -469 -285 -481 -276 q -436 -293 -458 -293 l -246 -293 q -209 -283 -219 -293 q -199 -247 -199 -272 l -199 -128 q -209 -92 -199 -103 q -246 -82 -219 -82 l -397 -82 l -397 0 z "},"ू":{"ha":0,"x_min":-647,"x_max":207,"o":"m -224 -82 l -378 -82 q -415 -92 -404 -82 q -425 -128 -425 -103 l -425 -247 q -415 -283 -425 -272 q -378 -293 -404 -293 l -231 -293 l -231 -375 l -543 -375 q -623 -351 -599 -375 q -647 -271 -647 -326 l -647 -104 q -623 -24 -647 -49 q -543 0 -599 0 l -137 0 q -29 -15 -61 0 q 38 -89 3 -29 l 207 -375 l -18 -375 l -165 -121 q -190 -90 -179 -99 q -224 -82 -201 -82 z "},"ृ":{"ha":0,"x_min":-586,"x_max":-14,"o":"m -317 -293 l -14 -293 l -14 -375 l -482 -375 q -562 -351 -537 -375 q -586 -271 -586 -326 l -586 -104 q -562 -24 -586 -49 q -482 0 -537 0 l -76 0 l -76 -82 l -317 -82 q -353 -92 -343 -82 q -364 -128 -364 -103 l -364 -247 q -353 -283 -364 -272 q -317 -293 -343 -293 z "},"ॄ":{"ha":0,"x_min":-586,"x_max":-3,"o":"m -317 -589 l -3 -589 l -3 -671 l -482 -671 q -562 -647 -537 -671 q -586 -567 -586 -622 l -586 -421 q -551 -336 -586 -367 q -586 -250 -586 -304 l -586 -104 q -562 -24 -586 -49 q -482 0 -537 0 l -43 0 l -43 -82 l -317 -82 q -353 -92 -343 -82 q -364 -128 -364 -103 l -364 -249 q -353 -284 -364 -274 q -317 -294 -343 -294 l -19 -294 l -19 -376 l -317 -376 q -353 -387 -343 -376 q -364 -422 -364 -397 l -364 -543 q -353 -578 -364 -568 q -317 -589 -343 -589 z "},"ॅ":{"ha":0,"x_min":-579,"x_max":190,"o":"m -31 1183 l 190 1183 l 190 1058 q 83 951 190 951 l -472 951 q -579 1058 -579 951 l -579 1183 l -358 1183 l -358 1078 q -349 1042 -358 1051 q -314 1033 -340 1033 l -75 1033 q -40 1042 -49 1033 q -31 1078 -31 1051 l -31 1183 z "},"ॆ":{"ha":0,"x_min":-842,"x_max":-76,"o":"m -565 1032 l -183 1032 q -76 925 -76 1032 l -76 815 l -308 815 l -308 906 q -317 941 -308 932 q -353 950 -326 950 l -736 950 q -817 976 -792 950 q -842 1057 -842 1001 l -842 1153 l -611 1153 l -611 1076 q -601 1041 -611 1050 q -565 1032 -592 1032 z "},"े":{"ha":0,"x_min":-642,"x_max":-129,"o":"m -129 849 l -342 849 q -514 1008 -417 896 l -642 1157 l -390 1157 l -129 849 z "},"ै":{"ha":0,"x_min":-703,"x_max":-140,"o":"m -262 864 l -253 864 q -339 1082 -275 907 l -367 1157 l -200 1157 l -140 849 l -360 849 q -511 976 -406 876 l -703 1157 l -482 1157 l -421 1085 q -262 864 -321 968 z "},"ॉ":{"ha":515,"x_min":-132,"x_max":638,"o":"m -28 782 l -28 864 l 543 864 l 543 782 l 374 782 l 374 0 l 142 0 l 142 782 l -28 782 m 417 1183 l 638 1183 l 638 1058 q 531 951 638 951 l -25 951 q -132 1058 -132 951 l -132 1183 l 89 1183 l 89 1078 q 98 1042 89 1051 q 133 1033 107 1033 l 372 1033 q 408 1042 399 1033 q 417 1078 417 1051 l 417 1183 z "},"ॊ":{"ha":515,"x_min":-392,"x_max":543,"o":"m 543 864 l 543 782 l 374 782 l 374 0 l 142 0 l 142 782 l -28 782 l -28 864 l 142 864 l 142 906 q 133 941 142 932 q 97 950 124 950 l -286 950 q -367 976 -342 950 q -392 1057 -392 1001 l -392 1153 l -161 1153 l -161 1076 q -151 1041 -161 1050 q -115 1032 -142 1032 l 267 1032 q 374 925 374 1032 l 374 864 l 543 864 z "},"ो":{"ha":515,"x_min":-125,"x_max":543,"o":"m 543 864 l 543 782 l 374 782 l 374 0 l 142 0 l 142 782 l -28 782 l -28 864 l 153 864 q 3 1008 86 913 l -125 1157 l 126 1157 l 375 864 l 543 864 z "},"ौ":{"ha":515,"x_min":-186,"x_max":543,"o":"m 543 864 l 543 782 l 374 782 l 374 0 l 142 0 l 142 782 l -28 782 l -28 864 l 135 864 q 6 976 81 904 l -186 1157 l 35 1157 l 96 1085 q 254 864 196 968 l 264 864 q 178 1082 242 907 l 150 1157 l 317 1157 l 374 864 l 543 864 z "},"्":{"ha":0,"x_min":-375,"x_max":31,"o":"m -375 -85 l -142 -85 l 31 -314 l -206 -314 l -375 -85 z "},"ॐ":{"ha":1690,"x_min":85,"x_max":1708,"o":"m 1400 1042 l 1400 907 l 1257 907 l 1257 1042 l 1400 1042 m 863 558 l 1593 558 q 1700 451 1700 558 l 1700 107 q 1593 0 1700 0 l 1076 0 q 968 107 968 0 l 968 286 l 1200 286 l 1200 126 q 1210 91 1200 100 q 1246 82 1219 82 l 1424 82 q 1459 91 1450 82 q 1468 126 1468 100 l 1468 433 q 1459 468 1468 460 q 1424 476 1450 476 l 785 476 l 785 471 q 863 389 863 469 l 863 107 q 756 0 863 0 l 192 0 q 85 107 85 0 l 85 286 l 315 286 l 315 126 q 325 91 315 100 q 361 82 335 82 l 586 82 q 622 91 613 82 q 632 126 632 100 l 632 386 q 623 422 632 413 q 586 431 614 431 l 403 431 l 403 513 l 586 513 q 623 522 614 513 q 632 558 632 531 l 632 738 q 623 773 632 764 q 586 782 614 782 l 361 782 q 324 773 333 782 q 315 738 315 764 l 315 621 l 85 621 l 85 757 q 192 864 85 864 l 756 864 q 863 757 863 864 l 863 558 m 1514 968 l 1708 968 l 1708 844 q 1606 736 1708 736 l 1051 736 q 947 844 947 736 l 947 968 l 1142 968 l 1142 863 q 1151 827 1142 836 q 1188 818 1161 818 l 1469 818 q 1505 827 1496 818 q 1514 863 1514 836 l 1514 968 z "},"॑":{"ha":0,"x_min":-358,"x_max":-133,"o":"m -358 988 l -358 1349 l -133 1349 l -133 988 l -358 988 z "},"॒":{"ha":0,"x_min":-697,"x_max":-76,"o":"m -76 -264 l -697 -264 l -697 -182 l -76 -182 l -76 -264 z "},"॓":{"ha":0,"x_min":-526,"x_max":-147,"o":"m -526 1261 l -379 1383 l -147 1106 l -294 983 l -526 1261 z "},"॔":{"ha":0,"x_min":-332,"x_max":47,"o":"m -100 1383 l 47 1261 l -185 983 l -332 1106 l -100 1383 z "},"क़":{"ha":1508,"x_min":-28,"x_max":1536,"o":"m 174 -146 l 174 18 l 401 18 l 401 -146 l 174 -146 m 1536 782 l 869 782 l 869 661 q 914 674 883 674 l 1297 674 q 1404 567 1404 674 l 1404 215 q 1297 108 1404 108 l 939 108 l 939 190 l 1128 190 q 1163 199 1154 190 q 1172 235 1172 208 l 1172 547 q 1163 583 1172 574 q 1128 592 1154 592 l 917 592 q 879 582 889 592 q 869 544 869 572 l 869 0 l 639 0 l 639 121 q 594 108 625 108 l 213 108 q 106 215 106 108 l 106 567 q 213 674 106 674 l 569 674 l 569 592 l 382 592 q 346 583 356 592 q 336 547 336 574 l 336 235 q 346 199 336 208 q 382 190 356 190 l 592 190 q 629 201 619 190 q 639 238 639 211 l 639 782 l -28 782 l -28 864 l 1536 864 l 1536 782 z "},"ख़":{"ha":1892,"x_min":-28,"x_max":1919,"o":"m 625 -254 l 625 -90 l 853 -90 l 853 -254 l 625 -254 m 1919 864 l 1919 782 l 1750 782 l 1750 0 l 1521 0 l 1521 182 q 1474 167 1507 167 l 1083 167 q 976 274 976 167 l 976 525 q 1083 632 976 632 l 1458 632 l 1458 550 l 1231 550 q 1195 541 1204 550 q 1186 506 1186 532 l 1186 292 q 1195 257 1186 267 q 1231 247 1204 247 l 1469 247 q 1509 259 1497 247 q 1521 299 1521 271 l 1521 782 l 818 782 l 818 424 q 792 343 818 368 q 711 318 767 318 l 353 318 l 353 126 q 362 91 353 100 q 397 82 371 82 l 929 82 l 929 0 l 226 0 q 146 26 171 0 q 121 107 121 51 l 121 633 l 353 633 l 353 400 l 546 400 q 581 409 572 400 q 590 444 590 418 l 590 782 l -28 782 l -28 864 l 1919 864 z "},"ग़":{"ha":1519,"x_min":-28,"x_max":1547,"o":"m 381 -146 l 381 18 l 608 18 l 608 -146 l 381 -146 m 350 190 l 635 190 q 670 199 661 190 q 679 235 679 208 l 679 510 l 350 510 q 315 501 324 510 q 306 465 306 492 l 306 235 q 315 199 306 208 q 350 190 324 190 m 1547 864 l 1547 782 l 1376 782 l 1376 0 l 1146 0 l 1146 782 l 910 782 l 910 215 q 885 134 910 160 q 804 108 860 108 l 199 108 q 92 215 92 108 l 92 485 q 199 592 92 592 l 679 592 l 679 782 l -28 782 l -28 864 l 1547 864 z "},"ज़":{"ha":1493,"x_min":-28,"x_max":1521,"o":"m 382 -146 l 382 18 l 610 18 l 610 -146 l 382 -146 m 1521 864 l 1521 782 l 1351 782 l 1351 0 l 1119 0 l 1119 592 l 888 592 l 888 215 q 781 108 888 108 l 228 108 q 121 215 121 108 l 121 674 l 344 674 l 344 235 q 354 199 344 208 q 390 190 364 190 l 618 190 q 653 199 644 190 q 663 235 663 208 l 663 674 l 1119 674 l 1119 782 l -28 782 l -28 864 l 1521 864 z "},"ड़":{"ha":1004,"x_min":-28,"x_max":1032,"o":"m 424 -254 l 424 -90 l 651 -90 l 651 -254 l 424 -254 m 863 592 l 392 592 q 355 583 364 592 q 346 547 346 574 l 346 476 q 355 441 346 450 q 392 432 364 432 l 788 432 q 896 325 896 432 l 896 107 q 788 0 896 0 l 226 0 q 119 107 119 0 l 119 238 l 350 238 l 350 126 q 360 91 350 100 q 396 82 369 82 l 618 82 q 655 91 646 82 q 664 126 664 100 l 664 304 q 654 340 664 331 q 618 350 644 350 l 222 350 q 115 457 115 350 l 115 567 q 222 674 115 674 l 631 674 l 631 782 l -28 782 l -28 864 l 1032 864 l 1032 782 l 863 782 l 863 592 z "},"ढ़":{"ha":1064,"x_min":-28,"x_max":1092,"o":"m 450 -254 l 450 -90 l 678 -90 l 678 -254 l 450 -254 m 875 592 l 399 592 q 363 583 372 592 q 354 547 354 574 l 354 126 q 363 91 354 100 q 399 82 372 82 l 688 82 q 723 91 714 82 q 732 126 732 100 l 732 276 q 723 312 732 303 q 688 321 714 321 l 519 321 l 519 403 l 840 403 q 921 377 896 403 q 946 296 946 351 l 946 107 q 921 26 946 51 q 840 0 896 0 l 229 0 q 122 107 122 0 l 122 567 q 229 674 122 674 l 644 674 l 644 782 l -28 782 l -28 864 l 1092 864 l 1092 782 l 875 782 l 875 592 z "},"फ़":{"ha":1550,"x_min":-28,"x_max":1579,"o":"m 131 -146 l 131 18 l 358 18 l 358 -146 l 131 -146 m 678 238 l 678 782 l 347 782 l 347 235 q 356 199 347 208 q 392 190 365 190 l 631 190 q 668 201 658 190 q 678 238 678 211 m 1579 782 l 908 782 l 908 661 q 953 674 922 674 l 1339 674 q 1446 567 1446 674 l 1446 215 q 1339 108 1446 108 l 972 108 l 972 190 l 1169 190 q 1205 199 1196 190 q 1214 235 1214 208 l 1214 547 q 1205 583 1214 574 q 1169 592 1196 592 l 956 592 q 918 582 928 592 q 908 544 908 572 l 908 0 l 678 0 l 678 121 q 633 108 664 108 l 229 108 q 122 215 122 108 l 122 782 l -28 782 l -28 864 l 1579 864 l 1579 782 z "},"य़":{"ha":1342,"x_min":-28,"x_max":1369,"o":"m 313 -146 l 313 18 l 540 18 l 540 -146 l 313 -146 m 968 242 l 968 782 l 713 782 q 731 736 731 769 l 731 536 q 624 429 731 429 l 315 429 l 315 235 q 324 199 315 208 q 360 190 333 190 l 915 190 q 957 201 946 190 q 968 242 968 213 m 1369 864 l 1369 782 l 1199 782 l 1199 0 l 968 0 l 968 125 q 919 108 956 108 l 190 108 q 83 215 83 108 l 83 511 l 454 511 q 490 520 481 511 q 499 556 499 529 l 499 738 q 490 773 499 764 q 454 782 481 782 l -28 782 l -28 864 l 1369 864 z "},"ॠ":{"ha":1900,"x_min":-28,"x_max":1928,"o":"m 1310 546 l 1310 403 q 1319 369 1310 379 q 1351 358 1329 358 l 1536 358 q 1566 368 1557 358 q 1575 403 1575 378 l 1575 546 q 1566 582 1575 572 q 1531 592 1557 592 l 1354 592 q 1319 582 1328 592 q 1310 546 1310 572 m 936 782 l 936 358 l 1108 358 q 1083 436 1083 375 l 1083 567 q 1190 674 1083 674 l 1688 674 q 1794 567 1794 674 l 1794 382 q 1688 275 1794 275 l 1349 275 q 1315 267 1324 275 q 1306 232 1306 258 l 1306 128 q 1313 92 1306 101 q 1347 82 1321 82 l 1521 82 q 1556 90 1547 82 q 1565 122 1565 97 l 1565 188 l 1793 188 l 1793 107 q 1693 0 1793 0 l 1193 0 q 1085 107 1085 0 l 1085 203 q 1110 275 1085 258 l 936 275 l 936 0 l 706 0 l 706 275 l 626 275 l 338 0 l 68 0 l 413 326 l 260 513 q 180 574 219 558 q 81 589 140 589 l 46 589 l 46 674 l 214 674 q 358 655 307 674 q 458 578 408 636 l 639 358 l 706 358 l 706 782 l -28 782 l -28 864 l 1928 864 l 1928 782 l 936 782 z "},"ॡ":{"ha":1560,"x_min":-28,"x_max":1588,"o":"m 1419 117 l 1154 117 q 1117 106 1128 117 q 1107 71 1107 96 l 1107 -50 q 1117 -85 1107 -75 q 1154 -96 1128 -96 l 1442 -96 l 1442 -178 l 1154 -178 q 1117 -188 1128 -178 q 1107 -224 1107 -199 l 1107 -344 q 1117 -380 1107 -369 q 1154 -390 1128 -390 l 1460 -390 l 1460 -472 l 988 -472 q 908 -448 932 -472 q 883 -368 883 -424 l 883 -222 q 918 -137 883 -168 q 883 -51 883 -106 l 883 94 q 908 174 883 150 q 988 199 932 199 l 1188 199 l 1188 592 l 931 592 q 894 583 904 592 q 885 547 885 574 l 885 289 l 654 289 l 654 547 q 644 583 654 574 q 608 592 635 592 l 397 592 q 362 583 371 592 q 353 547 353 574 l 353 126 q 362 91 353 100 q 397 82 371 82 l 651 82 l 651 0 l 228 0 q 121 107 121 0 l 121 567 q 228 674 121 674 l 676 674 q 743 657 722 674 q 767 601 764 640 l 772 601 q 795 656 776 639 q 854 674 814 674 l 1188 674 l 1188 782 l -28 782 l -28 864 l 1588 864 l 1588 782 l 1419 782 l 1419 117 z "},"।":{"ha":586,"x_min":228,"x_max":454,"o":"m 228 0 l 228 864 l 454 864 l 454 0 l 228 0 z "},"॥":{"ha":1096,"x_min":228,"x_max":963,"o":"m 228 0 l 228 864 l 454 864 l 454 0 l 228 0 m 738 0 l 738 864 l 963 864 l 963 0 l 738 0 z "},"०":{"ha":1031,"x_min":129,"x_max":901,"o":"m 397 82 l 635 82 q 669 91 661 82 q 678 126 678 100 l 678 738 q 669 773 678 764 q 635 782 661 782 l 397 782 q 363 773 371 782 q 354 738 354 764 l 354 126 q 363 91 354 100 q 397 82 371 82 m 233 864 l 799 864 q 901 756 901 864 l 901 108 q 799 0 901 0 l 233 0 q 129 108 129 0 l 129 756 q 233 864 129 864 z "},"१":{"ha":672,"x_min":74,"x_max":525,"o":"m 525 864 l 525 0 l 293 0 l 293 782 l 74 782 l 74 864 l 525 864 z "},"२":{"ha":1036,"x_min":129,"x_max":910,"o":"m 910 82 l 910 0 l 129 0 l 129 81 l 535 444 q 640 555 603 503 q 676 668 676 607 l 676 738 q 668 773 676 764 q 633 782 660 782 l 411 782 q 376 773 385 782 q 368 738 368 764 l 368 560 l 138 560 l 138 756 q 240 864 138 864 l 804 864 q 907 753 907 864 l 907 668 q 878 521 907 575 q 783 406 850 467 l 432 82 l 910 82 z "},"३":{"ha":1018,"x_min":108,"x_max":896,"o":"m 621 85 q 656 94 647 85 q 665 131 665 104 l 665 343 q 615 390 665 390 l 449 390 l 449 474 l 617 474 q 665 522 665 474 l 665 733 q 656 769 665 760 q 621 779 647 779 l 383 779 q 349 769 357 779 q 340 733 340 760 l 340 607 l 108 607 l 108 756 q 213 864 108 864 l 792 864 q 896 753 896 864 l 896 542 q 803 439 896 446 l 803 433 q 896 331 896 429 l 896 113 q 792 0 896 0 l 213 0 q 108 108 108 0 l 108 260 l 340 260 l 340 131 q 349 94 340 104 q 383 85 357 85 l 621 85 z "},"४":{"ha":1007,"x_min":74,"x_max":943,"o":"m 943 235 l 943 153 l 814 153 l 814 0 l 599 0 l 599 153 l 74 153 l 74 256 l 381 864 l 610 864 l 299 235 l 599 235 l 599 453 l 814 453 l 814 235 l 943 235 z "},"५":{"ha":1017,"x_min":126,"x_max":901,"o":"m 358 543 l 799 543 q 901 435 901 543 l 901 113 q 799 0 901 0 l 232 0 q 128 108 128 0 l 128 290 l 360 290 l 360 126 q 368 91 360 100 q 403 82 376 82 l 628 82 q 663 91 654 82 q 671 126 671 100 l 671 417 q 663 452 671 443 q 628 461 654 461 l 126 461 l 126 864 l 888 864 l 888 782 l 358 782 l 358 543 z "},"६":{"ha":1044,"x_min":129,"x_max":922,"o":"m 692 126 l 692 378 q 683 414 692 404 q 647 424 674 424 l 360 424 l 360 126 q 368 91 360 100 q 403 82 376 82 l 647 82 q 683 92 674 82 q 692 126 692 101 m 360 504 l 819 504 q 922 397 922 504 l 922 108 q 819 0 922 0 l 232 0 q 129 108 129 0 l 129 756 q 232 864 129 864 l 817 864 q 919 756 919 864 l 919 608 l 689 608 l 689 738 q 681 773 689 764 q 646 782 672 782 l 403 782 q 368 773 376 782 q 360 738 360 764 l 360 504 z "},"७":{"ha":821,"x_min":71,"x_max":747,"o":"m 747 864 l 747 778 l 431 0 l 201 0 l 521 782 l 71 782 l 71 864 l 747 864 z "},"८":{"ha":985,"x_min":103,"x_max":881,"o":"m 657 518 l 657 738 q 648 772 657 763 q 613 782 639 782 l 371 782 q 335 772 344 782 q 326 738 326 763 l 326 518 q 337 483 326 493 q 374 472 347 472 l 611 472 q 647 483 636 472 q 657 518 657 493 m 657 126 l 657 344 q 647 380 657 369 q 611 390 638 390 l 371 390 q 336 380 346 390 q 326 344 326 369 l 326 126 q 335 92 326 101 q 371 82 344 82 l 613 82 q 648 91 639 82 q 657 126 657 100 m 881 753 l 881 543 q 781 433 881 436 l 781 429 q 881 326 881 426 l 881 113 q 776 0 881 0 l 207 0 q 103 113 103 0 l 103 326 q 203 429 103 426 l 203 433 q 103 543 103 436 l 103 753 q 207 864 103 864 l 776 864 q 881 753 881 864 z "},"९":{"ha":1044,"x_min":122,"x_max":915,"o":"m 396 431 l 685 431 l 685 738 q 676 772 685 763 q 640 782 667 782 l 396 782 q 361 773 369 782 q 353 738 353 764 l 353 476 q 361 440 353 450 q 396 431 369 431 m 225 864 l 813 864 q 915 756 915 864 l 915 108 q 813 0 915 0 l 228 0 q 125 108 125 0 l 125 246 l 356 246 l 356 126 q 364 91 356 100 q 399 82 372 82 l 640 82 q 676 92 667 82 q 685 126 685 101 l 685 350 l 225 350 q 122 457 122 350 l 122 756 q 225 864 122 864 z "},"॰":{"ha":919,"x_min":111,"x_max":803,"o":"m 604 304 l 604 476 q 595 512 604 503 q 560 521 586 521 l 356 521 q 319 512 329 521 q 310 476 310 503 l 310 304 q 319 269 310 278 q 356 260 329 260 l 560 260 q 595 269 586 260 q 604 304 604 278 m 218 600 l 696 600 q 803 493 803 600 l 803 288 q 696 181 803 181 l 218 181 q 111 288 111 181 l 111 493 q 218 600 111 600 z "},"ॲ":{"ha":1493,"x_min":97,"x_max":1621,"o":"m 1521 864 l 1521 782 l 1351 782 l 1351 0 l 1119 0 l 1119 413 l 883 413 l 883 215 q 776 108 883 108 l 204 108 q 97 215 97 108 l 97 351 l 329 351 l 329 235 q 338 199 329 208 q 374 190 347 190 l 607 190 q 642 199 633 190 q 651 235 651 208 l 651 396 q 641 433 651 422 q 604 443 631 443 l 411 443 l 411 525 l 604 525 q 641 535 631 525 q 651 572 651 544 l 651 738 q 642 773 651 764 q 607 782 633 782 l 374 782 q 338 773 347 782 q 329 738 329 764 l 329 621 l 97 621 l 97 757 q 204 864 97 864 l 776 864 q 883 757 883 864 l 883 585 q 806 500 883 504 l 806 494 l 1119 494 l 1119 864 l 1521 864 m 1400 1183 l 1621 1183 l 1621 1058 q 1514 951 1621 951 l 958 951 q 851 1058 851 951 l 851 1183 l 1072 1183 l 1072 1078 q 1081 1042 1072 1051 q 1117 1033 1090 1033 l 1356 1033 q 1391 1042 1382 1033 q 1400 1078 1400 1051 l 1400 1183 z "},"ॽ":{"ha":999,"x_min":164,"x_max":857,"o":"m 272 949 l 750 949 q 857 843 857 949 l 857 476 q 750 369 857 369 l 594 369 l 594 0 l 369 0 l 369 451 l 596 451 q 631 461 622 451 q 639 497 639 471 l 639 821 q 631 858 639 849 q 596 868 622 868 l 438 868 q 402 858 411 868 q 393 821 393 847 l 393 665 l 164 665 l 164 843 q 272 949 164 949 z "},"​":{"ha":0,"x_min":0,"x_max":0,"o":""},"‌":{"ha":0,"x_min":-33,"x_max":38,"o":"m -33 1103 l 38 1103 l 38 -481 l -33 -481 l -33 1103 z "},"‍":{"ha":0,"x_min":-207,"x_max":185,"o":"m 25 -481 l -46 -481 l -46 839 l -149 738 l -207 792 l -62 924 l -207 1057 l -150 1110 l -10 972 l 129 1110 l 185 1057 l 40 924 l 185 792 l 128 738 l 25 840 l 25 -481 z "},"–":{"ha":974,"x_min":86,"x_max":796,"o":"m 86 364 l 86 446 l 796 446 l 796 364 l 86 364 z "},"—":{"ha":1342,"x_min":86,"x_max":1249,"o":"m 86 364 l 86 446 l 1249 446 l 1249 364 l 86 364 z "},"‘":{"ha":382,"x_min":74,"x_max":307,"o":"m 307 864 l 307 490 l 74 490 l 74 583 l 231 864 l 307 864 z "},"’":{"ha":382,"x_min":81,"x_max":314,"o":"m 81 490 l 81 864 l 314 864 l 314 769 l 158 490 l 81 490 z "},"‚":{"ha":381,"x_min":81,"x_max":314,"o":"m 81 -179 l 81 196 l 314 196 l 314 101 l 158 -179 l 81 -179 z "},"“":{"ha":681,"x_min":74,"x_max":613,"o":"m 307 864 l 307 490 l 74 490 l 74 583 l 231 864 l 307 864 m 613 864 l 613 490 l 379 490 l 379 583 l 536 864 l 613 864 z "},"”":{"ha":681,"x_min":81,"x_max":619,"o":"m 386 490 l 386 864 l 619 864 l 619 769 l 464 490 l 386 490 m 81 490 l 81 864 l 314 864 l 314 769 l 158 490 l 81 490 z "},"„":{"ha":681,"x_min":81,"x_max":619,"o":"m 386 -179 l 386 196 l 619 196 l 619 101 l 464 -179 l 386 -179 m 81 -179 l 81 196 l 314 196 l 314 101 l 158 -179 l 81 -179 z "},"†":{"ha":856,"x_min":78,"x_max":776,"o":"m 776 649 l 776 567 l 542 567 l 542 -174 l 318 -174 l 318 567 l 78 567 l 78 649 l 318 649 l 318 864 l 542 864 l 542 649 l 776 649 z "},"‡":{"ha":881,"x_min":90,"x_max":789,"o":"m 789 539 l 554 539 l 554 125 l 789 125 l 789 43 l 554 43 l 554 -207 l 331 -207 l 331 43 l 90 43 l 90 125 l 331 125 l 331 539 l 90 539 l 90 621 l 331 621 l 331 864 l 554 864 l 554 621 l 789 621 l 789 539 z "},"•":{"ha":676,"x_min":106,"x_max":571,"o":"m 106 440 q 106 478 106 440 q 174 572 106 517 q 338 626 242 626 q 503 572 435 626 q 571 439 571 517 q 503 306 571 361 q 339 251 435 251 q 174 307 243 251 q 106 440 106 363 z "},"…":{"ha":1197,"x_min":81,"x_max":1129,"o":"m 81 0 l 81 178 l 321 178 l 321 0 l 81 0 m 488 0 l 488 178 l 728 178 l 728 0 l 488 0 m 889 0 l 889 178 l 1129 178 l 1129 0 l 889 0 z "},"‰":{"ha":2283,"x_min":67,"x_max":2213,"o":"m 1547 403 l 1547 85 q 1468 1 1547 1 l 1076 1 q 997 85 997 1 l 997 403 q 1076 486 997 486 l 1468 486 q 1547 403 1547 486 m 1381 103 l 1381 383 q 1375 410 1381 404 q 1349 417 1369 417 l 1197 417 q 1171 410 1176 417 q 1165 383 1165 404 l 1165 103 q 1171 76 1165 82 q 1197 69 1176 69 l 1349 69 q 1375 76 1369 69 q 1381 103 1381 82 m 1044 864 l 1218 864 l 567 0 l 394 0 l 1044 864 m 618 781 l 618 461 q 538 379 618 379 l 147 379 q 67 461 67 379 l 67 781 q 147 863 67 863 l 538 863 q 618 781 618 863 m 451 481 l 451 761 q 446 788 451 782 q 418 794 440 794 l 268 794 q 242 788 247 794 q 236 761 236 782 l 236 481 q 242 453 236 460 q 268 447 247 447 l 418 447 q 446 453 440 447 q 451 481 451 460 m 2213 403 l 2213 85 q 2133 1 2213 1 l 1742 1 q 1661 85 1661 1 l 1661 403 q 1742 486 1661 486 l 2133 486 q 2213 403 2213 486 m 2046 103 l 2046 383 q 2040 410 2046 404 q 2013 417 2035 417 l 1863 417 q 1836 410 1842 417 q 1831 383 1831 404 l 1831 103 q 1836 76 1831 82 q 1863 69 1842 69 l 2013 69 q 2040 76 2035 69 q 2046 103 2046 82 z "},"‹":{"ha":506,"x_min":58,"x_max":469,"o":"m 243 139 l 58 350 l 243 560 l 469 560 l 286 349 l 469 139 l 243 139 z "},"›":{"ha":503,"x_min":44,"x_max":456,"o":"m 456 350 l 271 139 l 44 139 l 229 349 l 44 560 l 271 560 l 456 350 z "},"⁄":{"ha":757,"x_min":22,"x_max":782,"o":"m 604 864 l 782 864 l 199 0 l 22 0 l 604 864 z "},"€":{"ha":986,"x_min":40,"x_max":917,"o":"m 917 560 l 692 560 l 692 739 q 683 774 692 767 q 649 782 675 782 l 425 782 q 390 774 397 782 q 382 739 382 767 l 382 563 l 572 563 l 572 481 l 382 481 l 382 385 l 572 385 l 572 303 l 382 303 l 382 125 q 390 90 382 97 q 425 82 397 82 l 649 82 q 683 90 675 82 q 692 125 692 97 l 692 303 l 917 303 l 917 110 q 807 0 917 0 l 267 0 q 157 110 157 0 l 157 303 l 40 303 l 40 385 l 157 385 l 157 481 l 40 481 l 40 563 l 157 563 l 157 754 q 267 864 157 864 l 807 864 q 917 754 917 864 l 917 560 z "},"™":{"ha":1343,"x_min":33,"x_max":1272,"o":"m 33 775 l 33 864 l 522 864 l 522 775 l 360 775 l 360 393 l 196 393 l 196 775 l 33 775 m 1272 864 l 1272 393 l 1119 393 l 1119 703 l 994 474 l 878 474 l 756 704 l 756 393 l 604 393 l 604 864 l 782 864 l 936 578 l 1093 864 l 1272 864 z "},"Ω":{"ha":1046,"x_min":54,"x_max":990,"o":"m 990 82 l 990 0 l 582 0 l 582 82 l 644 82 q 680 90 672 82 q 688 125 688 97 l 688 739 q 680 774 688 767 q 644 782 672 782 l 404 782 q 369 774 378 782 q 361 739 361 767 l 361 125 q 369 90 361 97 q 404 82 378 82 l 464 82 l 464 0 l 54 0 l 54 82 l 175 82 q 136 165 136 103 l 136 754 q 246 864 136 864 l 800 864 q 910 754 910 864 l 910 165 q 871 82 910 103 l 990 82 z "},"∏":{"ha":1051,"x_min":33,"x_max":938,"o":"m 186 864 l 938 864 l 938 0 l 724 0 l 724 782 l 400 782 l 400 110 q 290 0 400 0 l 33 0 l 33 86 l 143 86 q 178 94 169 86 q 186 129 186 103 l 186 864 z "},"−":{"ha":1074,"x_min":65,"x_max":875,"o":"m 65 361 l 65 501 l 875 501 l 875 361 l 65 361 z "},"∕":{"ha":644,"x_min":-35,"x_max":742,"o":"m 549 971 l 742 971 l 158 -189 l -35 -189 l 549 971 z "},"∙":{"ha":344,"x_min":60,"x_max":293,"o":"m 60 519 l 293 519 l 293 339 l 60 339 l 60 519 z "},"∞":{"ha":1339,"x_min":74,"x_max":1265,"o":"m 443 258 l 182 258 q 74 365 74 258 l 74 588 q 182 693 74 693 l 457 693 q 551 676 521 693 q 624 608 582 658 l 671 553 l 703 594 q 781 674 749 656 q 883 693 813 693 l 1156 693 q 1265 588 1265 693 l 1265 365 q 1156 258 1265 258 l 904 258 q 790 275 826 258 q 706 346 753 292 l 674 383 l 654 360 q 568 277 607 296 q 443 258 529 258 m 889 350 l 1051 350 q 1092 359 1083 350 q 1101 396 1101 368 l 1101 557 q 1092 593 1101 583 q 1051 603 1083 603 l 878 603 q 840 592 854 603 q 804 557 825 582 l 739 471 l 813 389 q 889 350 847 350 m 450 601 l 289 601 q 247 592 256 601 q 238 556 238 582 l 238 396 q 247 359 238 368 q 289 350 256 350 l 458 350 q 551 399 513 350 l 603 467 l 531 554 q 493 590 510 579 q 450 601 476 601 z "},"∫":{"ha":631,"x_min":44,"x_max":581,"o":"m 424 846 l 424 -69 q 314 -179 424 -179 l 44 -179 l 44 -93 l 157 -93 q 191 -85 183 -93 q 200 -50 199 -78 l 200 865 q 310 975 200 975 l 581 975 l 581 889 l 467 889 q 431 881 439 889 q 424 846 424 872 z "},"≈":{"ha":1111,"x_min":89,"x_max":1021,"o":"m 810 542 l 1021 542 l 1021 382 q 913 274 1021 274 l 731 274 q 549 342 646 274 q 364 411 451 411 q 315 400 328 411 q 301 358 301 389 l 301 275 l 89 275 l 89 435 q 197 542 89 542 l 382 542 q 489 520 438 542 q 574 473 540 499 q 654 426 607 447 q 742 404 701 404 q 797 416 783 404 q 810 458 810 428 l 810 542 z "},"≠":{"ha":988,"x_min":89,"x_max":899,"o":"m 899 496 l 607 496 l 507 371 l 899 371 l 899 233 l 396 233 l 319 138 l 193 138 l 271 233 l 89 233 l 89 371 l 381 371 l 482 496 l 89 496 l 89 635 l 593 635 l 665 724 l 790 724 l 719 635 l 899 635 l 899 496 z "},"≤":{"ha":1014,"x_min":68,"x_max":933,"o":"m 933 263 l 933 143 l 68 143 l 68 263 l 933 263 m 933 574 l 231 497 l 933 421 l 933 286 l 68 421 l 68 576 l 933 707 l 933 574 z "},"≥":{"ha":1014,"x_min":82,"x_max":947,"o":"m 82 143 l 82 263 l 947 263 l 947 143 l 82 143 m 785 497 l 82 574 l 82 707 l 946 576 l 946 421 l 82 286 l 82 421 l 785 497 z "},"◊":{"ha":1064,"x_min":67,"x_max":996,"o":"m 996 435 l 629 0 l 421 0 l 67 435 l 421 864 l 629 864 l 996 435 m 768 435 l 525 733 l 296 435 l 525 132 l 768 435 z "},"◌":{"ha":586,"x_min":99,"x_max":479,"o":"m 190 210 l 190 108 q 124 136 150 108 q 99 210 99 164 l 190 210 m 99 263 l 99 364 l 190 364 l 190 263 l 99 263 m 99 418 l 99 519 l 190 519 l 190 418 l 99 418 m 190 572 l 99 572 q 124 647 99 619 q 190 674 149 674 l 190 572 m 388 108 l 388 210 l 479 210 q 454 138 479 168 q 388 108 429 108 m 388 263 l 388 364 l 479 364 l 479 263 l 388 263 m 388 418 l 388 519 l 479 519 l 479 418 l 388 418 m 388 572 l 388 674 q 479 572 479 674 l 388 572 m 243 572 l 243 674 l 335 674 l 335 572 l 243 572 m 243 108 l 243 210 l 335 210 l 335 108 l 243 108 z "},"":{"ha":899,"x_min":339,"x_max":558,"o":"m 339 -349 l 339 -67 l 558 -67 l 558 -153 l 408 -349 l 339 -349 z "},"ﬁ":{"ha":925,"x_min":60,"x_max":825,"o":"m 821 674 l 821 0 l 607 0 l 607 592 l 375 592 l 375 0 l 160 0 l 160 592 l 60 592 l 60 674 l 160 674 l 160 819 q 269 929 160 929 l 536 929 l 536 844 l 418 844 q 383 836 392 844 q 375 801 375 828 l 375 674 l 821 674 m 604 929 l 825 929 l 825 797 l 604 797 l 604 929 z "},"ﬂ":{"ha":928,"x_min":60,"x_max":821,"o":"m 607 929 l 821 929 l 821 0 l 607 0 l 607 592 l 375 592 l 375 0 l 160 0 l 160 592 l 60 592 l 60 674 l 160 674 l 160 819 q 269 929 160 929 l 540 929 l 540 844 l 418 844 q 383 836 392 844 q 375 801 375 828 l 375 674 l 607 674 l 607 929 z "}}}
